G04 DipTrace Beta 2.3.5.2*
%INMinimOSD_MK2.GTS*%
%MOIN*%
%ADD24R,0.1181X0.063*%
%ADD25R,0.05X0.025*%
%ADD28R,0.0394X0.0433*%
%ADD29R,0.0433X0.0394*%
%ADD30R,0.0315X0.0315*%
%ADD31R,0.0315X0.0472*%
%ADD32R,0.025X0.05*%
%ADD35R,0.0118X0.0315*%
%ADD36R,0.2756X0.126*%
%ADD38R,0.0531X0.0157*%
%ADD39R,0.0827X0.063*%
%ADD40R,0.0748X0.0906*%
%ADD41R,0.0748X0.0709*%
%ADD42R,0.0276X0.0295*%
%FSLAX44Y44*%
G04*
G70*
G90*
G75*
G01*
%LNTopMask*%
%LPD*%
D24*
X700Y6350D3*
D25*
X1800Y1800D3*
Y1446D3*
Y1083D3*
X1850Y4817D3*
Y4462D3*
Y4100D3*
D24*
X700Y2450D3*
Y1450D3*
Y450D3*
Y3450D3*
Y4450D3*
Y5450D3*
D29*
X2200Y5900D3*
X2869D3*
X4400Y1300D3*
X3731D3*
D28*
X5600Y1100D3*
Y431D3*
X5100Y1100D3*
Y431D3*
X6650Y1750D3*
Y1081D3*
X7750Y1750D3*
Y1081D3*
X7200Y1750D3*
Y1081D3*
D30*
X6250Y6600D3*
Y6009D3*
X5350Y6600D3*
Y6009D3*
X5800Y6600D3*
Y6009D3*
D31*
X4150Y6500D3*
X4859D3*
D32*
X3800Y5700D3*
X3446D3*
D35*
X2650Y4400D3*
X2906D3*
X3162D3*
X3418D3*
X3674D3*
X3930D3*
X4185D3*
X4441D3*
X4697D3*
X4953D3*
X5209D3*
X5465D3*
X5721D3*
X5977D3*
Y2038D3*
X5721D3*
X5465D3*
X5209D3*
X4953D3*
X4697D3*
X4441D3*
X4185D3*
X3930D3*
X3674D3*
X3418D3*
X3162D3*
X2906D3*
X2650D3*
D36*
X4313Y3219D3*
D38*
X7000Y4150D3*
Y4406D3*
Y4662D3*
Y4918D3*
Y5174D3*
D39*
X7089Y3402D3*
Y5922D3*
D40*
X8053Y3185D3*
Y6138D3*
D41*
Y4209D3*
Y5115D3*
D42*
X4650Y5000D3*
Y5531D3*
X5044D3*
Y5000D3*
D29*
X2850Y5400D3*
X2181D3*
X4400Y450D3*
X3731D3*
X7600Y2350D3*
X6931D3*
M02*
