M48
INCH
T01C0.01
T02C0.025
%
T01
X+004450Y+002400
X+005200Y+002400
X+006010Y+002340
X+006540Y+002770
X+007050Y+002750
X+007450Y+002900
X+008370Y+002490
X+008370Y+002150
X+007610Y+001250
X+007200Y+001350
X+006800Y+001260
X+006000Y+000700
X+006200Y+000230
X+006470Y+000180
X+007870Y+000190
X+008360Y+000200
X+008380Y+000690
X+005850Y+001500
X+005400Y+001500
X+003400Y+002250
X+003150Y+002350
X+003200Y+001150
X+002930Y+001140
X+002770Y+001140
X+001950Y+000850
X+001800Y+000850
X+001650Y+000850
X+000950Y+000950
X+000330Y+000930
X+000300Y+001940
X+000960Y+001950
X+001650Y+002000
X+001800Y+002000
X+001950Y+002000
X+002750Y+003550
X+002750Y+003850
X+002800Y+004100
X+003150Y+004600
X+003418Y+004068
X+003674Y+004076
X+003930Y+004160
X+002550Y+004850
X+002000Y+005050
X+001850Y+005050
X+001700Y+005050
X+001390Y+005900
X+002370Y+006680
X+003020Y+006550
X+003020Y+006370
X+002850Y+006200
X+004350Y+006450
X+004550Y+006650
X+005350Y+006450
X+005800Y+006700
X+006650Y+006400
X+006980Y+006600
X+007380Y+006600
X+007480Y+005170
X+007400Y+004650
X+007450Y+004400
X+006400Y+004360
X+006200Y+004100
X+005650Y+004770
X+005600Y+005190
X+005800Y+005460
X+006000Y+005700
X+005050Y+005850
X+001850Y+003850
X+001700Y+003850
X+001550Y+003850
X+001500Y+004100
X+000700Y+003860
T02
X+003550Y+003250
X+004050Y+003250
X+004550Y+003250
T00
M30
