G04 DipTrace Beta 2.3.5.2*
%INMinimOSD_MK2.GTL*%
%MOIN*%
%ADD13C,0.01*%
%ADD14C,0.015*%
%ADD15C,0.006*%
%ADD16C,0.025*%
%ADD17C,0.018*%
%ADD18C,0.02*%
%ADD19C,0.007*%
%ADD24R,0.1181X0.063*%
%ADD25R,0.05X0.025*%
%ADD28R,0.0394X0.0433*%
%ADD29R,0.0433X0.0394*%
%ADD30R,0.0315X0.0315*%
%ADD31R,0.0315X0.0472*%
%ADD32R,0.025X0.05*%
%ADD35R,0.0118X0.0315*%
%ADD36R,0.2756X0.126*%
%ADD38R,0.0531X0.0157*%
%ADD39R,0.0827X0.063*%
%ADD40R,0.0748X0.0906*%
%ADD41R,0.0748X0.0709*%
%ADD42R,0.0276X0.0295*%
%ADD48C,0.045*%
%FSLAX44Y44*%
G04*
G70*
G90*
G75*
G01*
%LNTop*%
%LPD*%
X3930Y2038D2*
D13*
Y1780D1*
X3731Y1581D1*
Y1300D1*
X4697Y2038D2*
Y2823D1*
X4313Y3207D1*
Y3219D1*
X3930Y2038D2*
Y2835D1*
X4313Y3219D1*
X700Y2450D2*
D14*
Y2942D1*
Y3083D1*
Y3450D1*
Y3250D1*
X2250D1*
X3600D1*
X4282D1*
X4313Y3219D1*
X3550Y3250D2*
D15*
X3600D1*
X4313Y3219D2*
X4519D1*
X4550Y3250D1*
X4050D1*
X3550D1*
X2850Y5400D2*
D14*
Y5330D1*
X2590Y5070D1*
X2370D1*
X2250Y4950D1*
Y3250D1*
X700Y3860D2*
Y3450D1*
X3550Y3250D2*
D16*
X3190Y2890D1*
X895D1*
Y2942D1*
X700D1*
X3550Y3250D2*
X3383Y3083D1*
X700D1*
Y3450D2*
X500Y3250D1*
Y2770D1*
X700Y2570D1*
Y2450D1*
X895Y2890D2*
X871Y2621D1*
G02X700Y2450I-171J0D01*
G01*
X3446Y5700D2*
D17*
X3430D1*
X3120Y5390D1*
X2860D1*
X2850Y5400D1*
X4953Y2038D2*
D13*
Y1873D1*
X4780Y1700D1*
X4517D1*
X4340D1*
X4185Y1855D1*
Y2038D1*
X4517Y1700D2*
Y1417D1*
X4400Y1300D1*
X1850Y4100D2*
D14*
X1500D1*
X1850D2*
D15*
Y3850D1*
X1700D1*
X1550D1*
X1800Y1083D2*
Y850D1*
X1950D1*
X1800D2*
X1650D1*
X4400Y1300D2*
D14*
X4260D1*
Y1090D1*
X4020Y850D1*
X2100D1*
X1850Y1100D1*
X1817D1*
X1800Y1083D1*
X1650Y850D2*
D15*
Y933D1*
X1800Y1083D1*
X1950Y850D2*
Y933D1*
X1800Y1083D1*
X1550Y3850D2*
D17*
X1700D1*
X1850D1*
Y4065D1*
D16*
Y4100D1*
X1700Y3850D2*
D17*
Y3950D1*
D16*
X1850Y4100D1*
X1550Y3850D2*
D17*
Y4050D1*
D16*
X1500Y4100D1*
X1850D1*
X1650Y850D2*
D17*
X1800D1*
X1950D1*
Y933D1*
D16*
X1800Y1083D1*
X1850Y3850D2*
D17*
X2000D1*
Y3950D1*
X1850Y4100D1*
X1650Y850D2*
Y933D1*
X1800Y1083D1*
Y850D2*
X2100D1*
X7750Y1081D2*
D13*
X7200D1*
X6650D1*
X7200D2*
D15*
Y1350D1*
X5209Y4400D2*
D13*
X5200Y4409D1*
Y4690D1*
X5360Y4850D1*
Y5340D1*
X5169Y5531D1*
X5044D1*
D15*
X4650Y5000D1*
X3800Y5700D2*
D13*
X3950Y5850D1*
X5050D1*
D15*
X5044Y5844D1*
Y5531D1*
X5800Y6600D2*
Y6700D1*
X7000Y5174D2*
D14*
X7004Y5170D1*
X7480D1*
X7089Y5922D2*
X7305Y6138D1*
X8053D1*
Y5115D2*
Y6138D1*
Y4209D2*
Y5115D1*
Y3185D2*
Y4209D1*
X7089Y3402D2*
X7305Y3185D1*
X8053D1*
X7480Y5170D2*
X7998D1*
G02X8053Y5115I0J-55D01*
G01*
X2930Y1140D2*
D17*
X2770D1*
X3400Y2250D2*
D13*
Y2056D1*
X3418Y2038D1*
X3162Y4400D2*
X3150D1*
Y4600D1*
X5350Y6450D2*
Y6600D1*
X3418Y4400D2*
Y4068D1*
X3930Y4400D2*
Y4160D1*
X4441Y2038D2*
Y2400D1*
X4450D1*
X2850Y6200D2*
D14*
Y5881D1*
X2869Y5900D1*
X7450Y4400D2*
D13*
X7444Y4406D1*
X7000D1*
X4697Y4400D2*
D15*
Y4543D1*
X4580Y4660D1*
X4440D1*
X4350Y4750D1*
Y5300D1*
X4581Y5531D1*
X4650D1*
X7750Y1750D2*
D14*
X7200D1*
X7080D1*
Y2201D1*
X6931Y2350D1*
D13*
Y2631D1*
X7050Y2750D1*
X7000Y4150D2*
X6610D1*
X6510D1*
Y3080D1*
X6624Y2966D1*
X6814D1*
X6931Y2849D1*
Y2350D1*
X6610Y4150D2*
X6400Y4360D1*
X4550Y6650D2*
X4709D1*
X4859Y6500D1*
X5600Y5190D2*
Y5550D1*
X5350Y5800D1*
Y6009D1*
X6000Y5700D2*
X5850Y5850D1*
Y5959D1*
X5800Y6009D1*
X6250D2*
X6259D1*
X6650Y6400D1*
X7000Y4662D2*
X7012Y4650D1*
X7400D1*
X6650Y1750D2*
X6540Y1860D1*
Y2770D1*
X7600Y2350D2*
X7450Y2500D1*
Y2900D1*
X5465Y2038D2*
Y1785D1*
X5600Y1650D1*
Y1100D1*
Y431D2*
D18*
X5100D1*
X4419D1*
X4400Y450D1*
X5209Y2038D2*
D13*
Y1209D1*
X5100Y1100D1*
X5044Y5000D2*
D15*
X4953Y4909D1*
Y4400D1*
X3674Y2038D2*
D13*
Y1824D1*
X3200Y1350D1*
Y1150D1*
X3674Y4400D2*
Y4076D1*
X4185Y4400D2*
D14*
Y4165D1*
X4250Y4100D1*
X6200D1*
X1850Y4462D2*
D18*
X1838Y4450D1*
X700D1*
X1800Y1446D2*
X704D1*
X700Y1450D1*
Y6350D2*
D14*
X1130D1*
X1460Y6680D1*
X2370D1*
X4350Y6450D2*
D13*
X4200D1*
X4150Y6500D1*
X4200Y6450D2*
D15*
X4150Y6500D1*
X5465Y4400D2*
D13*
X5460D1*
Y4580D1*
X5650Y4770D1*
X1850Y5050D2*
D15*
Y4817D1*
Y4900D1*
X2000Y5050D1*
X1650Y2000D2*
X1800D1*
Y1800D1*
X1950Y2000D2*
Y1950D1*
X1800Y1800D1*
X1650Y2000D2*
D17*
X1800D1*
X1950D2*
X1800D1*
X1650D2*
Y1950D1*
D16*
X1800Y1800D1*
X1950Y2000D2*
D17*
Y1950D1*
D16*
X1800Y1800D1*
X1850Y5050D2*
D17*
Y4835D1*
D16*
Y4817D1*
X1700Y5050D2*
D17*
X1850D1*
X2000D1*
Y4967D1*
X1850Y4817D1*
X1700Y5050D2*
Y4967D1*
X1850Y4817D1*
X700Y5450D2*
D18*
Y5400D1*
X2181D1*
Y5881D1*
X2200Y5900D1*
X3731Y450D2*
X700D1*
X6250Y6600D2*
D13*
X6980D1*
X3150Y2350D2*
X3162Y2362D1*
Y2038D1*
D17*
X1500Y4100D3*
D3*
D3*
D3*
D3*
X7200Y1350D3*
X5050Y5850D3*
X5850Y1500D3*
X1390Y5900D3*
D3*
D3*
X5800Y5460D3*
X3400Y2250D3*
X3150Y4600D3*
X5350Y6450D3*
X3418Y4068D3*
X6010Y2340D3*
X3930Y4160D3*
X2850Y6200D3*
X7450Y4400D3*
X7050Y2750D3*
X6400Y4360D3*
X4550Y6650D3*
X5600Y5190D3*
X6000Y5700D3*
X6650Y6400D3*
X7400Y4650D3*
X6540Y2770D3*
X7450Y2900D3*
X2750Y3550D3*
Y3850D3*
X950Y950D3*
D3*
D3*
D3*
X3674Y4076D3*
X6200Y4100D3*
Y230D3*
X330Y930D3*
X2800Y4100D3*
X6200Y230D3*
X330Y930D3*
D3*
D3*
X2370Y6680D3*
X4350Y6450D3*
X2370Y6680D3*
X4350Y6450D3*
X5650Y4770D3*
D3*
D3*
D3*
D3*
X1700Y5050D3*
D3*
D3*
D3*
X2550Y4850D3*
X4450Y2400D3*
X5200D3*
X1850Y5050D3*
X2000D3*
X3150Y2350D3*
X1650Y2000D3*
X1800D3*
X1950D3*
X1550Y3850D3*
X6980Y6600D3*
X1700Y3850D3*
X1850D3*
X1650Y850D3*
X1800D3*
X1950D3*
X3200Y1150D3*
X5400Y1500D3*
D48*
X3550Y3250D3*
X4050D3*
X4550D3*
D17*
X6000Y700D3*
X3020Y6550D3*
Y6370D3*
X5800Y6700D3*
X700Y3860D3*
X6800Y1260D3*
X7610Y1250D3*
X8360Y200D3*
X7870Y190D3*
X8370Y2150D3*
Y2490D3*
X8380Y690D3*
X6470Y180D3*
X7380Y6600D3*
X7480Y5170D3*
X300Y1940D3*
X960Y1950D3*
X2770Y1140D3*
X2930D3*
X2574Y6676D2*
D19*
X3878D1*
X5623D2*
X5978D1*
X7169D2*
X8438D1*
X2561Y6608D2*
X3878D1*
X5623D2*
X5978D1*
X7184D2*
X8438D1*
X2515Y6539D2*
X3878D1*
X5623D2*
X5978D1*
X7175D2*
X8438D1*
X1516Y6470D2*
X3878D1*
X5623D2*
X5978D1*
X7136D2*
X8438D1*
X1447Y6402D2*
X3878D1*
X4548D2*
X4587D1*
X5623D2*
X5978D1*
X6855D2*
X8438D1*
X1405Y6333D2*
X2697D1*
X3003D2*
X3878D1*
X4517D2*
X4587D1*
X5516D2*
X6353D1*
X6843D2*
X8438D1*
X1405Y6264D2*
X2657D1*
X3043D2*
X3878D1*
X4425D2*
X4587D1*
X6801D2*
X8438D1*
X1405Y6195D2*
X1869D1*
X3201D2*
X3878D1*
X4422D2*
X4587D1*
X6676D2*
X8438D1*
X1405Y6127D2*
X1869D1*
X3201D2*
X5078D1*
X6607D2*
X8438D1*
X1516Y6058D2*
X1869D1*
X3201D2*
X5078D1*
X6538D2*
X8438D1*
X1573Y5989D2*
X1869D1*
X3686D2*
X5078D1*
X6522D2*
X8438D1*
X1593Y5921D2*
X1869D1*
X3686D2*
X5078D1*
X6522D2*
X8438D1*
X1589Y5852D2*
X1869D1*
X3686D2*
X5078D1*
X6522D2*
X8438D1*
X1557Y5783D2*
X1848D1*
X3686D2*
X4398D1*
X4903D2*
X5078D1*
X6522D2*
X8438D1*
X1466Y5715D2*
X1848D1*
X3686D2*
X4398D1*
X4903D2*
X5210D1*
X6204D2*
X8438D1*
X1405Y5646D2*
X1848D1*
X3686D2*
X4398D1*
X4903D2*
X5274D1*
X6197D2*
X8438D1*
X3686Y5577D2*
X4398D1*
X4903D2*
X5343D1*
X6162D2*
X8438D1*
X3686Y5509D2*
X4357D1*
X4903D2*
X5412D1*
X6057D2*
X8438D1*
X3686Y5440D2*
X4288D1*
X4903D2*
X5436D1*
X6003D2*
X8438D1*
X3686Y5371D2*
X4225D1*
X4903D2*
X5436D1*
X5983D2*
X8438D1*
X3319Y5303D2*
X4205D1*
X4903D2*
X5430D1*
X5927D2*
X8438D1*
X3248Y5234D2*
X4205D1*
X4495D2*
X4792D1*
X5297D2*
X5401D1*
X5800D2*
X8438D1*
X3182Y5165D2*
X4205D1*
X4495D2*
X4792D1*
X5297D2*
X5396D1*
X5803D2*
X8438D1*
X3182Y5096D2*
X4205D1*
X4495D2*
X4792D1*
X5297D2*
X5419D1*
X5781D2*
X6619D1*
X7380D2*
X8438D1*
X3182Y5028D2*
X4205D1*
X4495D2*
X4792D1*
X5297D2*
X5479D1*
X5720D2*
X6619D1*
X7380D2*
X8438D1*
X3162Y4959D2*
X4205D1*
X4495D2*
X4792D1*
X5297D2*
X5586D1*
X5714D2*
X6619D1*
X7380D2*
X8438D1*
X2750Y4890D2*
X4205D1*
X4495D2*
X4792D1*
X5297D2*
X5486D1*
X5814D2*
X6619D1*
X7380D2*
X8438D1*
X2753Y4822D2*
X4205D1*
X4495D2*
X4792D1*
X5297D2*
X5452D1*
X5848D2*
X6619D1*
X7505D2*
X8438D1*
X2730Y4753D2*
X3017D1*
X3282D2*
X4205D1*
X4688D2*
X4792D1*
X5297D2*
X5403D1*
X5854D2*
X6619D1*
X7576D2*
X8438D1*
X2665Y4684D2*
X2964D1*
X3336D2*
X4222D1*
X4757D2*
X4809D1*
X5098D2*
X5335D1*
X5835D2*
X6619D1*
X7601D2*
X8438D1*
X5127Y4616D2*
X5291D1*
X6151D2*
X6619D1*
X7601D2*
X8438D1*
X5127Y4547D2*
X5291D1*
X6151D2*
X6329D1*
X6471D2*
X6619D1*
X7589D2*
X8438D1*
X5127Y4478D2*
X5291D1*
X6151D2*
X6234D1*
X6565D2*
X6619D1*
X7638D2*
X8438D1*
X5127Y4410D2*
X5291D1*
X6151D2*
X6202D1*
X7655D2*
X8438D1*
X5127Y4341D2*
X5291D1*
X6151D2*
X6196D1*
X7646D2*
X8438D1*
X7608Y4272D2*
X8438D1*
X7380Y4204D2*
X7421D1*
X7479D2*
X8438D1*
X7380Y4135D2*
X8438D1*
X7380Y4066D2*
X8438D1*
X7380Y3997D2*
X8438D1*
X6306Y3929D2*
X6346D1*
X6675D2*
X8438D1*
X5806Y3860D2*
X6346D1*
X6675D2*
X8438D1*
X5806Y3791D2*
X6346D1*
X6675D2*
X8438D1*
X5806Y3723D2*
X6346D1*
X6675D2*
X8438D1*
X5806Y3654D2*
X6346D1*
X6675D2*
X8438D1*
X5806Y3585D2*
X6346D1*
X6675D2*
X8438D1*
X5806Y3517D2*
X6346D1*
X6675D2*
X8438D1*
X5806Y3448D2*
X6346D1*
X6675D2*
X8438D1*
X5806Y3379D2*
X6346D1*
X6675D2*
X8438D1*
X5806Y3311D2*
X6346D1*
X6675D2*
X8438D1*
X5806Y3242D2*
X6346D1*
X6675D2*
X8438D1*
X5806Y3173D2*
X6346D1*
X6675D2*
X8438D1*
X5806Y3105D2*
X6346D1*
X6897D2*
X8438D1*
X5806Y3036D2*
X6351D1*
X6974D2*
X7299D1*
X7600D2*
X8438D1*
X5806Y2967D2*
X6393D1*
X7043D2*
X7257D1*
X7643D2*
X8438D1*
X5806Y2898D2*
X6383D1*
X7188D2*
X7245D1*
X7655D2*
X8438D1*
X5806Y2830D2*
X6345D1*
X7642D2*
X8438D1*
X5806Y2761D2*
X6336D1*
X7614D2*
X8438D1*
X5806Y2692D2*
X6351D1*
X7246D2*
X7285D1*
X7614D2*
X8438D1*
X1405Y2624D2*
X2821D1*
X5806D2*
X6375D1*
X7931D2*
X8438D1*
X1405Y2555D2*
X2821D1*
X5806D2*
X6375D1*
X7931D2*
X8438D1*
X1405Y2486D2*
X2821D1*
X5806D2*
X5870D1*
X6150D2*
X6375D1*
X7931D2*
X8438D1*
X1405Y2418D2*
X2957D1*
X5404D2*
X5821D1*
X6199D2*
X6375D1*
X7931D2*
X8438D1*
X1405Y2349D2*
X2945D1*
X5398D2*
X5805D1*
X6214D2*
X6375D1*
X7931D2*
X8438D1*
X1405Y2280D2*
X2476D1*
X6206D2*
X6375D1*
X7931D2*
X8438D1*
X1405Y2212D2*
X2476D1*
X6167D2*
X6375D1*
X7931D2*
X8438D1*
X1405Y2143D2*
X1507D1*
X2093D2*
X2476D1*
X6151D2*
X6375D1*
X7931D2*
X8438D1*
X1405Y2074D2*
X1446D1*
X2154D2*
X2476D1*
X6151D2*
X6375D1*
X7931D2*
X8438D1*
X162Y2006D2*
X1417D1*
X2183D2*
X2476D1*
X6151D2*
X6338D1*
X8062D2*
X8438D1*
X162Y1937D2*
X1411D1*
X2189D2*
X2476D1*
X6151D2*
X6338D1*
X8062D2*
X8438D1*
X2175Y1868D2*
X2476D1*
X6151D2*
X6338D1*
X8062D2*
X8438D1*
X2165Y1799D2*
X2476D1*
X6151D2*
X6338D1*
X8062D2*
X8438D1*
X2165Y1731D2*
X3351D1*
X5743D2*
X6338D1*
X8062D2*
X8438D1*
X2165Y1662D2*
X3282D1*
X5970D2*
X6338D1*
X8062D2*
X8438D1*
X2165Y1593D2*
X3213D1*
X6032D2*
X6338D1*
X8062D2*
X8438D1*
X2165Y1525D2*
X3144D1*
X6053D2*
X6338D1*
X8062D2*
X8438D1*
X2165Y1456D2*
X3077D1*
X6050D2*
X6338D1*
X8062D2*
X8438D1*
X2165Y1387D2*
X3039D1*
X6020D2*
X8438D1*
X2165Y1319D2*
X3035D1*
X5935D2*
X8438D1*
X2165Y1250D2*
X3023D1*
X5911D2*
X8438D1*
X2165Y1181D2*
X2998D1*
X5911D2*
X8438D1*
X2165Y1113D2*
X2999D1*
X5911D2*
X8438D1*
X2172Y1044D2*
X3026D1*
X5911D2*
X8438D1*
X5911Y975D2*
X8438D1*
X5911Y907D2*
X8438D1*
X6149Y838D2*
X8438D1*
X6192Y769D2*
X8438D1*
X6204Y700D2*
X8438D1*
X6192Y632D2*
X8438D1*
X6150Y563D2*
X8438D1*
X5911Y494D2*
X8438D1*
X5911Y426D2*
X6165D1*
X6235D2*
X8438D1*
X5911Y357D2*
X6042D1*
X6359D2*
X8438D1*
X5911Y288D2*
X6004D1*
X6396D2*
X8438D1*
X5911Y220D2*
X5996D1*
X6405D2*
X8438D1*
X1398Y6360D2*
Y6098D1*
X1437Y6092D1*
X1470Y6081D1*
X1501Y6064D1*
X1528Y6042D1*
X1551Y6015D1*
X1569Y5985D1*
X1581Y5952D1*
X1588Y5900D1*
X1585Y5865D1*
X1576Y5831D1*
X1561Y5800D1*
X1540Y5771D1*
X1515Y5747D1*
X1486Y5727D1*
X1455Y5713D1*
X1421Y5705D1*
X1398Y5703D1*
Y5607D1*
X1540Y5608D1*
X1855D1*
Y5787D1*
X1864Y5822D1*
X1876Y5840D1*
Y6205D1*
X2524D1*
Y5867D1*
X2545D1*
Y6205D1*
X2653D1*
X2657Y6243D1*
X2668Y6277D1*
X2684Y6307D1*
X2705Y6335D1*
X2731Y6358D1*
X2761Y6377D1*
X2794Y6390D1*
X2828Y6397D1*
X2863D1*
X2897Y6392D1*
X2930Y6381D1*
X2961Y6364D1*
X2988Y6342D1*
X3011Y6315D1*
X3029Y6285D1*
X3041Y6252D1*
X3048Y6205D1*
X3194D1*
Y5744D1*
X3213Y5763D1*
Y6058D1*
X3678D1*
Y5342D1*
X3351D1*
X3260Y5250D1*
X3233Y5228D1*
X3213Y5215D1*
X3179Y5201D1*
X3175Y5192D1*
Y5013D1*
X3168Y4979D1*
X3147Y4952D1*
X3115Y4936D1*
X3095Y4933D1*
X2729D1*
X2741Y4902D1*
X2748Y4850D1*
X2745Y4815D1*
X2736Y4781D1*
X2721Y4750D1*
X2700Y4721D1*
X2675Y4697D1*
X2646Y4677D1*
X2623Y4665D1*
X2817Y4664D1*
X2844Y4665D1*
X2963D1*
X2984Y4707D1*
X3005Y4735D1*
X3031Y4758D1*
X3061Y4777D1*
X3094Y4790D1*
X3128Y4797D1*
X3163D1*
X3197Y4792D1*
X3230Y4781D1*
X3261Y4764D1*
X3288Y4742D1*
X3311Y4715D1*
X3329Y4685D1*
X3336Y4665D1*
X3585Y4664D1*
X3612Y4665D1*
X3840Y4664D1*
X3868Y4665D1*
X4096Y4664D1*
X4124Y4665D1*
X4241D1*
X4220Y4703D1*
X4212Y4750D1*
Y5300D1*
X4217Y5335D1*
X4230Y5367D1*
X4253Y5397D1*
X4405Y5550D1*
X4404Y5787D1*
X4896D1*
Y5276D1*
X4520D1*
X4488Y5243D1*
Y4807D1*
X4498Y4797D1*
X4580Y4798D1*
X4615Y4793D1*
X4647Y4780D1*
X4677Y4757D1*
X4769Y4665D1*
X4816D1*
X4815Y4745D1*
X4798D1*
Y5255D1*
X5289D1*
Y4745D1*
X5091D1*
Y4666D1*
X5120Y4665D1*
Y4284D1*
X5299Y4283D1*
X5298Y4665D1*
X5328D1*
X5348Y4692D1*
X5454Y4798D1*
X5468Y4847D1*
X5484Y4877D1*
X5505Y4905D1*
X5531Y4928D1*
X5561Y4947D1*
X5594Y4960D1*
X5628Y4967D1*
X5663D1*
X5697Y4962D1*
X5730Y4951D1*
X5761Y4934D1*
X5788Y4912D1*
X5811Y4885D1*
X5829Y4855D1*
X5841Y4822D1*
X5848Y4770D1*
X5845Y4735D1*
X5836Y4701D1*
X5817Y4665D1*
X5888Y4664D1*
X5915Y4665D1*
X6144D1*
Y4290D1*
X6178Y4297D1*
X6212D1*
X6204Y4334D1*
X6202Y4369D1*
X6207Y4403D1*
X6218Y4437D1*
X6234Y4467D1*
X6255Y4495D1*
X6281Y4518D1*
X6311Y4537D1*
X6344Y4550D1*
X6378Y4557D1*
X6413D1*
X6447Y4552D1*
X6480Y4541D1*
X6511Y4524D1*
X6538Y4502D1*
X6561Y4475D1*
X6579Y4445D1*
X6591Y4412D1*
X6595Y4387D1*
X6627Y4356D1*
X6626Y4592D1*
Y4848D1*
Y5104D1*
X7374D1*
Y4845D1*
X7413Y4847D1*
X7447Y4842D1*
X7480Y4831D1*
X7511Y4814D1*
X7538Y4792D1*
X7561Y4765D1*
X7579Y4735D1*
X7591Y4702D1*
X7598Y4650D1*
X7595Y4615D1*
X7586Y4581D1*
X7573Y4555D1*
X7588Y4542D1*
X7611Y4515D1*
X7629Y4485D1*
X7641Y4452D1*
X7648Y4400D1*
X7645Y4365D1*
X7636Y4331D1*
X7621Y4300D1*
X7600Y4271D1*
X7575Y4247D1*
X7546Y4227D1*
X7515Y4213D1*
X7481Y4205D1*
X7446Y4202D1*
X7411Y4206D1*
X7373Y4218D1*
X7374Y4022D1*
Y3963D1*
X6668D1*
Y3145D1*
X6689Y3124D1*
X6814D1*
X6849Y3120D1*
X6882Y3109D1*
X6921Y3082D1*
X7052Y2950D1*
X7097Y2942D1*
X7130Y2931D1*
X7161Y2914D1*
X7188Y2892D1*
X7211Y2865D1*
X7229Y2835D1*
X7241Y2802D1*
X7248Y2750D1*
X7245Y2715D1*
X7236Y2681D1*
X7223Y2655D1*
X7255D1*
X7256Y2249D1*
X7263Y2201D1*
Y2075D1*
X7276Y2080D1*
Y2655D1*
X7292D1*
Y2781D1*
X7275Y2807D1*
X7262Y2840D1*
X7254Y2874D1*
X7252Y2909D1*
X7257Y2943D1*
X7268Y2977D1*
X7284Y3007D1*
X7305Y3035D1*
X7331Y3058D1*
X7361Y3077D1*
X7394Y3090D1*
X7428Y3097D1*
X7463D1*
X7497Y3092D1*
X7530Y3081D1*
X7561Y3064D1*
X7588Y3042D1*
X7611Y3015D1*
X7629Y2985D1*
X7641Y2952D1*
X7648Y2900D1*
X7645Y2865D1*
X7636Y2831D1*
X7621Y2800D1*
X7607Y2781D1*
X7608Y2654D1*
X7924Y2655D1*
Y2074D1*
X8055D1*
Y1426D1*
X7445Y1427D1*
X7330Y1426D1*
X6895Y1427D1*
X6780Y1426D1*
X6345D1*
Y2074D1*
X6381D1*
X6382Y2525D1*
Y2651D1*
X6365Y2677D1*
X6352Y2710D1*
X6344Y2744D1*
X6342Y2779D1*
X6347Y2813D1*
X6358Y2847D1*
X6374Y2877D1*
X6395Y2905D1*
X6432Y2935D1*
X6398Y2968D1*
X6377Y2996D1*
X6361Y3027D1*
X6352Y3074D1*
Y3974D1*
X6325Y3947D1*
X6296Y3927D1*
X6265Y3913D1*
X6231Y3905D1*
X6196Y3902D1*
X6161Y3906D1*
X6125Y3917D1*
X5799D1*
Y2732D1*
Y2481D1*
X5380D1*
X5391Y2452D1*
X5398Y2400D1*
X5395Y2365D1*
X5386Y2331D1*
X5372Y2303D1*
X5376Y2302D1*
X5578Y2303D1*
X5632Y2302D1*
X5659Y2303D1*
X5815D1*
X5812Y2349D1*
X5817Y2383D1*
X5828Y2417D1*
X5844Y2447D1*
X5865Y2475D1*
X5891Y2498D1*
X5921Y2517D1*
X5954Y2530D1*
X5988Y2537D1*
X6023D1*
X6057Y2532D1*
X6090Y2521D1*
X6121Y2504D1*
X6148Y2482D1*
X6171Y2455D1*
X6189Y2425D1*
X6201Y2392D1*
X6208Y2340D1*
X6205Y2305D1*
X6196Y2271D1*
X6181Y2240D1*
X6160Y2211D1*
X6144Y2195D1*
Y1773D1*
X5810Y1774D1*
X5783Y1773D1*
X5701D1*
X5733Y1734D1*
X5753Y1690D1*
X5761Y1677D1*
X5794Y1690D1*
X5828Y1697D1*
X5863D1*
X5897Y1692D1*
X5930Y1681D1*
X5961Y1664D1*
X5988Y1642D1*
X6011Y1615D1*
X6029Y1585D1*
X6041Y1552D1*
X6048Y1500D1*
X6045Y1465D1*
X6036Y1431D1*
X6021Y1400D1*
X6000Y1371D1*
X5975Y1347D1*
X5946Y1327D1*
X5905Y1311D1*
Y874D1*
X5944Y890D1*
X5978Y897D1*
X6013D1*
X6047Y892D1*
X6080Y881D1*
X6111Y864D1*
X6138Y842D1*
X6161Y815D1*
X6179Y785D1*
X6191Y752D1*
X6198Y700D1*
X6195Y665D1*
X6186Y631D1*
X6171Y600D1*
X6150Y571D1*
X6125Y547D1*
X6096Y527D1*
X6065Y513D1*
X6031Y505D1*
X5996Y502D1*
X5961Y506D1*
X5927Y516D1*
X5905Y527D1*
Y155D1*
X6016D1*
X6004Y204D1*
X6002Y239D1*
X6007Y273D1*
X6018Y307D1*
X6034Y337D1*
X6055Y365D1*
X6081Y388D1*
X6111Y407D1*
X6144Y420D1*
X6178Y427D1*
X6213D1*
X6247Y422D1*
X6280Y411D1*
X6311Y394D1*
X6338Y372D1*
X6361Y345D1*
X6379Y315D1*
X6391Y282D1*
X6398Y230D1*
X6395Y195D1*
X6382Y155D1*
X7365D1*
X8445D1*
Y6745D1*
X7114D1*
X7141Y6715D1*
X7159Y6685D1*
X7171Y6652D1*
X7178Y6600D1*
X7175Y6565D1*
X7166Y6531D1*
X7151Y6500D1*
X7130Y6471D1*
X7105Y6447D1*
X7076Y6427D1*
X7045Y6413D1*
X7011Y6405D1*
X6976Y6402D1*
X6941Y6406D1*
X6907Y6416D1*
X6876Y6432D1*
X6861Y6443D1*
X6847Y6418D1*
X6845Y6365D1*
X6836Y6331D1*
X6821Y6300D1*
X6800Y6271D1*
X6775Y6247D1*
X6746Y6227D1*
X6715Y6213D1*
X6677Y6204D1*
X6515Y6042D1*
Y5744D1*
X6193D1*
X6198Y5700D1*
X6195Y5665D1*
X6186Y5631D1*
X6171Y5600D1*
X6150Y5571D1*
X6125Y5547D1*
X6096Y5527D1*
X6065Y5513D1*
X6031Y5505D1*
X5992Y5503D1*
X5998Y5460D1*
X5995Y5425D1*
X5986Y5391D1*
X5971Y5360D1*
X5950Y5331D1*
X5925Y5307D1*
X5896Y5287D1*
X5865Y5273D1*
X5831Y5265D1*
X5784Y5264D1*
X5791Y5242D1*
X5798Y5190D1*
X5795Y5155D1*
X5786Y5121D1*
X5771Y5090D1*
X5750Y5061D1*
X5725Y5037D1*
X5696Y5017D1*
X5665Y5003D1*
X5631Y4995D1*
X5596Y4992D1*
X5561Y4996D1*
X5527Y5006D1*
X5496Y5022D1*
X5468Y5043D1*
X5444Y5068D1*
X5425Y5097D1*
X5412Y5130D1*
X5404Y5164D1*
X5402Y5199D1*
X5407Y5233D1*
X5418Y5267D1*
X5434Y5297D1*
X5443Y5309D1*
X5442Y5484D1*
X5238Y5688D1*
X5210Y5727D1*
X5195Y5744D1*
X5085D1*
Y6157D1*
X4593Y6156D1*
Y6457D1*
X4547Y6452D1*
X4545Y6415D1*
X4536Y6381D1*
X4521Y6350D1*
X4500Y6321D1*
X4475Y6297D1*
X4446Y6277D1*
X4415Y6263D1*
Y6156D1*
X3885D1*
Y6746D1*
X2600Y6745D1*
X2557D1*
X2567Y6698D1*
X2565Y6645D1*
X2556Y6611D1*
X2541Y6580D1*
X2520Y6551D1*
X2495Y6527D1*
X2466Y6507D1*
X2435Y6493D1*
X2401Y6485D1*
X2366Y6482D1*
X2331Y6486D1*
X2295Y6497D1*
X1535D1*
X1398Y6360D1*
X2158Y1846D2*
X2157Y1567D1*
X2158Y1538D1*
X2157Y1213D1*
X2158Y1141D1*
Y1050D1*
X2205Y1033D1*
X3042D1*
X3025Y1057D1*
X3012Y1090D1*
X3004Y1124D1*
X3002Y1159D1*
X3007Y1193D1*
X3018Y1227D1*
X3034Y1257D1*
X3043Y1269D1*
X3042Y1350D1*
X3046Y1385D1*
X3057Y1418D1*
X3084Y1457D1*
X3400Y1773D1*
X3251D1*
X2995D1*
X2739D1*
X2483D1*
Y2303D1*
X2817Y2302D1*
X2844Y2303D1*
X2959D1*
X2954Y2324D1*
X2952Y2359D1*
X2957Y2393D1*
X2968Y2427D1*
X2984Y2457D1*
X3002Y2481D1*
X2828D1*
Y2657D1*
X1397D1*
X1398Y2418D1*
Y2027D1*
X155D1*
Y1872D1*
X1398Y1873D1*
Y1653D1*
X1443D1*
Y1678D1*
X1442Y1707D1*
Y1846D1*
X1430Y1874D1*
X1421Y1907D1*
X1417Y1942D1*
X1419Y1977D1*
X1425Y2011D1*
X1437Y2044D1*
X1454Y2075D1*
X1475Y2103D1*
X1528Y2156D1*
X1557Y2175D1*
X1590Y2188D1*
X1624Y2196D1*
X1720Y2198D1*
X1950D1*
X1985Y2195D1*
X2019Y2186D1*
X2050Y2171D1*
X2079Y2150D1*
X2128Y2100D1*
X2148Y2072D1*
X2164Y2041D1*
X2175Y2008D1*
X2182Y1973D1*
X2183Y1939D1*
X2178Y1904D1*
X2169Y1870D1*
X2157Y1845D1*
X6361Y6335D2*
X5985D1*
Y6745D1*
X5615D1*
Y6335D1*
X5511D1*
X5475Y6297D1*
X5439Y6274D1*
X5615Y6275D1*
X6065D1*
X6301D1*
X6362Y6335D1*
X1397Y6097D2*
X1437Y6092D1*
X1470Y6081D1*
X1501Y6064D1*
X1528Y6042D1*
X1551Y6015D1*
X1569Y5985D1*
X1581Y5952D1*
X1588Y5900D1*
X1585Y5865D1*
X1576Y5831D1*
X1561Y5800D1*
X1540Y5771D1*
X1515Y5747D1*
X1486Y5727D1*
X1455Y5713D1*
X1421Y5705D1*
X1398Y5703D1*
X1397Y6097D2*
X1437Y6092D1*
X1470Y6081D1*
X1501Y6064D1*
X1528Y6042D1*
X1551Y6015D1*
X1569Y5985D1*
X1581Y5952D1*
X1588Y5900D1*
X1585Y5865D1*
X1576Y5831D1*
X1561Y5800D1*
X1540Y5771D1*
X1515Y5747D1*
X1486Y5727D1*
X1455Y5713D1*
X1421Y5705D1*
X1398Y5703D1*
X6018Y154D2*
X6012Y170D1*
X6004Y204D1*
X6002Y239D1*
X6007Y273D1*
X6018Y307D1*
X6034Y337D1*
X6055Y365D1*
X6081Y388D1*
X6111Y407D1*
X6144Y420D1*
X6178Y427D1*
X6213D1*
X6247Y422D1*
X6280Y411D1*
X6311Y394D1*
X6338Y372D1*
X6361Y345D1*
X6379Y315D1*
X6391Y282D1*
X6398Y230D1*
X6395Y195D1*
X6382Y155D1*
X2556Y6745D2*
X2561Y6732D1*
X2568Y6680D1*
X2565Y6645D1*
X2556Y6611D1*
X2541Y6580D1*
X2520Y6551D1*
X2495Y6527D1*
X2466Y6507D1*
X2435Y6493D1*
X2401Y6485D1*
X2366Y6482D1*
X2331Y6486D1*
X2295Y6497D1*
X5455Y4797D2*
X5457Y4813D1*
X5468Y4847D1*
X5484Y4877D1*
X5505Y4905D1*
X5531Y4928D1*
X5561Y4947D1*
X5594Y4960D1*
X5628Y4967D1*
X5663D1*
X5697Y4962D1*
X5730Y4951D1*
X5761Y4934D1*
X5788Y4912D1*
X5811Y4885D1*
X5829Y4855D1*
X5841Y4822D1*
X5848Y4770D1*
X5845Y4735D1*
X5836Y4701D1*
X5818Y4665D1*
X5880D1*
X5455Y4797D2*
X5457Y4813D1*
X5468Y4847D1*
X5484Y4877D1*
X5505Y4905D1*
X5531Y4928D1*
X5561Y4947D1*
X5594Y4960D1*
X5628Y4967D1*
X5663D1*
X5697Y4962D1*
X5730Y4951D1*
X5761Y4934D1*
X5788Y4912D1*
X5811Y4885D1*
X5829Y4855D1*
X5841Y4822D1*
X5848Y4770D1*
X5845Y4735D1*
X5836Y4701D1*
X5817Y4665D1*
X5455Y4797D2*
X5457Y4813D1*
X5468Y4847D1*
X5484Y4877D1*
X5505Y4905D1*
X5531Y4928D1*
X5561Y4947D1*
X5594Y4960D1*
X5628Y4967D1*
X5663D1*
X5697Y4962D1*
X5730Y4951D1*
X5761Y4934D1*
X5788Y4912D1*
X5811Y4885D1*
X5829Y4855D1*
X5841Y4822D1*
X5848Y4770D1*
X5845Y4735D1*
X5836Y4701D1*
X5817Y4665D1*
X5455Y4797D2*
X5457Y4813D1*
X5468Y4847D1*
X5484Y4877D1*
X5505Y4905D1*
X5531Y4928D1*
X5561Y4947D1*
X5594Y4960D1*
X5628Y4967D1*
X5663D1*
X5697Y4962D1*
X5730Y4951D1*
X5761Y4934D1*
X5788Y4912D1*
X5811Y4885D1*
X5829Y4855D1*
X5841Y4822D1*
X5848Y4770D1*
X5845Y4735D1*
X5836Y4701D1*
X5817Y4665D1*
D24*
X700Y6350D3*
D25*
X1800Y1800D3*
Y1446D3*
Y1083D3*
X1850Y4817D3*
Y4462D3*
Y4100D3*
D24*
X700Y2450D3*
Y1450D3*
Y450D3*
Y3450D3*
Y4450D3*
Y5450D3*
D29*
X2200Y5900D3*
X2869D3*
X4400Y1300D3*
X3731D3*
D28*
X5600Y1100D3*
Y431D3*
X5100Y1100D3*
Y431D3*
X6650Y1750D3*
Y1081D3*
X7750Y1750D3*
Y1081D3*
X7200Y1750D3*
Y1081D3*
D30*
X6250Y6600D3*
Y6009D3*
X5350Y6600D3*
Y6009D3*
X5800Y6600D3*
Y6009D3*
D31*
X4150Y6500D3*
X4859D3*
D32*
X3800Y5700D3*
X3446D3*
D35*
X2650Y4400D3*
X2906D3*
X3162D3*
X3418D3*
X3674D3*
X3930D3*
X4185D3*
X4441D3*
X4697D3*
X4953D3*
X5209D3*
X5465D3*
X5721D3*
X5977D3*
Y2038D3*
X5721D3*
X5465D3*
X5209D3*
X4953D3*
X4697D3*
X4441D3*
X4185D3*
X3930D3*
X3674D3*
X3418D3*
X3162D3*
X2906D3*
X2650D3*
D36*
X4313Y3219D3*
D38*
X7000Y4150D3*
Y4406D3*
Y4662D3*
Y4918D3*
Y5174D3*
D39*
X7089Y3402D3*
Y5922D3*
D40*
X8053Y3185D3*
Y6138D3*
D41*
Y4209D3*
Y5115D3*
D42*
X4650Y5000D3*
Y5531D3*
X5044D3*
Y5000D3*
D29*
X2850Y5400D3*
X2181D3*
X4400Y450D3*
X3731D3*
X7600Y2350D3*
X6931D3*
M02*
