G04 DipTrace Beta 2.3.5.2*
%INMinimOSD_MK2.G2L*%
%MOIN*%
%ADD13C,0.01*%
%ADD14C,0.015*%
%ADD17C,0.018*%
%ADD19C,0.007*%
%ADD48C,0.045*%
%FSLAX44Y44*%
G04*
G70*
G90*
G75*
G01*
%LNInner1*%
%LPD*%
X1550Y3850D2*
D17*
X1700D1*
X1850D1*
X1650Y850D2*
X1800D1*
X1950D1*
X2930Y1140D2*
X2770D1*
X300Y1940D2*
X950D1*
G03X960Y1950I0J10D01*
G01*
X970D2*
X1650Y1270D1*
X2640D1*
X2770Y1140D1*
X3930Y4160D2*
D13*
X5370D1*
X5680Y3850D1*
Y2880D1*
X5200Y2400D1*
X4450D2*
D14*
X4100D1*
X3950Y2550D1*
X3480D1*
X3190Y2840D1*
Y4180D1*
X2800Y4570D1*
Y6150D1*
X2850Y6200D1*
X6400Y4360D2*
D13*
Y5760D1*
X5510Y6650D1*
X4550D1*
X2750Y3850D2*
X2550Y3650D1*
Y2210D1*
X4060Y700D1*
X6000D1*
X2950D1*
X2690Y440D1*
X1460D1*
X950Y950D1*
X3674Y4076D2*
X3830Y3920D1*
X5330D1*
X5450Y3800D1*
Y2990D1*
X5000Y2540D1*
Y2100D1*
X5400Y1700D1*
Y1500D1*
X6200Y230D2*
X1030D1*
X330Y930D1*
X2800Y4100D2*
X2950Y3950D1*
Y3450D1*
X2750Y3250D1*
Y2380D1*
X4230Y900D1*
X6140D1*
X6250Y790D1*
Y230D1*
X6200D1*
D17*
X1500Y4100D3*
D3*
D3*
D3*
D3*
X7200Y1350D3*
X5050Y5850D3*
X5850Y1500D3*
X1390Y5900D3*
D3*
D3*
X5800Y5460D3*
X3400Y2250D3*
X3150Y4600D3*
X5350Y6450D3*
X3418Y4068D3*
X6010Y2340D3*
X3930Y4160D3*
X2850Y6200D3*
X7450Y4400D3*
X7050Y2750D3*
X6400Y4360D3*
X4550Y6650D3*
X5600Y5190D3*
X6000Y5700D3*
X6650Y6400D3*
X7400Y4650D3*
X6540Y2770D3*
X7450Y2900D3*
X2750Y3550D3*
Y3850D3*
X950Y950D3*
D3*
D3*
D3*
X3674Y4076D3*
X6200Y4100D3*
Y230D3*
X330Y930D3*
X2800Y4100D3*
X6200Y230D3*
X330Y930D3*
D3*
D3*
X2370Y6680D3*
X4350Y6450D3*
X2370Y6680D3*
X4350Y6450D3*
X5650Y4770D3*
D3*
D3*
D3*
D3*
X1700Y5050D3*
D3*
D3*
D3*
X2550Y4850D3*
X4450Y2400D3*
X5200D3*
X1850Y5050D3*
X2000D3*
X3150Y2350D3*
X1650Y2000D3*
X1800D3*
X1950D3*
X1550Y3850D3*
X6980Y6600D3*
X1700Y3850D3*
X1850D3*
X1650Y850D3*
X1800D3*
X1950D3*
X3200Y1150D3*
X5400Y1500D3*
D48*
X3550Y3250D3*
X4050D3*
X4550D3*
D17*
X6000Y700D3*
X3020Y6550D3*
Y6370D3*
X5800Y6700D3*
X700Y3860D3*
X6800Y1260D3*
X7610Y1250D3*
X8360Y200D3*
X7870Y190D3*
X8370Y2150D3*
Y2490D3*
X8380Y690D3*
X6470Y180D3*
X7380Y6600D3*
X7480Y5170D3*
X300Y1940D3*
X960Y1950D3*
X2770Y1140D3*
X2930D3*
X142Y6646D2*
D19*
X2158D1*
X142Y6578D2*
X2158D1*
X142Y6509D2*
X2158D1*
X142Y6440D2*
X2158D1*
X142Y6372D2*
X2158D1*
X142Y6303D2*
X2158D1*
X142Y6234D2*
X2158D1*
X142Y6165D2*
X2158D1*
X142Y6097D2*
X1364D1*
X1416D2*
X2158D1*
X142Y6028D2*
X1232D1*
X1548D2*
X2158D1*
X142Y5959D2*
X1195D1*
X1585D2*
X2158D1*
X142Y5891D2*
X1185D1*
X1594D2*
X2158D1*
X142Y5822D2*
X1202D1*
X1579D2*
X2158D1*
X142Y5753D2*
X1251D1*
X1529D2*
X2158D1*
X142Y5685D2*
X2158D1*
X142Y5616D2*
X2158D1*
X142Y5547D2*
X2158D1*
X142Y5479D2*
X2158D1*
X142Y5410D2*
X2158D1*
X142Y5341D2*
X2158D1*
X142Y5273D2*
X2158D1*
X142Y5204D2*
X2158D1*
X142Y5135D2*
X2158D1*
X142Y5066D2*
X2158D1*
X142Y4998D2*
X2158D1*
X142Y4929D2*
X2158D1*
X142Y4860D2*
X2158D1*
X142Y4792D2*
X2158D1*
X142Y4723D2*
X2158D1*
X142Y4654D2*
X2158D1*
X142Y4586D2*
X2158D1*
X142Y4517D2*
X2158D1*
X142Y4448D2*
X2158D1*
X142Y4380D2*
X2158D1*
X142Y4311D2*
X2158D1*
X142Y4242D2*
X1356D1*
X1644D2*
X2158D1*
X142Y4174D2*
X1310D1*
X1690D2*
X2158D1*
X142Y4105D2*
X1296D1*
X1704D2*
X2158D1*
X142Y4036D2*
X603D1*
X797D2*
X1305D1*
X1923D2*
X2158D1*
X142Y3967D2*
X527D1*
X873D2*
X1346D1*
X2016D2*
X2158D1*
X142Y3899D2*
X499D1*
X901D2*
X1351D1*
X2049D2*
X2158D1*
X142Y3830D2*
X497D1*
X903D2*
X1346D1*
X2053D2*
X2158D1*
X142Y3761D2*
X521D1*
X879D2*
X1367D1*
X2034D2*
X2158D1*
X142Y3693D2*
X588D1*
X812D2*
X1424D1*
X1977D2*
X2158D1*
X142Y3624D2*
X2158D1*
X142Y3555D2*
X2158D1*
X142Y3487D2*
X2158D1*
X142Y3418D2*
X2158D1*
X142Y3349D2*
X2158D1*
X142Y3281D2*
X2158D1*
X142Y3212D2*
X2158D1*
X142Y3143D2*
X2158D1*
X142Y3075D2*
X2158D1*
X142Y3006D2*
X2158D1*
X142Y2937D2*
X2158D1*
X142Y2868D2*
X2158D1*
X142Y2800D2*
X2158D1*
X142Y2731D2*
X2158D1*
X142Y2662D2*
X2158D1*
X142Y2594D2*
X2158D1*
X142Y2525D2*
X2158D1*
X142Y2456D2*
X2158D1*
X142Y2388D2*
X2158D1*
X142Y2319D2*
X2158D1*
X142Y2250D2*
X2158D1*
X142Y2182D2*
X2158D1*
X142Y2113D2*
X197D1*
X1089D2*
X2158D1*
X1162Y2044D2*
X2158D1*
X1231Y1976D2*
X2158D1*
X1300Y1907D2*
X2158D1*
X1369Y1838D2*
X2158D1*
X142Y1769D2*
X193D1*
X1438D2*
X2158D1*
X142Y1701D2*
X932D1*
X1505D2*
X2158D1*
X142Y1632D2*
X1001D1*
X1574D2*
X2158D1*
X142Y1563D2*
X1070D1*
X1643D2*
X2158D1*
X142Y1495D2*
X1139D1*
X1712D2*
X2158D1*
X142Y1426D2*
X1207D1*
X142Y1357D2*
X1276D1*
X142Y1289D2*
X1345D1*
X142Y1220D2*
X1414D1*
X142Y1151D2*
X1483D1*
X142Y1083D2*
X197D1*
X463D2*
X797D1*
X1104D2*
X1580D1*
X516Y1014D2*
X756D1*
X1144D2*
X1533D1*
X2068D2*
X2158D1*
X545Y945D2*
X745D1*
X1185D2*
X1469D1*
X2130D2*
X2158D1*
X614Y877D2*
X760D1*
X1254D2*
X1448D1*
X142Y808D2*
X168D1*
X682D2*
X806D1*
X1322D2*
X1450D1*
X142Y739D2*
X272D1*
X751D2*
X931D1*
X1391D2*
X1479D1*
X2121D2*
X2158D1*
X142Y670D2*
X359D1*
X820D2*
X999D1*
X1459D2*
X1560D1*
X2040D2*
X2158D1*
X142Y602D2*
X428D1*
X888D2*
X1068D1*
X1528D2*
X2158D1*
X895Y3825D2*
X886Y3791D1*
X871Y3760D1*
X850Y3731D1*
X825Y3707D1*
X796Y3687D1*
X765Y3673D1*
X731Y3665D1*
X696Y3662D1*
X661Y3666D1*
X627Y3676D1*
X596Y3692D1*
X568Y3713D1*
X544Y3738D1*
X525Y3767D1*
X512Y3800D1*
X504Y3834D1*
X502Y3869D1*
X507Y3903D1*
X518Y3937D1*
X534Y3967D1*
X555Y3995D1*
X581Y4018D1*
X611Y4037D1*
X644Y4050D1*
X678Y4057D1*
X713D1*
X747Y4052D1*
X780Y4041D1*
X811Y4024D1*
X838Y4002D1*
X861Y3975D1*
X879Y3945D1*
X891Y3912D1*
X898Y3860D1*
X895Y3825D1*
X1378Y3945D2*
X1344Y3978D1*
X1325Y4007D1*
X1312Y4040D1*
X1304Y4074D1*
X1302Y4109D1*
X1307Y4143D1*
X1318Y4177D1*
X1334Y4207D1*
X1355Y4235D1*
X1381Y4258D1*
X1411Y4277D1*
X1444Y4290D1*
X1478Y4297D1*
X1513D1*
X1547Y4292D1*
X1580Y4281D1*
X1611Y4264D1*
X1638Y4242D1*
X1661Y4215D1*
X1679Y4185D1*
X1691Y4152D1*
X1698Y4100D1*
X1695Y4065D1*
X1690Y4047D1*
X1850Y4048D1*
X1885Y4045D1*
X1919Y4036D1*
X1950Y4021D1*
X1979Y4000D1*
X2003Y3975D1*
X2023Y3946D1*
X2037Y3915D1*
X2045Y3881D1*
X2048Y3846D1*
X2044Y3811D1*
X2034Y3777D1*
X2018Y3746D1*
X1997Y3718D1*
X1972Y3694D1*
X1943Y3675D1*
X1910Y3662D1*
X1876Y3654D1*
X1780Y3652D1*
X1550D1*
X1515Y3655D1*
X1481Y3664D1*
X1450Y3679D1*
X1421Y3700D1*
X1397Y3725D1*
X1377Y3754D1*
X1363Y3785D1*
X1355Y3819D1*
X1352Y3854D1*
X1356Y3889D1*
X1368Y3928D1*
Y3953D1*
X1344Y3978D1*
X1325Y4007D1*
X1312Y4040D1*
X1304Y4074D1*
X1302Y4109D1*
X1307Y4143D1*
X1318Y4177D1*
X1334Y4207D1*
X1355Y4235D1*
X1381Y4258D1*
X1411Y4277D1*
X1444Y4290D1*
X1478Y4297D1*
X1513D1*
X1547Y4292D1*
X1580Y4281D1*
X1611Y4264D1*
X1638Y4242D1*
X1661Y4215D1*
X1679Y4185D1*
X1691Y4152D1*
X1698Y4100D1*
X1695Y4065D1*
X1690Y4047D1*
X1378Y3945D2*
X1344Y3978D1*
X1325Y4007D1*
X1312Y4040D1*
X1304Y4074D1*
X1302Y4109D1*
X1307Y4143D1*
X1318Y4177D1*
X1334Y4207D1*
X1355Y4235D1*
X1381Y4258D1*
X1411Y4277D1*
X1444Y4290D1*
X1478Y4297D1*
X1513D1*
X1547Y4292D1*
X1580Y4281D1*
X1611Y4264D1*
X1638Y4242D1*
X1661Y4215D1*
X1679Y4185D1*
X1691Y4152D1*
X1698Y4100D1*
X1695Y4065D1*
X1690Y4047D1*
X1378Y3945D2*
X1344Y3978D1*
X1325Y4007D1*
X1312Y4040D1*
X1304Y4074D1*
X1302Y4109D1*
X1307Y4143D1*
X1318Y4177D1*
X1334Y4207D1*
X1355Y4235D1*
X1381Y4258D1*
X1411Y4277D1*
X1444Y4290D1*
X1478Y4297D1*
X1513D1*
X1547Y4292D1*
X1580Y4281D1*
X1611Y4264D1*
X1638Y4242D1*
X1661Y4215D1*
X1679Y4185D1*
X1691Y4152D1*
X1698Y4100D1*
X1695Y4065D1*
X1690Y4047D1*
X1378Y3945D2*
X1344Y3978D1*
X1325Y4007D1*
X1312Y4040D1*
X1304Y4074D1*
X1302Y4109D1*
X1307Y4143D1*
X1318Y4177D1*
X1334Y4207D1*
X1355Y4235D1*
X1381Y4258D1*
X1411Y4277D1*
X1444Y4290D1*
X1478Y4297D1*
X1513D1*
X1547Y4292D1*
X1580Y4281D1*
X1611Y4264D1*
X1638Y4242D1*
X1661Y4215D1*
X1679Y4185D1*
X1691Y4152D1*
X1698Y4100D1*
X1695Y4065D1*
X1690Y4047D1*
X1685Y1048D2*
X1950D1*
X1985Y1045D1*
X2019Y1036D1*
X2050Y1021D1*
X2079Y1000D1*
X2103Y975D1*
X2123Y946D1*
X2137Y915D1*
X2145Y881D1*
X2148Y846D1*
X2144Y811D1*
X2134Y777D1*
X2118Y746D1*
X2097Y718D1*
X2072Y694D1*
X2043Y675D1*
X2010Y662D1*
X1976Y654D1*
X1880Y652D1*
X1650D1*
X1615Y655D1*
X1581Y664D1*
X1550Y679D1*
X1521Y700D1*
X1497Y725D1*
X1477Y754D1*
X1463Y785D1*
X1455Y819D1*
X1452Y854D1*
X1456Y889D1*
X1466Y923D1*
X1482Y954D1*
X1503Y982D1*
X1528Y1006D1*
X1557Y1025D1*
X1590Y1038D1*
X1624Y1046D1*
X1685Y1048D1*
X335Y2138D2*
X900D1*
X939Y2147D1*
X983D1*
X1023Y2141D1*
X1060Y2126D1*
X1093Y2105D1*
X1110Y2090D1*
X1732Y1467D1*
X2165Y1468D1*
Y6715D1*
X135D1*
Y2048D1*
X153Y2072D1*
X178Y2096D1*
X207Y2115D1*
X240Y2128D1*
X274Y2136D1*
X335Y2138D1*
X899Y1742D2*
X300D1*
X265Y1745D1*
X231Y1754D1*
X200Y1769D1*
X171Y1790D1*
X144Y1819D1*
X135Y1815D1*
Y963D1*
X148Y1007D1*
X164Y1037D1*
X185Y1065D1*
X211Y1088D1*
X241Y1107D1*
X274Y1120D1*
X308Y1127D1*
X343D1*
X377Y1122D1*
X410Y1111D1*
X441Y1094D1*
X468Y1072D1*
X491Y1045D1*
X509Y1015D1*
X521Y982D1*
X525Y957D1*
X899Y585D1*
X1092D1*
X922Y755D1*
X877Y766D1*
X846Y782D1*
X818Y803D1*
X794Y828D1*
X775Y857D1*
X762Y890D1*
X754Y924D1*
X752Y959D1*
X757Y993D1*
X768Y1027D1*
X784Y1057D1*
X805Y1085D1*
X831Y1108D1*
X861Y1127D1*
X894Y1140D1*
X928Y1147D1*
X963D1*
X997Y1142D1*
X1030Y1131D1*
X1061Y1114D1*
X1088Y1092D1*
X1111Y1065D1*
X1129Y1035D1*
X1141Y1002D1*
X1145Y977D1*
X1525Y598D1*
X2165D1*
Y1072D1*
X1650D1*
X1615Y1075D1*
X1581Y1084D1*
X1550Y1099D1*
X1530Y1113D1*
X1461Y1180D1*
X898Y1742D1*
X1585Y5865D2*
X1576Y5831D1*
X1561Y5800D1*
X1540Y5771D1*
X1515Y5747D1*
X1486Y5727D1*
X1455Y5713D1*
X1421Y5705D1*
X1386Y5702D1*
X1351Y5706D1*
X1317Y5716D1*
X1286Y5732D1*
X1258Y5753D1*
X1234Y5778D1*
X1215Y5807D1*
X1202Y5840D1*
X1194Y5874D1*
X1192Y5909D1*
X1197Y5943D1*
X1208Y5977D1*
X1224Y6007D1*
X1245Y6035D1*
X1271Y6058D1*
X1301Y6077D1*
X1334Y6090D1*
X1368Y6097D1*
X1403D1*
X1437Y6092D1*
X1470Y6081D1*
X1501Y6064D1*
X1528Y6042D1*
X1551Y6015D1*
X1569Y5985D1*
X1581Y5952D1*
X1588Y5900D1*
X1585Y5865D1*
X1576Y5831D1*
X1561Y5800D1*
X1540Y5771D1*
X1515Y5747D1*
X1486Y5727D1*
X1455Y5713D1*
X1421Y5705D1*
X1386Y5702D1*
X1351Y5706D1*
X1317Y5716D1*
X1286Y5732D1*
X1258Y5753D1*
X1234Y5778D1*
X1215Y5807D1*
X1202Y5840D1*
X1194Y5874D1*
X1192Y5909D1*
X1197Y5943D1*
X1208Y5977D1*
X1224Y6007D1*
X1245Y6035D1*
X1271Y6058D1*
X1301Y6077D1*
X1334Y6090D1*
X1368Y6097D1*
X1403D1*
X1437Y6092D1*
X1470Y6081D1*
X1501Y6064D1*
X1528Y6042D1*
X1551Y6015D1*
X1569Y5985D1*
X1581Y5952D1*
X1588Y5900D1*
X1585Y5865D1*
X1576Y5831D1*
X1561Y5800D1*
X1540Y5771D1*
X1515Y5747D1*
X1486Y5727D1*
X1455Y5713D1*
X1421Y5705D1*
X1386Y5702D1*
X1351Y5706D1*
X1317Y5716D1*
X1286Y5732D1*
X1258Y5753D1*
X1234Y5778D1*
X1215Y5807D1*
X1202Y5840D1*
X1194Y5874D1*
X1192Y5909D1*
X1197Y5943D1*
X1208Y5977D1*
X1224Y6007D1*
X1245Y6035D1*
X1271Y6058D1*
X1301Y6077D1*
X1334Y6090D1*
X1368Y6097D1*
X1403D1*
X1437Y6092D1*
X1470Y6081D1*
X1501Y6064D1*
X1528Y6042D1*
X1551Y6015D1*
X1569Y5985D1*
X1581Y5952D1*
X1588Y5900D1*
X1585Y5865D1*
X923Y755D2*
X877Y766D1*
X846Y782D1*
X818Y803D1*
X794Y828D1*
X775Y857D1*
X762Y890D1*
X754Y924D1*
X752Y959D1*
X757Y993D1*
X768Y1027D1*
X784Y1057D1*
X805Y1085D1*
X831Y1108D1*
X861Y1127D1*
X894Y1140D1*
X928Y1147D1*
X963D1*
X997Y1142D1*
X1030Y1131D1*
X1061Y1114D1*
X1088Y1092D1*
X1111Y1065D1*
X1129Y1035D1*
X1141Y1002D1*
X1145Y977D1*
X923Y755D2*
X877Y766D1*
X846Y782D1*
X818Y803D1*
X794Y828D1*
X775Y857D1*
X762Y890D1*
X754Y924D1*
X752Y959D1*
X757Y993D1*
X768Y1027D1*
X784Y1057D1*
X805Y1085D1*
X831Y1108D1*
X861Y1127D1*
X894Y1140D1*
X928Y1147D1*
X963D1*
X997Y1142D1*
X1030Y1131D1*
X1061Y1114D1*
X1088Y1092D1*
X1111Y1065D1*
X1129Y1035D1*
X1141Y1002D1*
X1145Y977D1*
X923Y755D2*
X877Y766D1*
X846Y782D1*
X818Y803D1*
X794Y828D1*
X775Y857D1*
X762Y890D1*
X754Y924D1*
X752Y959D1*
X757Y993D1*
X768Y1027D1*
X784Y1057D1*
X805Y1085D1*
X831Y1108D1*
X861Y1127D1*
X894Y1140D1*
X928Y1147D1*
X963D1*
X997Y1142D1*
X1030Y1131D1*
X1061Y1114D1*
X1088Y1092D1*
X1111Y1065D1*
X1129Y1035D1*
X1141Y1002D1*
X1145Y977D1*
X452Y585D2*
X302Y735D1*
X257Y746D1*
X226Y762D1*
X198Y783D1*
X174Y808D1*
X155Y837D1*
X142Y870D1*
X135Y900D1*
Y585D1*
X451D1*
X303Y735D2*
X257Y746D1*
X226Y762D1*
X198Y783D1*
X174Y808D1*
X155Y837D1*
X142Y870D1*
X135Y900D1*
X137Y973D1*
X148Y1007D1*
X164Y1037D1*
X185Y1065D1*
X211Y1088D1*
X241Y1107D1*
X274Y1120D1*
X308Y1127D1*
X343D1*
X377Y1122D1*
X410Y1111D1*
X441Y1094D1*
X468Y1072D1*
X491Y1045D1*
X509Y1015D1*
X521Y982D1*
X525Y957D1*
X303Y735D2*
X257Y746D1*
X226Y762D1*
X198Y783D1*
X174Y808D1*
X155Y837D1*
X142Y870D1*
X135Y900D1*
X137Y973D1*
X148Y1007D1*
X164Y1037D1*
X185Y1065D1*
X211Y1088D1*
X241Y1107D1*
X274Y1120D1*
X308Y1127D1*
X343D1*
X377Y1122D1*
X410Y1111D1*
X441Y1094D1*
X468Y1072D1*
X491Y1045D1*
X509Y1015D1*
X521Y982D1*
X525Y957D1*
X303Y735D2*
X257Y746D1*
X226Y762D1*
X198Y783D1*
X174Y808D1*
X155Y837D1*
X142Y870D1*
X135Y900D1*
X137Y973D1*
X148Y1007D1*
X164Y1037D1*
X185Y1065D1*
X211Y1088D1*
X241Y1107D1*
X274Y1120D1*
X308Y1127D1*
X343D1*
X377Y1122D1*
X410Y1111D1*
X441Y1094D1*
X468Y1072D1*
X491Y1045D1*
X509Y1015D1*
X521Y982D1*
X525Y957D1*
X2560Y6636D2*
X4321D1*
X5739D2*
X6789D1*
X7171D2*
X8418D1*
X2527Y6568D2*
X4197D1*
X5808D2*
X6559D1*
X6741D2*
X6788D1*
X7172D2*
X8418D1*
X2426Y6499D2*
X4162D1*
X4668D2*
X5162D1*
X5877D2*
X6483D1*
X7146D2*
X8418D1*
X2305Y6430D2*
X4157D1*
X4544D2*
X5156D1*
X5946D2*
X6458D1*
X6843D2*
X6893D1*
X7067D2*
X8418D1*
X2305Y6362D2*
X2748D1*
X2952D2*
X4177D1*
X4523D2*
X5177D1*
X5523D2*
X5583D1*
X6015D2*
X6459D1*
X6841D2*
X8419D1*
X2305Y6293D2*
X2680D1*
X3020D2*
X4241D1*
X4459D2*
X5241D1*
X5459D2*
X5652D1*
X6083D2*
X6489D1*
X6811D2*
X8419D1*
X2305Y6224D2*
X2637D1*
X3043D2*
X5720D1*
X6151D2*
X6577D1*
X6722D2*
X8419D1*
X2305Y6155D2*
X2620D1*
X3040D2*
X5789D1*
X6220D2*
X8419D1*
X2305Y6087D2*
X2620D1*
X3007D2*
X5857D1*
X6289D2*
X8419D1*
X2305Y6018D2*
X2620D1*
X2980D2*
X5926D1*
X6358D2*
X8419D1*
X2305Y5949D2*
X2620D1*
X2980D2*
X5995D1*
X6426D2*
X8419D1*
X2305Y5881D2*
X2620D1*
X2980D2*
X5943D1*
X6495D2*
X8419D1*
X2305Y5812D2*
X2620D1*
X2980D2*
X5842D1*
X6545D2*
X8419D1*
X2305Y5743D2*
X2620D1*
X2980D2*
X5810D1*
X6555D2*
X8419D1*
X2305Y5675D2*
X2620D1*
X2980D2*
X5807D1*
X6193D2*
X6246D1*
X6555D2*
X8420D1*
X2305Y5606D2*
X2620D1*
X2980D2*
X5675D1*
X6169D2*
X6246D1*
X6555D2*
X8420D1*
X2305Y5537D2*
X2620D1*
X2980D2*
X5622D1*
X6100D2*
X6246D1*
X6555D2*
X8420D1*
X2305Y5469D2*
X2620D1*
X2980D2*
X5606D1*
X5994D2*
X6246D1*
X6555D2*
X8420D1*
X2305Y5400D2*
X2620D1*
X2980D2*
X5616D1*
X5985D2*
X6246D1*
X6555D2*
X8420D1*
X2305Y5331D2*
X2620D1*
X2980D2*
X5469D1*
X5944D2*
X6246D1*
X6555D2*
X8420D1*
X2305Y5263D2*
X2620D1*
X2980D2*
X5420D1*
X5780D2*
X6246D1*
X6555D2*
X8420D1*
X2305Y5194D2*
X2620D1*
X2980D2*
X5406D1*
X5795D2*
X6246D1*
X6555D2*
X8420D1*
X2305Y5125D2*
X2620D1*
X2980D2*
X5417D1*
X5783D2*
X6246D1*
X6555D2*
X8420D1*
X2305Y5056D2*
X2620D1*
X2980D2*
X5462D1*
X5739D2*
X6246D1*
X6555D2*
X8420D1*
X2305Y4988D2*
X2415D1*
X2980D2*
X6246D1*
X6555D2*
X8420D1*
X2305Y4919D2*
X2368D1*
X2980D2*
X5529D1*
X5771D2*
X6246D1*
X6555D2*
X8421D1*
X2305Y4850D2*
X2355D1*
X2980D2*
X5474D1*
X5827D2*
X6246D1*
X6555D2*
X8421D1*
X2305Y4782D2*
X2368D1*
X2980D2*
X3096D1*
X3204D2*
X5456D1*
X5844D2*
X6246D1*
X6555D2*
X7260D1*
X7541D2*
X8421D1*
X2305Y4713D2*
X2414D1*
X3307D2*
X5464D1*
X5835D2*
X6246D1*
X6555D2*
X7216D1*
X7584D2*
X8421D1*
X2305Y4644D2*
X2620D1*
X3339D2*
X5503D1*
X5796D2*
X6246D1*
X6555D2*
X7205D1*
X7594D2*
X8421D1*
X2305Y4576D2*
X2620D1*
X3343D2*
X6246D1*
X6555D2*
X7220D1*
X7579D2*
X8421D1*
X2305Y4507D2*
X2632D1*
X3320D2*
X6246D1*
X6555D2*
X7272D1*
X7612D2*
X8421D1*
X2306Y4438D2*
X2680D1*
X3252D2*
X6223D1*
X6578D2*
X7260D1*
X7641D2*
X8421D1*
X2306Y4370D2*
X2749D1*
X3252D2*
X6205D1*
X6594D2*
X7257D1*
X7642D2*
X8421D1*
X2306Y4301D2*
X2818D1*
X3320D2*
X3799D1*
X5421D2*
X6215D1*
X6586D2*
X7284D1*
X7616D2*
X8421D1*
X2306Y4232D2*
X2659D1*
X3516D2*
X3562D1*
X5514D2*
X6060D1*
X6544D2*
X7359D1*
X7542D2*
X8422D1*
X2306Y4164D2*
X2617D1*
X5583D2*
X6016D1*
X6383D2*
X8422D1*
X2306Y4095D2*
X2606D1*
X5651D2*
X6005D1*
X6394D2*
X8422D1*
X2306Y4026D2*
X2620D1*
X5719D2*
X6020D1*
X6380D2*
X8422D1*
X2306Y3957D2*
X2589D1*
X5788D2*
X6071D1*
X6329D2*
X8422D1*
X2306Y3889D2*
X2560D1*
X3482D2*
X3646D1*
X5830D2*
X8422D1*
X2306Y3820D2*
X2504D1*
X3370D2*
X3714D1*
X5834D2*
X8422D1*
X2307Y3751D2*
X2436D1*
X3370D2*
X5283D1*
X5834D2*
X8422D1*
X2307Y3683D2*
X2399D1*
X3370D2*
X5295D1*
X5834D2*
X8422D1*
X2307Y3614D2*
X2396D1*
X3370D2*
X5295D1*
X5834D2*
X8422D1*
X2307Y3545D2*
X2396D1*
X3370D2*
X3413D1*
X3687D2*
X3913D1*
X4187D2*
X4413D1*
X4687D2*
X5295D1*
X5834D2*
X8422D1*
X2307Y3477D2*
X2396D1*
X3787D2*
X3813D1*
X4287D2*
X4313D1*
X4786D2*
X5295D1*
X5834D2*
X8423D1*
X2307Y3408D2*
X2396D1*
X4838D2*
X5295D1*
X5834D2*
X8423D1*
X2307Y3339D2*
X2396D1*
X4867D2*
X5295D1*
X5834D2*
X8423D1*
X2307Y3271D2*
X2396D1*
X2986D2*
X3011D1*
X4879D2*
X5295D1*
X5834D2*
X8423D1*
X2307Y3202D2*
X2396D1*
X2917D2*
X3010D1*
X4876D2*
X5295D1*
X5834D2*
X8423D1*
X2307Y3133D2*
X2396D1*
X2905D2*
X3010D1*
X4858D2*
X5295D1*
X5834D2*
X8423D1*
X2307Y3065D2*
X2396D1*
X2905D2*
X3010D1*
X4821D2*
X5295D1*
X5834D2*
X7353D1*
X7547D2*
X8423D1*
X2308Y2996D2*
X2396D1*
X2905D2*
X3010D1*
X3756D2*
X3844D1*
X4256D2*
X4344D1*
X4756D2*
X5239D1*
X5834D2*
X7282D1*
X7618D2*
X8423D1*
X2308Y2927D2*
X2396D1*
X2905D2*
X3010D1*
X3370D2*
X5172D1*
X5834D2*
X6431D1*
X6649D2*
X6981D1*
X7118D2*
X7257D1*
X7642D2*
X8423D1*
X2308Y2858D2*
X2396D1*
X2905D2*
X3010D1*
X3423D2*
X5103D1*
X5833D2*
X6367D1*
X6713D2*
X6890D1*
X7210D2*
X7260D1*
X7640D2*
X8423D1*
X2308Y2790D2*
X2396D1*
X2905D2*
X3018D1*
X3491D2*
X5034D1*
X5804D2*
X6346D1*
X6733D2*
X6859D1*
X7241D2*
X7292D1*
X7609D2*
X8424D1*
X2308Y2721D2*
X2396D1*
X2905D2*
X3057D1*
X3980D2*
X4965D1*
X5737D2*
X6352D1*
X6728D2*
X6857D1*
X7242D2*
X7387D1*
X7514D2*
X8424D1*
X2308Y2652D2*
X2396D1*
X2905D2*
X3126D1*
X4098D2*
X4896D1*
X5668D2*
X6387D1*
X6693D2*
X6882D1*
X7217D2*
X8424D1*
X2308Y2584D2*
X2396D1*
X2905D2*
X3195D1*
X4167D2*
X4405D1*
X4496D2*
X4852D1*
X5599D2*
X6510D1*
X6570D2*
X6956D1*
X7145D2*
X8424D1*
X2308Y2515D2*
X2396D1*
X2905D2*
X3054D1*
X4605D2*
X4846D1*
X5531D2*
X5935D1*
X6085D2*
X8424D1*
X2308Y2446D2*
X2396D1*
X2905D2*
X2982D1*
X4639D2*
X4846D1*
X5462D2*
X5849D1*
X6171D2*
X8424D1*
X2308Y2378D2*
X2396D1*
X4643D2*
X4846D1*
X5393D2*
X5819D1*
X6201D2*
X8424D1*
X2309Y2309D2*
X2396D1*
X3586D2*
X3940D1*
X4621D2*
X4846D1*
X5372D2*
X5818D1*
X6202D2*
X8424D1*
X2309Y2240D2*
X2396D1*
X3594D2*
X4028D1*
X4556D2*
X4846D1*
X5306D2*
X5844D1*
X6176D2*
X8424D1*
X2309Y2172D2*
X2400D1*
X3578D2*
X4846D1*
X5155D2*
X5920D1*
X6100D2*
X8424D1*
X2309Y2103D2*
X2442D1*
X3243D2*
X3276D1*
X3523D2*
X4846D1*
X5213D2*
X8424D1*
X2309Y2034D2*
X2509D1*
X3312D2*
X4861D1*
X5282D2*
X8426D1*
X2309Y1966D2*
X2578D1*
X3380D2*
X4919D1*
X5351D2*
X8426D1*
X2309Y1897D2*
X2647D1*
X3449D2*
X4987D1*
X5419D2*
X8426D1*
X2309Y1828D2*
X2716D1*
X3518D2*
X5056D1*
X5488D2*
X8426D1*
X2309Y1759D2*
X2785D1*
X3587D2*
X5125D1*
X5542D2*
X8426D1*
X2309Y1691D2*
X2853D1*
X3656D2*
X5194D1*
X5554D2*
X8426D1*
X2309Y1622D2*
X2922D1*
X3723D2*
X5245D1*
X5554D2*
X5700D1*
X5999D2*
X8426D1*
X2310Y1553D2*
X2991D1*
X3792D2*
X5213D1*
X5587D2*
X5663D1*
X6037D2*
X8426D1*
X2310Y1485D2*
X3060D1*
X3861D2*
X5206D1*
X5594D2*
X5656D1*
X6044D2*
X8426D1*
X2310Y1416D2*
X3129D1*
X3930D2*
X5225D1*
X5575D2*
X5675D1*
X6025D2*
X8426D1*
X2310Y1347D2*
X3196D1*
X3999D2*
X5284D1*
X5516D2*
X5734D1*
X5967D2*
X8427D1*
X2310Y1279D2*
X3056D1*
X4067D2*
X8427D1*
X2310Y1210D2*
X3015D1*
X4136D2*
X8427D1*
X2310Y1141D2*
X3006D1*
X4205D2*
X8427D1*
X2310Y1073D2*
X3022D1*
X3378D2*
X3472D1*
X4273D2*
X8427D1*
X2310Y1004D2*
X3075D1*
X3325D2*
X3540D1*
X6252D2*
X8427D1*
X2310Y935D2*
X3609D1*
X6321D2*
X8427D1*
X2311Y867D2*
X3678D1*
X6383D2*
X8427D1*
X2311Y798D2*
X2832D1*
X6404D2*
X8427D1*
X2311Y729D2*
X2763D1*
X6405D2*
X8427D1*
X2311Y660D2*
X2694D1*
X6405D2*
X8427D1*
X2311Y592D2*
X2625D1*
X6405D2*
X8428D1*
X2989Y523D2*
X5931D1*
X6069D2*
X6095D1*
X6405D2*
X8428D1*
X2921Y454D2*
X6095D1*
X6405D2*
X8428D1*
X2852Y386D2*
X6088D1*
X6405D2*
X8428D1*
X6405Y317D2*
X8428D1*
X6405Y248D2*
X8428D1*
X6395Y180D2*
X8428D1*
X4635Y2365D2*
X4625Y2332D1*
X4609Y2300D1*
X4588Y2273D1*
X4562Y2249D1*
X4532Y2231D1*
X4499Y2219D1*
X4465Y2213D1*
X4430D1*
X4396Y2220D1*
X4379Y2227D1*
X4100D1*
X4065Y2231D1*
X4032Y2241D1*
X4001Y2258D1*
X3978Y2278D1*
X3878Y2378D1*
X3538Y2377D1*
X3564Y2341D1*
X3578Y2309D1*
X3586Y2275D1*
X3588Y2250D1*
X3585Y2215D1*
X3575Y2182D1*
X3559Y2150D1*
X3538Y2123D1*
X3512Y2099D1*
X3482Y2081D1*
X3449Y2069D1*
X3415Y2063D1*
X3380D1*
X3346Y2070D1*
X3313Y2083D1*
X3284Y2102D1*
X3259Y2126D1*
X3238Y2155D1*
X3227Y2179D1*
X3199Y2169D1*
X3175Y2164D1*
X4291Y1048D1*
X5140D1*
X6140D1*
X6175Y1044D1*
X6207Y1032D1*
X6245Y1005D1*
X6355Y895D1*
X6376Y867D1*
X6391Y835D1*
X6398Y790D1*
Y230D1*
X6394Y195D1*
X6382Y164D1*
X6400Y158D1*
X8435Y155D1*
X8425Y6705D1*
X7135D1*
X7158Y6659D1*
X7166Y6625D1*
X7168Y6600D1*
X7165Y6565D1*
X7155Y6532D1*
X7139Y6500D1*
X7118Y6473D1*
X7092Y6449D1*
X7062Y6431D1*
X7029Y6419D1*
X6995Y6413D1*
X6960D1*
X6926Y6420D1*
X6893Y6433D1*
X6864Y6452D1*
X6839Y6476D1*
X6818Y6505D1*
X6803Y6536D1*
X6795Y6570D1*
X6792Y6605D1*
X6796Y6640D1*
X6807Y6673D1*
X6824Y6705D1*
X5664D1*
X6505Y5865D1*
X6526Y5837D1*
X6541Y5805D1*
X6548Y5760D1*
Y4475D1*
X6564Y4451D1*
X6578Y4419D1*
X6586Y4385D1*
X6588Y4360D1*
X6585Y4325D1*
X6575Y4292D1*
X6559Y4260D1*
X6538Y4233D1*
X6512Y4209D1*
X6482Y4191D1*
X6449Y4179D1*
X6415Y4173D1*
X6373Y4175D1*
X6386Y4125D1*
X6388Y4100D1*
X6385Y4065D1*
X6375Y4032D1*
X6359Y4000D1*
X6338Y3973D1*
X6312Y3949D1*
X6282Y3931D1*
X6249Y3919D1*
X6215Y3913D1*
X6180D1*
X6146Y3920D1*
X6113Y3933D1*
X6084Y3952D1*
X6059Y3976D1*
X6038Y4005D1*
X6023Y4036D1*
X6015Y4070D1*
X6012Y4105D1*
X6016Y4140D1*
X6027Y4173D1*
X6044Y4204D1*
X6065Y4231D1*
X6092Y4254D1*
X6122Y4271D1*
X6155Y4282D1*
X6190Y4288D1*
X6228Y4285D1*
X6215Y4330D1*
X6212Y4365D1*
X6216Y4400D1*
X6227Y4433D1*
X6244Y4464D1*
X6252Y4475D1*
Y5700D1*
X6168Y5783D1*
X6178Y5759D1*
X6186Y5725D1*
X6188Y5700D1*
X6185Y5665D1*
X6175Y5632D1*
X6159Y5600D1*
X6138Y5573D1*
X6112Y5549D1*
X6082Y5531D1*
X6049Y5519D1*
X6015Y5513D1*
X5979D1*
X5986Y5485D1*
X5988Y5460D1*
X5985Y5425D1*
X5975Y5392D1*
X5959Y5360D1*
X5938Y5333D1*
X5912Y5309D1*
X5882Y5291D1*
X5849Y5279D1*
X5815Y5273D1*
X5780D1*
X5766Y5276D1*
X5778Y5249D1*
X5786Y5215D1*
X5788Y5190D1*
X5785Y5155D1*
X5775Y5122D1*
X5759Y5090D1*
X5738Y5063D1*
X5712Y5039D1*
X5682Y5021D1*
X5649Y5009D1*
X5615Y5003D1*
X5580D1*
X5546Y5010D1*
X5513Y5023D1*
X5484Y5042D1*
X5459Y5066D1*
X5438Y5095D1*
X5423Y5126D1*
X5415Y5160D1*
X5412Y5195D1*
X5416Y5230D1*
X5427Y5263D1*
X5444Y5294D1*
X5465Y5321D1*
X5492Y5344D1*
X5522Y5361D1*
X5555Y5372D1*
X5590Y5378D1*
X5632Y5374D1*
X5623Y5396D1*
X5615Y5430D1*
X5612Y5465D1*
X5616Y5500D1*
X5627Y5533D1*
X5644Y5564D1*
X5665Y5591D1*
X5692Y5614D1*
X5722Y5631D1*
X5755Y5642D1*
X5790Y5648D1*
X5819Y5646D1*
X5815Y5670D1*
X5812Y5705D1*
X5816Y5740D1*
X5827Y5773D1*
X5844Y5804D1*
X5865Y5831D1*
X5892Y5854D1*
X5922Y5871D1*
X5955Y5882D1*
X5990Y5888D1*
X6025Y5886D1*
X6059Y5878D1*
X6084Y5867D1*
X5535Y6415D1*
X5525Y6382D1*
X5509Y6350D1*
X5488Y6323D1*
X5462Y6299D1*
X5432Y6281D1*
X5399Y6269D1*
X5365Y6263D1*
X5330D1*
X5296Y6270D1*
X5263Y6283D1*
X5234Y6302D1*
X5209Y6326D1*
X5188Y6355D1*
X5173Y6386D1*
X5165Y6420D1*
X5162Y6455D1*
X5166Y6490D1*
X5171Y6503D1*
X5055Y6502D1*
X4667D1*
X4632Y6481D1*
X4599Y6469D1*
X4565Y6463D1*
X4538D1*
X4535Y6415D1*
X4525Y6382D1*
X4509Y6350D1*
X4488Y6323D1*
X4462Y6299D1*
X4432Y6281D1*
X4399Y6269D1*
X4365Y6263D1*
X4330D1*
X4296Y6270D1*
X4263Y6283D1*
X4234Y6302D1*
X4209Y6326D1*
X4188Y6355D1*
X4173Y6386D1*
X4165Y6420D1*
X4162Y6455D1*
X4166Y6490D1*
X4177Y6523D1*
X4194Y6554D1*
X4215Y6581D1*
X4242Y6604D1*
X4272Y6621D1*
X4305Y6632D1*
X4340Y6638D1*
X4363Y6637D1*
X4362Y6655D1*
X4366Y6690D1*
X4371Y6705D1*
X2556D1*
X2558Y6680D1*
X2555Y6645D1*
X2545Y6612D1*
X2529Y6580D1*
X2508Y6553D1*
X2482Y6529D1*
X2452Y6511D1*
X2419Y6499D1*
X2385Y6493D1*
X2350D1*
X2316Y6500D1*
X2299Y6507D1*
X2298Y6330D1*
X2300Y3135D1*
X2304Y588D1*
X2629D1*
X2845Y805D1*
X2873Y826D1*
X2905Y841D1*
X2950Y848D1*
X3704D1*
X3387Y1164D1*
X3385Y1115D1*
X3375Y1082D1*
X3359Y1050D1*
X3338Y1023D1*
X3312Y999D1*
X3282Y981D1*
X3249Y969D1*
X3215Y963D1*
X3180D1*
X3146Y970D1*
X3113Y983D1*
X3084Y1002D1*
X3059Y1026D1*
X3038Y1055D1*
X3023Y1086D1*
X3015Y1120D1*
X3012Y1155D1*
X3016Y1190D1*
X3027Y1223D1*
X3044Y1254D1*
X3065Y1281D1*
X3092Y1304D1*
X3122Y1321D1*
X3155Y1332D1*
X3190Y1338D1*
X3213D1*
X2445Y2105D1*
X2424Y2133D1*
X2409Y2165D1*
X2402Y2210D1*
Y3650D1*
X2406Y3685D1*
X2418Y3717D1*
X2445Y3755D1*
X2564Y3873D1*
X2577Y3923D1*
X2594Y3954D1*
X2615Y3981D1*
X2640Y4002D1*
X2623Y4036D1*
X2615Y4070D1*
X2612Y4105D1*
X2616Y4140D1*
X2627Y4173D1*
X2644Y4204D1*
X2665Y4231D1*
X2692Y4254D1*
X2722Y4271D1*
X2755Y4282D1*
X2790Y4288D1*
X2825Y4286D1*
X2843Y4282D1*
X2678Y4448D1*
X2656Y4475D1*
X2640Y4506D1*
X2630Y4539D1*
X2627Y4570D1*
Y4678D1*
X2599Y4669D1*
X2565Y4663D1*
X2530D1*
X2496Y4670D1*
X2463Y4683D1*
X2434Y4702D1*
X2409Y4726D1*
X2388Y4755D1*
X2373Y4786D1*
X2365Y4820D1*
X2362Y4855D1*
X2366Y4890D1*
X2377Y4923D1*
X2394Y4954D1*
X2415Y4981D1*
X2442Y5004D1*
X2472Y5021D1*
X2505Y5032D1*
X2540Y5038D1*
X2575Y5036D1*
X2609Y5028D1*
X2628Y5020D1*
X2627Y5200D1*
Y6150D1*
X2631Y6185D1*
X2641Y6218D1*
X2666Y6259D1*
X2677Y6273D1*
X2694Y6304D1*
X2715Y6331D1*
X2742Y6354D1*
X2772Y6371D1*
X2805Y6382D1*
X2840Y6388D1*
X2875Y6386D1*
X2909Y6378D1*
X2941Y6364D1*
X2970Y6345D1*
X2995Y6320D1*
X3014Y6291D1*
X3028Y6259D1*
X3036Y6225D1*
X3038Y6200D1*
X3035Y6165D1*
X3025Y6132D1*
X3009Y6100D1*
X2988Y6073D1*
X2973Y6059D1*
Y4661D1*
X2994Y4704D1*
X3015Y4731D1*
X3042Y4754D1*
X3072Y4771D1*
X3105Y4782D1*
X3140Y4788D1*
X3175Y4786D1*
X3209Y4778D1*
X3241Y4764D1*
X3270Y4745D1*
X3295Y4720D1*
X3314Y4691D1*
X3328Y4659D1*
X3336Y4625D1*
X3338Y4600D1*
X3335Y4565D1*
X3325Y4532D1*
X3309Y4500D1*
X3288Y4473D1*
X3262Y4449D1*
X3232Y4431D1*
X3196Y4418D1*
X3312Y4302D1*
X3334Y4275D1*
X3351Y4243D1*
X3341Y4263D1*
X3373Y4250D1*
X3408Y4255D1*
X3443Y4254D1*
X3477Y4246D1*
X3509Y4232D1*
X3541Y4208D1*
X3566Y4230D1*
X3596Y4247D1*
X3629Y4259D1*
X3664Y4264D1*
X3699Y4263D1*
X3733Y4255D1*
X3762Y4242D1*
X3773Y4264D1*
X3795Y4291D1*
X3822Y4314D1*
X3852Y4331D1*
X3885Y4342D1*
X3920Y4348D1*
X3954Y4346D1*
X3989Y4338D1*
X4021Y4324D1*
X4045Y4308D1*
X5370D1*
X5405Y4304D1*
X5437Y4292D1*
X5475Y4265D1*
X5785Y3955D1*
X5806Y3927D1*
X5821Y3895D1*
X5828Y3850D1*
Y2880D1*
X5824Y2845D1*
X5812Y2813D1*
X5785Y2775D1*
X5386Y2377D1*
X5375Y2332D1*
X5359Y2300D1*
X5338Y2273D1*
X5312Y2249D1*
X5282Y2231D1*
X5249Y2219D1*
X5215Y2213D1*
X5180D1*
X5147Y2220D1*
X5148Y2160D1*
X5505Y1805D1*
X5526Y1777D1*
X5541Y1745D1*
X5548Y1700D1*
Y1616D1*
X5564Y1591D1*
X5578Y1559D1*
X5586Y1525D1*
X5588Y1500D1*
X5585Y1465D1*
X5575Y1432D1*
X5559Y1400D1*
X5538Y1373D1*
X5512Y1349D1*
X5482Y1331D1*
X5449Y1319D1*
X5415Y1313D1*
X5380D1*
X5346Y1320D1*
X5313Y1333D1*
X5284Y1352D1*
X5259Y1376D1*
X5238Y1405D1*
X5223Y1436D1*
X5215Y1470D1*
X5212Y1505D1*
X5216Y1540D1*
X5227Y1573D1*
X5244Y1604D1*
X5252Y1615D1*
X5246Y1645D1*
X4895Y1995D1*
X4874Y2023D1*
X4859Y2055D1*
X4852Y2100D1*
Y2540D1*
X4856Y2575D1*
X4868Y2607D1*
X4895Y2645D1*
X5303Y3052D1*
X5302Y3235D1*
Y3739D1*
X5269Y3772D1*
X3830D1*
X3795Y3776D1*
X3763Y3788D1*
X3725Y3815D1*
X3650Y3891D1*
X3619Y3897D1*
X3587Y3910D1*
X3551Y3935D1*
X3530Y3917D1*
X3500Y3899D1*
X3467Y3887D1*
X3433Y3881D1*
X3398D1*
X3362Y3888D1*
X3363Y3514D1*
X3400Y3536D1*
X3432Y3550D1*
X3465Y3561D1*
X3499Y3569D1*
X3534Y3572D1*
X3569D1*
X3604Y3568D1*
X3638Y3561D1*
X3671Y3549D1*
X3703Y3535D1*
X3732Y3516D1*
X3760Y3495D1*
X3800Y3453D1*
X3816Y3473D1*
X3842Y3497D1*
X3870Y3518D1*
X3900Y3536D1*
X3932Y3550D1*
X3965Y3561D1*
X3999Y3569D1*
X4034Y3572D1*
X4069D1*
X4104Y3568D1*
X4138Y3561D1*
X4171Y3549D1*
X4203Y3535D1*
X4232Y3516D1*
X4260Y3495D1*
X4300Y3453D1*
X4316Y3473D1*
X4342Y3497D1*
X4370Y3518D1*
X4400Y3536D1*
X4432Y3550D1*
X4465Y3561D1*
X4499Y3569D1*
X4534Y3572D1*
X4569D1*
X4604Y3568D1*
X4638Y3561D1*
X4671Y3549D1*
X4703Y3535D1*
X4732Y3516D1*
X4760Y3495D1*
X4785Y3471D1*
X4808Y3444D1*
X4827Y3415D1*
X4844Y3384D1*
X4856Y3351D1*
X4866Y3318D1*
X4871Y3283D1*
X4873Y3250D1*
X4871Y3215D1*
X4865Y3181D1*
X4856Y3147D1*
X4843Y3114D1*
X4827Y3083D1*
X4807Y3055D1*
X4784Y3028D1*
X4759Y3004D1*
X4731Y2983D1*
X4701Y2965D1*
X4669Y2950D1*
X4636Y2939D1*
X4602Y2931D1*
X4567Y2928D1*
X4532D1*
X4497Y2932D1*
X4463Y2939D1*
X4430Y2950D1*
X4398Y2965D1*
X4368Y2983D1*
X4341Y3004D1*
X4300Y3046D1*
X4259Y3004D1*
X4231Y2983D1*
X4201Y2965D1*
X4169Y2950D1*
X4136Y2939D1*
X4102Y2931D1*
X4067Y2928D1*
X4032D1*
X3997Y2932D1*
X3963Y2939D1*
X3930Y2950D1*
X3898Y2965D1*
X3868Y2983D1*
X3841Y3004D1*
X3800Y3046D1*
X3759Y3004D1*
X3731Y2983D1*
X3701Y2965D1*
X3669Y2950D1*
X3636Y2939D1*
X3602Y2931D1*
X3567Y2928D1*
X3532D1*
X3497Y2932D1*
X3463Y2939D1*
X3430Y2950D1*
X3398Y2965D1*
X3362Y2988D1*
X3363Y2912D1*
X3551Y2723D1*
X3950D1*
X3985Y2719D1*
X4018Y2709D1*
X4049Y2692D1*
X4072Y2672D1*
X4172Y2572D1*
X4377Y2573D1*
X4405Y2582D1*
X4440Y2588D1*
X4475Y2586D1*
X4509Y2578D1*
X4541Y2564D1*
X4570Y2545D1*
X4595Y2520D1*
X4614Y2491D1*
X4628Y2459D1*
X4636Y2425D1*
X4638Y2400D1*
X4635Y2365D1*
X2964Y2373D2*
X2966Y2390D1*
X2977Y2423D1*
X2994Y2454D1*
X3015Y2481D1*
X3042Y2504D1*
X3072Y2521D1*
X3105Y2532D1*
X3140Y2538D1*
X3175Y2536D1*
X3209Y2528D1*
X3241Y2514D1*
X3270Y2495D1*
X3295Y2470D1*
X3314Y2441D1*
X3323Y2422D1*
X3333Y2453D1*
X3068Y2718D1*
X3046Y2745D1*
X3030Y2776D1*
X3020Y2809D1*
X3017Y2840D1*
Y3309D1*
X2898Y3188D1*
Y2442D1*
X2964Y2375D1*
X6102Y543D2*
X6082Y531D1*
X6049Y519D1*
X6015Y513D1*
X5980D1*
X5946Y520D1*
X5913Y533D1*
X5883Y553D1*
X5580Y552D1*
X3011D1*
X2837Y378D1*
X6084D1*
X6102Y390D1*
Y542D1*
X6035Y1465D2*
X6025Y1432D1*
X6009Y1400D1*
X5988Y1373D1*
X5962Y1349D1*
X5932Y1331D1*
X5899Y1319D1*
X5865Y1313D1*
X5830D1*
X5796Y1320D1*
X5763Y1333D1*
X5734Y1352D1*
X5709Y1376D1*
X5688Y1405D1*
X5673Y1436D1*
X5665Y1470D1*
X5662Y1505D1*
X5666Y1540D1*
X5677Y1573D1*
X5694Y1604D1*
X5715Y1631D1*
X5742Y1654D1*
X5772Y1671D1*
X5805Y1682D1*
X5840Y1688D1*
X5875Y1686D1*
X5909Y1678D1*
X5941Y1664D1*
X5970Y1645D1*
X5995Y1620D1*
X6014Y1591D1*
X6028Y1559D1*
X6036Y1525D1*
X6038Y1500D1*
X6035Y1465D1*
X6195Y2305D2*
X6185Y2272D1*
X6169Y2240D1*
X6148Y2213D1*
X6122Y2189D1*
X6092Y2171D1*
X6059Y2159D1*
X6025Y2153D1*
X5990D1*
X5956Y2160D1*
X5923Y2173D1*
X5894Y2192D1*
X5869Y2216D1*
X5848Y2245D1*
X5833Y2276D1*
X5825Y2310D1*
X5822Y2345D1*
X5826Y2380D1*
X5837Y2413D1*
X5854Y2444D1*
X5875Y2471D1*
X5902Y2494D1*
X5932Y2511D1*
X5965Y2522D1*
X6000Y2528D1*
X6035Y2526D1*
X6069Y2518D1*
X6101Y2504D1*
X6130Y2485D1*
X6155Y2460D1*
X6174Y2431D1*
X6188Y2399D1*
X6196Y2365D1*
X6198Y2340D1*
X6195Y2305D1*
X7635Y4365D2*
X7625Y4332D1*
X7609Y4300D1*
X7588Y4273D1*
X7562Y4249D1*
X7532Y4231D1*
X7499Y4219D1*
X7465Y4213D1*
X7430D1*
X7396Y4220D1*
X7363Y4233D1*
X7334Y4252D1*
X7309Y4276D1*
X7288Y4305D1*
X7273Y4336D1*
X7265Y4370D1*
X7262Y4405D1*
X7266Y4440D1*
X7277Y4473D1*
X7290Y4497D1*
X7259Y4526D1*
X7238Y4555D1*
X7223Y4586D1*
X7215Y4620D1*
X7212Y4655D1*
X7216Y4690D1*
X7227Y4723D1*
X7244Y4754D1*
X7265Y4781D1*
X7292Y4804D1*
X7322Y4821D1*
X7355Y4832D1*
X7390Y4838D1*
X7425Y4836D1*
X7459Y4828D1*
X7491Y4814D1*
X7520Y4795D1*
X7545Y4770D1*
X7564Y4741D1*
X7578Y4709D1*
X7586Y4675D1*
X7588Y4650D1*
X7585Y4615D1*
X7575Y4582D1*
X7560Y4551D1*
X7570Y4545D1*
X7595Y4520D1*
X7614Y4491D1*
X7628Y4459D1*
X7636Y4425D1*
X7638Y4400D1*
X7635Y4365D1*
X7235Y2715D2*
X7225Y2682D1*
X7209Y2650D1*
X7188Y2623D1*
X7162Y2599D1*
X7132Y2581D1*
X7099Y2569D1*
X7065Y2563D1*
X7030D1*
X6996Y2570D1*
X6963Y2583D1*
X6934Y2602D1*
X6909Y2626D1*
X6888Y2655D1*
X6873Y2686D1*
X6865Y2720D1*
X6862Y2755D1*
X6866Y2790D1*
X6877Y2823D1*
X6894Y2854D1*
X6915Y2881D1*
X6942Y2904D1*
X6972Y2921D1*
X7005Y2932D1*
X7040Y2938D1*
X7075Y2936D1*
X7109Y2928D1*
X7141Y2914D1*
X7170Y2895D1*
X7195Y2870D1*
X7214Y2841D1*
X7228Y2809D1*
X7236Y2775D1*
X7238Y2750D1*
X7235Y2715D1*
X6835Y6365D2*
X6825Y6332D1*
X6809Y6300D1*
X6788Y6273D1*
X6762Y6249D1*
X6732Y6231D1*
X6699Y6219D1*
X6665Y6213D1*
X6630D1*
X6596Y6220D1*
X6563Y6233D1*
X6534Y6252D1*
X6509Y6276D1*
X6488Y6305D1*
X6473Y6336D1*
X6465Y6370D1*
X6462Y6405D1*
X6466Y6440D1*
X6477Y6473D1*
X6494Y6504D1*
X6515Y6531D1*
X6542Y6554D1*
X6572Y6571D1*
X6605Y6582D1*
X6640Y6588D1*
X6675Y6586D1*
X6709Y6578D1*
X6741Y6564D1*
X6770Y6545D1*
X6795Y6520D1*
X6814Y6491D1*
X6828Y6459D1*
X6836Y6425D1*
X6838Y6400D1*
X6835Y6365D1*
X6725Y2735D2*
X6715Y2702D1*
X6699Y2670D1*
X6678Y2643D1*
X6652Y2619D1*
X6622Y2601D1*
X6589Y2589D1*
X6555Y2583D1*
X6520D1*
X6486Y2590D1*
X6453Y2603D1*
X6424Y2622D1*
X6399Y2646D1*
X6378Y2675D1*
X6363Y2706D1*
X6355Y2740D1*
X6352Y2775D1*
X6356Y2810D1*
X6367Y2843D1*
X6384Y2874D1*
X6405Y2901D1*
X6432Y2924D1*
X6462Y2941D1*
X6495Y2952D1*
X6530Y2958D1*
X6565Y2956D1*
X6599Y2948D1*
X6631Y2934D1*
X6660Y2915D1*
X6685Y2890D1*
X6704Y2861D1*
X6718Y2829D1*
X6726Y2795D1*
X6728Y2770D1*
X6725Y2735D1*
X7635Y2865D2*
X7625Y2832D1*
X7609Y2800D1*
X7588Y2773D1*
X7562Y2749D1*
X7532Y2731D1*
X7499Y2719D1*
X7465Y2713D1*
X7430D1*
X7396Y2720D1*
X7363Y2733D1*
X7334Y2752D1*
X7309Y2776D1*
X7288Y2805D1*
X7273Y2836D1*
X7265Y2870D1*
X7262Y2905D1*
X7266Y2940D1*
X7277Y2973D1*
X7294Y3004D1*
X7315Y3031D1*
X7342Y3054D1*
X7372Y3071D1*
X7405Y3082D1*
X7440Y3088D1*
X7475Y3086D1*
X7509Y3078D1*
X7541Y3064D1*
X7570Y3045D1*
X7595Y3020D1*
X7614Y2991D1*
X7628Y2959D1*
X7636Y2925D1*
X7638Y2900D1*
X7635Y2865D1*
X2555Y6645D2*
X2545Y6612D1*
X2529Y6580D1*
X2508Y6553D1*
X2482Y6529D1*
X2452Y6511D1*
X2419Y6499D1*
X2385Y6493D1*
X2350D1*
X2316Y6500D1*
X2299Y6507D1*
X4535Y6415D2*
X4525Y6382D1*
X4509Y6350D1*
X4488Y6323D1*
X4462Y6299D1*
X4432Y6281D1*
X4399Y6269D1*
X4365Y6263D1*
X4330D1*
X4296Y6270D1*
X4263Y6283D1*
X4234Y6302D1*
X4209Y6326D1*
X4188Y6355D1*
X4173Y6386D1*
X4165Y6420D1*
X4162Y6455D1*
X4166Y6490D1*
X4177Y6523D1*
X4194Y6554D1*
X4215Y6581D1*
X4242Y6604D1*
X4272Y6621D1*
X4305Y6632D1*
X4340Y6638D1*
X4363Y6637D1*
X5835Y4735D2*
X5825Y4702D1*
X5809Y4670D1*
X5788Y4643D1*
X5762Y4619D1*
X5732Y4601D1*
X5699Y4589D1*
X5665Y4583D1*
X5630D1*
X5596Y4590D1*
X5563Y4603D1*
X5534Y4622D1*
X5509Y4646D1*
X5488Y4675D1*
X5473Y4706D1*
X5465Y4740D1*
X5462Y4775D1*
X5466Y4810D1*
X5477Y4843D1*
X5494Y4874D1*
X5515Y4901D1*
X5542Y4924D1*
X5572Y4941D1*
X5605Y4952D1*
X5640Y4958D1*
X5675Y4956D1*
X5709Y4948D1*
X5741Y4934D1*
X5770Y4915D1*
X5795Y4890D1*
X5814Y4861D1*
X5828Y4829D1*
X5836Y4795D1*
X5838Y4770D1*
X5835Y4735D1*
X5825Y4702D1*
X5809Y4670D1*
X5788Y4643D1*
X5762Y4619D1*
X5732Y4601D1*
X5699Y4589D1*
X5665Y4583D1*
X5630D1*
X5596Y4590D1*
X5563Y4603D1*
X5534Y4622D1*
X5509Y4646D1*
X5488Y4675D1*
X5473Y4706D1*
X5465Y4740D1*
X5462Y4775D1*
X5466Y4810D1*
X5477Y4843D1*
X5494Y4874D1*
X5515Y4901D1*
X5542Y4924D1*
X5572Y4941D1*
X5605Y4952D1*
X5640Y4958D1*
X5675Y4956D1*
X5709Y4948D1*
X5741Y4934D1*
X5770Y4915D1*
X5795Y4890D1*
X5814Y4861D1*
X5828Y4829D1*
X5836Y4795D1*
X5838Y4770D1*
X5835Y4735D1*
X5825Y4702D1*
X5809Y4670D1*
X5788Y4643D1*
X5762Y4619D1*
X5732Y4601D1*
X5699Y4589D1*
X5665Y4583D1*
X5630D1*
X5596Y4590D1*
X5563Y4603D1*
X5534Y4622D1*
X5509Y4646D1*
X5488Y4675D1*
X5473Y4706D1*
X5465Y4740D1*
X5462Y4775D1*
X5466Y4810D1*
X5477Y4843D1*
X5494Y4874D1*
X5515Y4901D1*
X5542Y4924D1*
X5572Y4941D1*
X5605Y4952D1*
X5640Y4958D1*
X5675Y4956D1*
X5709Y4948D1*
X5741Y4934D1*
X5770Y4915D1*
X5795Y4890D1*
X5814Y4861D1*
X5828Y4829D1*
X5836Y4795D1*
X5838Y4770D1*
X5835Y4735D1*
X5825Y4702D1*
X5809Y4670D1*
X5788Y4643D1*
X5762Y4619D1*
X5732Y4601D1*
X5699Y4589D1*
X5665Y4583D1*
X5630D1*
X5596Y4590D1*
X5563Y4603D1*
X5534Y4622D1*
X5509Y4646D1*
X5488Y4675D1*
X5473Y4706D1*
X5465Y4740D1*
X5462Y4775D1*
X5466Y4810D1*
X5477Y4843D1*
X5494Y4874D1*
X5515Y4901D1*
X5542Y4924D1*
X5572Y4941D1*
X5605Y4952D1*
X5640Y4958D1*
X5675Y4956D1*
X5709Y4948D1*
X5741Y4934D1*
X5770Y4915D1*
X5795Y4890D1*
X5814Y4861D1*
X5828Y4829D1*
X5836Y4795D1*
X5838Y4770D1*
X5835Y4735D1*
X5825Y4702D1*
X5809Y4670D1*
X5788Y4643D1*
X5762Y4619D1*
X5732Y4601D1*
X5699Y4589D1*
X5665Y4583D1*
X5630D1*
X5596Y4590D1*
X5563Y4603D1*
X5534Y4622D1*
X5509Y4646D1*
X5488Y4675D1*
X5473Y4706D1*
X5465Y4740D1*
X5462Y4775D1*
X5466Y4810D1*
X5477Y4843D1*
X5494Y4874D1*
X5515Y4901D1*
X5542Y4924D1*
X5572Y4941D1*
X5605Y4952D1*
X5640Y4958D1*
X5675Y4956D1*
X5709Y4948D1*
X5741Y4934D1*
X5770Y4915D1*
X5795Y4890D1*
X5814Y4861D1*
X5828Y4829D1*
X5836Y4795D1*
X5838Y4770D1*
X5835Y4735D1*
M02*
