G04 DipTrace Beta 2.3.5.2*
%INMinimOSD_MK2.G3L*%
%MOIN*%
%ADD13C,0.01*%
%ADD17C,0.018*%
%ADD19C,0.007*%
%ADD48C,0.045*%
%FSLAX44Y44*%
G04*
G70*
G90*
G75*
G01*
%LNInner2*%
%LPD*%
X2930Y1140D2*
D17*
X2770D1*
X5850Y1500D2*
D13*
X5550Y1200D1*
X4650D1*
X4350Y1500D1*
X3400D1*
X2800Y2100D1*
Y2550D1*
X3000Y2750D1*
Y4300D1*
X2878Y4422D1*
X2568D1*
X2250Y4740D1*
Y5340D1*
X1777Y5813D1*
X1477D1*
X1390Y5900D1*
X5800Y5460D2*
Y5260D1*
X5990Y5070D1*
Y4530D1*
X5800Y4340D1*
Y2660D1*
X5340Y2200D1*
X3450D1*
X3400Y2250D1*
X3150Y4600D2*
X5000Y6450D1*
X5350D1*
X3418Y4068D2*
X3150Y3800D1*
Y2650D1*
X2950Y2450D1*
Y2200D1*
X3250Y1900D1*
X5400D1*
X5840Y2340D1*
X6010D1*
X3200Y1150D2*
Y1450D1*
X2550Y2100D1*
Y3350D1*
X2750Y3550D1*
X2370Y6680D2*
X2410D1*
X2480Y6750D1*
X4050D1*
X4350Y6450D1*
X1700Y5050D2*
D17*
X1850D1*
X2000D1*
X1950Y2000D2*
X1800D1*
X1650D1*
X6980Y6600D2*
D13*
Y6350D1*
X6780Y6150D1*
X5990D1*
X5490Y6650D1*
X4900D1*
X3800Y5550D1*
X3250D1*
X2550Y4850D1*
D17*
X1500Y4100D3*
D3*
D3*
D3*
D3*
X7200Y1350D3*
X5050Y5850D3*
X5850Y1500D3*
X1390Y5900D3*
D3*
D3*
X5800Y5460D3*
X3400Y2250D3*
X3150Y4600D3*
X5350Y6450D3*
X3418Y4068D3*
X6010Y2340D3*
X3930Y4160D3*
X2850Y6200D3*
X7450Y4400D3*
X7050Y2750D3*
X6400Y4360D3*
X4550Y6650D3*
X5600Y5190D3*
X6000Y5700D3*
X6650Y6400D3*
X7400Y4650D3*
X6540Y2770D3*
X7450Y2900D3*
X2750Y3550D3*
Y3850D3*
X950Y950D3*
D3*
D3*
D3*
X3674Y4076D3*
X6200Y4100D3*
Y230D3*
X330Y930D3*
X2800Y4100D3*
X6200Y230D3*
X330Y930D3*
D3*
D3*
X2370Y6680D3*
X4350Y6450D3*
X2370Y6680D3*
X4350Y6450D3*
X5650Y4770D3*
D3*
D3*
D3*
D3*
X1700Y5050D3*
D3*
D3*
D3*
X2550Y4850D3*
X4450Y2400D3*
X5200D3*
X1850Y5050D3*
X2000D3*
X3150Y2350D3*
X1650Y2000D3*
X1800D3*
X1950D3*
X1550Y3850D3*
X6980Y6600D3*
X1700Y3850D3*
X1850D3*
X1650Y850D3*
X1800D3*
X1950D3*
X3200Y1150D3*
X5400Y1500D3*
D48*
X3550Y3250D3*
X4050D3*
X4550D3*
D17*
X6000Y700D3*
X3020Y6550D3*
Y6370D3*
X5800Y6700D3*
X700Y3860D3*
X6800Y1260D3*
X7610Y1250D3*
X8360Y200D3*
X7870Y190D3*
X8370Y2150D3*
Y2490D3*
X8380Y690D3*
X6470Y180D3*
X7380Y6600D3*
X7480Y5170D3*
X300Y1940D3*
X960Y1950D3*
X2770Y1140D3*
X2930D3*
X192Y6646D2*
D19*
X2168D1*
X192Y6578D2*
X2194D1*
X192Y6509D2*
X2208D1*
X192Y6440D2*
X2208D1*
X192Y6372D2*
X2208D1*
X192Y6303D2*
X2208D1*
X192Y6234D2*
X2208D1*
X192Y6165D2*
X2208D1*
X192Y6097D2*
X1364D1*
X1415D2*
X2208D1*
X192Y6028D2*
X1233D1*
X1548D2*
X2208D1*
X192Y5959D2*
X1195D1*
X1842D2*
X2208D1*
X192Y5891D2*
X1186D1*
X1929D2*
X2208D1*
X192Y5822D2*
X1201D1*
X1998D2*
X2208D1*
X192Y5753D2*
X1250D1*
X2066D2*
X2208D1*
X192Y5685D2*
X1378D1*
X2135D2*
X2208D1*
X192Y5616D2*
X1744D1*
X192Y5547D2*
X1813D1*
X192Y5479D2*
X1882D1*
X192Y5410D2*
X1950D1*
X192Y5341D2*
X2018D1*
X192Y5273D2*
X2085D1*
X192Y5204D2*
X1569D1*
X192Y5135D2*
X1515D1*
X192Y5066D2*
X1497D1*
X192Y4998D2*
X1502D1*
X192Y4929D2*
X1537D1*
X192Y4860D2*
X1637D1*
X2063D2*
X2085D1*
X192Y4792D2*
X2085D1*
X192Y4723D2*
X2086D1*
X192Y4654D2*
X2110D1*
X192Y4586D2*
X2175D1*
X192Y4517D2*
X2208D1*
X192Y4448D2*
X2208D1*
X192Y4380D2*
X2208D1*
X192Y4311D2*
X2208D1*
X192Y4242D2*
X2208D1*
X192Y4174D2*
X2208D1*
X192Y4105D2*
X2208D1*
X192Y4036D2*
X603D1*
X796D2*
X2208D1*
X192Y3967D2*
X527D1*
X873D2*
X2208D1*
X192Y3899D2*
X499D1*
X901D2*
X2208D1*
X192Y3830D2*
X498D1*
X902D2*
X2208D1*
X192Y3761D2*
X522D1*
X878D2*
X2208D1*
X192Y3693D2*
X588D1*
X813D2*
X2208D1*
X192Y3624D2*
X2208D1*
X192Y3555D2*
X2208D1*
X192Y3487D2*
X2208D1*
X192Y3418D2*
X2208D1*
X192Y3349D2*
X2208D1*
X192Y3281D2*
X2208D1*
X192Y3212D2*
X2208D1*
X192Y3143D2*
X2208D1*
X192Y3075D2*
X2208D1*
X192Y3006D2*
X2208D1*
X192Y2937D2*
X2208D1*
X192Y2868D2*
X2208D1*
X192Y2800D2*
X2208D1*
X192Y2731D2*
X2208D1*
X192Y2662D2*
X2208D1*
X192Y2594D2*
X2208D1*
X192Y2525D2*
X2208D1*
X192Y2456D2*
X2208D1*
X192Y2388D2*
X2208D1*
X192Y2319D2*
X2208D1*
X192Y2250D2*
X2208D1*
X192Y2182D2*
X1565D1*
X2036D2*
X2208D1*
X403Y2113D2*
X841D1*
X1078D2*
X1481D1*
X2120D2*
X2208D1*
X475Y2044D2*
X779D1*
X1141D2*
X1451D1*
X2149D2*
X2208D1*
X501Y1976D2*
X757D1*
X1163D2*
X1447D1*
X2154D2*
X2208D1*
X502Y1907D2*
X760D1*
X1159D2*
X1469D1*
X2132D2*
X2208D1*
X477Y1838D2*
X790D1*
X1130D2*
X1529D1*
X2071D2*
X2208D1*
X407Y1769D2*
X872D1*
X1048D2*
X2208D1*
X192Y1701D2*
X2208D1*
X192Y1632D2*
X2208D1*
X192Y1563D2*
X2208D1*
X192Y1495D2*
X2208D1*
X192Y1426D2*
X2208D1*
X192Y1357D2*
X2208D1*
X192Y1289D2*
X2208D1*
X192Y1220D2*
X2208D1*
X192Y1151D2*
X2208D1*
X463Y1083D2*
X797D1*
X1104D2*
X2208D1*
X516Y1014D2*
X756D1*
X1144D2*
X2208D1*
X534Y945D2*
X745D1*
X1155D2*
X2208D1*
X527Y877D2*
X759D1*
X1141D2*
X2208D1*
X492Y808D2*
X805D1*
X1095D2*
X2208D1*
X192Y739D2*
X272D1*
X388D2*
X2208D1*
X192Y670D2*
X2208D1*
X192Y602D2*
X2208D1*
X895Y3825D2*
X886Y3791D1*
X871Y3760D1*
X850Y3731D1*
X825Y3707D1*
X796Y3687D1*
X765Y3673D1*
X731Y3665D1*
X696Y3662D1*
X661Y3666D1*
X627Y3676D1*
X596Y3692D1*
X568Y3713D1*
X544Y3738D1*
X525Y3767D1*
X512Y3800D1*
X504Y3834D1*
X502Y3869D1*
X507Y3903D1*
X518Y3937D1*
X534Y3967D1*
X555Y3995D1*
X581Y4018D1*
X611Y4037D1*
X644Y4050D1*
X678Y4057D1*
X713D1*
X747Y4052D1*
X780Y4041D1*
X811Y4024D1*
X838Y4002D1*
X861Y3975D1*
X879Y3945D1*
X891Y3912D1*
X898Y3860D1*
X895Y3825D1*
X495Y1905D2*
X486Y1871D1*
X471Y1840D1*
X450Y1811D1*
X425Y1787D1*
X396Y1767D1*
X365Y1753D1*
X331Y1745D1*
X296Y1742D1*
X261Y1746D1*
X227Y1756D1*
X196Y1772D1*
X185Y1780D1*
Y1065D1*
X211Y1088D1*
X241Y1107D1*
X274Y1120D1*
X308Y1127D1*
X343D1*
X377Y1122D1*
X410Y1111D1*
X441Y1094D1*
X468Y1072D1*
X491Y1045D1*
X509Y1015D1*
X521Y982D1*
X528Y930D1*
X525Y895D1*
X516Y861D1*
X501Y830D1*
X480Y801D1*
X455Y777D1*
X426Y757D1*
X395Y743D1*
X361Y735D1*
X326Y732D1*
X291Y736D1*
X257Y746D1*
X226Y762D1*
X198Y783D1*
X185Y796D1*
Y585D1*
X2215D1*
Y4552D1*
X2138Y4628D1*
X2117Y4656D1*
X2101Y4687D1*
X2092Y4734D1*
Y4875D1*
X2065Y4863D1*
X2031Y4855D1*
X2000Y4852D1*
X1700D1*
X1665Y4855D1*
X1631Y4864D1*
X1600Y4879D1*
X1571Y4900D1*
X1547Y4925D1*
X1527Y4954D1*
X1513Y4985D1*
X1505Y5019D1*
X1502Y5054D1*
X1506Y5089D1*
X1516Y5123D1*
X1532Y5154D1*
X1553Y5182D1*
X1578Y5206D1*
X1607Y5225D1*
X1640Y5238D1*
X1674Y5246D1*
X1770Y5248D1*
X2000D1*
X2035Y5245D1*
X2081Y5230D1*
X2092D1*
Y5275D1*
X1712Y5655D1*
X1477D1*
X1442Y5659D1*
X1409Y5670D1*
X1370Y5697D1*
X1363Y5704D1*
X1317Y5716D1*
X1286Y5732D1*
X1258Y5753D1*
X1234Y5778D1*
X1215Y5807D1*
X1202Y5840D1*
X1194Y5874D1*
X1192Y5909D1*
X1197Y5943D1*
X1208Y5977D1*
X1224Y6007D1*
X1245Y6035D1*
X1271Y6058D1*
X1301Y6077D1*
X1334Y6090D1*
X1368Y6097D1*
X1403D1*
X1437Y6092D1*
X1470Y6081D1*
X1501Y6064D1*
X1528Y6042D1*
X1551Y6015D1*
X1569Y5985D1*
X1574Y5970D1*
X1687Y5971D1*
X1777D1*
X1812Y5967D1*
X1845Y5955D1*
X1885Y5928D1*
X2216Y5597D1*
X2215Y5940D1*
X2214Y6558D1*
X2195Y6587D1*
X2182Y6620D1*
X2174Y6654D1*
X2172Y6689D1*
X2176Y6716D1*
X1515Y6715D1*
X185D1*
Y2100D1*
X211Y2117D1*
X244Y2130D1*
X278Y2137D1*
X313D1*
X347Y2132D1*
X380Y2121D1*
X411Y2104D1*
X438Y2082D1*
X461Y2055D1*
X479Y2025D1*
X491Y1992D1*
X498Y1940D1*
X495Y1905D1*
X1155Y1915D2*
X1146Y1881D1*
X1131Y1850D1*
X1110Y1821D1*
X1085Y1797D1*
X1056Y1777D1*
X1025Y1763D1*
X991Y1755D1*
X956Y1752D1*
X921Y1756D1*
X887Y1766D1*
X856Y1782D1*
X828Y1803D1*
X804Y1828D1*
X785Y1857D1*
X772Y1890D1*
X764Y1924D1*
X762Y1959D1*
X767Y1993D1*
X778Y2027D1*
X794Y2057D1*
X815Y2085D1*
X841Y2108D1*
X871Y2127D1*
X904Y2140D1*
X938Y2147D1*
X973D1*
X1007Y2142D1*
X1040Y2131D1*
X1071Y2114D1*
X1098Y2092D1*
X1121Y2065D1*
X1139Y2035D1*
X1151Y2002D1*
X1158Y1950D1*
X1155Y1915D1*
X1363Y5705D2*
X1317Y5716D1*
X1286Y5732D1*
X1258Y5753D1*
X1234Y5778D1*
X1215Y5807D1*
X1202Y5840D1*
X1194Y5874D1*
X1192Y5909D1*
X1197Y5943D1*
X1208Y5977D1*
X1224Y6007D1*
X1245Y6035D1*
X1271Y6058D1*
X1301Y6077D1*
X1334Y6090D1*
X1368Y6097D1*
X1403D1*
X1437Y6092D1*
X1470Y6081D1*
X1501Y6064D1*
X1528Y6042D1*
X1551Y6015D1*
X1569Y5985D1*
X1574Y5970D1*
X1363Y5705D2*
X1317Y5716D1*
X1286Y5732D1*
X1258Y5753D1*
X1234Y5778D1*
X1215Y5807D1*
X1202Y5840D1*
X1194Y5874D1*
X1192Y5909D1*
X1197Y5943D1*
X1208Y5977D1*
X1224Y6007D1*
X1245Y6035D1*
X1271Y6058D1*
X1301Y6077D1*
X1334Y6090D1*
X1368Y6097D1*
X1403D1*
X1437Y6092D1*
X1470Y6081D1*
X1501Y6064D1*
X1528Y6042D1*
X1551Y6015D1*
X1569Y5985D1*
X1574Y5970D1*
X1145Y915D2*
X1136Y881D1*
X1121Y850D1*
X1100Y821D1*
X1075Y797D1*
X1046Y777D1*
X1015Y763D1*
X981Y755D1*
X946Y752D1*
X911Y756D1*
X877Y766D1*
X846Y782D1*
X818Y803D1*
X794Y828D1*
X775Y857D1*
X762Y890D1*
X754Y924D1*
X752Y959D1*
X757Y993D1*
X768Y1027D1*
X784Y1057D1*
X805Y1085D1*
X831Y1108D1*
X861Y1127D1*
X894Y1140D1*
X928Y1147D1*
X963D1*
X997Y1142D1*
X1030Y1131D1*
X1061Y1114D1*
X1088Y1092D1*
X1111Y1065D1*
X1129Y1035D1*
X1141Y1002D1*
X1148Y950D1*
X1145Y915D1*
X1136Y881D1*
X1121Y850D1*
X1100Y821D1*
X1075Y797D1*
X1046Y777D1*
X1015Y763D1*
X981Y755D1*
X946Y752D1*
X911Y756D1*
X877Y766D1*
X846Y782D1*
X818Y803D1*
X794Y828D1*
X775Y857D1*
X762Y890D1*
X754Y924D1*
X752Y959D1*
X757Y993D1*
X768Y1027D1*
X784Y1057D1*
X805Y1085D1*
X831Y1108D1*
X861Y1127D1*
X894Y1140D1*
X928Y1147D1*
X963D1*
X997Y1142D1*
X1030Y1131D1*
X1061Y1114D1*
X1088Y1092D1*
X1111Y1065D1*
X1129Y1035D1*
X1141Y1002D1*
X1148Y950D1*
X1145Y915D1*
X1136Y881D1*
X1121Y850D1*
X1100Y821D1*
X1075Y797D1*
X1046Y777D1*
X1015Y763D1*
X981Y755D1*
X946Y752D1*
X911Y756D1*
X877Y766D1*
X846Y782D1*
X818Y803D1*
X794Y828D1*
X775Y857D1*
X762Y890D1*
X754Y924D1*
X752Y959D1*
X757Y993D1*
X768Y1027D1*
X784Y1057D1*
X805Y1085D1*
X831Y1108D1*
X861Y1127D1*
X894Y1140D1*
X928Y1147D1*
X963D1*
X997Y1142D1*
X1030Y1131D1*
X1061Y1114D1*
X1088Y1092D1*
X1111Y1065D1*
X1129Y1035D1*
X1141Y1002D1*
X1148Y950D1*
X1145Y915D1*
X1136Y881D1*
X1121Y850D1*
X1100Y821D1*
X1075Y797D1*
X1046Y777D1*
X1015Y763D1*
X981Y755D1*
X946Y752D1*
X911Y756D1*
X877Y766D1*
X846Y782D1*
X818Y803D1*
X794Y828D1*
X775Y857D1*
X762Y890D1*
X754Y924D1*
X752Y959D1*
X757Y993D1*
X768Y1027D1*
X784Y1057D1*
X805Y1085D1*
X831Y1108D1*
X861Y1127D1*
X894Y1140D1*
X928Y1147D1*
X963D1*
X997Y1142D1*
X1030Y1131D1*
X1061Y1114D1*
X1088Y1092D1*
X1111Y1065D1*
X1129Y1035D1*
X1141Y1002D1*
X1148Y950D1*
X1145Y915D1*
X185Y1064D2*
X211Y1088D1*
X241Y1107D1*
X274Y1120D1*
X308Y1127D1*
X343D1*
X377Y1122D1*
X410Y1111D1*
X441Y1094D1*
X468Y1072D1*
X491Y1045D1*
X509Y1015D1*
X521Y982D1*
X528Y930D1*
X525Y895D1*
X516Y861D1*
X501Y830D1*
X480Y801D1*
X455Y777D1*
X426Y757D1*
X395Y743D1*
X361Y735D1*
X326Y732D1*
X291Y736D1*
X257Y746D1*
X226Y762D1*
X198Y783D1*
X185Y796D1*
Y1064D2*
X211Y1088D1*
X241Y1107D1*
X274Y1120D1*
X308Y1127D1*
X343D1*
X377Y1122D1*
X410Y1111D1*
X441Y1094D1*
X468Y1072D1*
X491Y1045D1*
X509Y1015D1*
X521Y982D1*
X528Y930D1*
X525Y895D1*
X516Y861D1*
X501Y830D1*
X480Y801D1*
X455Y777D1*
X426Y757D1*
X395Y743D1*
X361Y735D1*
X326Y732D1*
X291Y736D1*
X257Y746D1*
X226Y762D1*
X198Y783D1*
X185Y796D1*
Y1064D2*
X211Y1088D1*
X241Y1107D1*
X274Y1120D1*
X308Y1127D1*
X343D1*
X377Y1122D1*
X410Y1111D1*
X441Y1094D1*
X468Y1072D1*
X491Y1045D1*
X509Y1015D1*
X521Y982D1*
X528Y930D1*
X525Y895D1*
X516Y861D1*
X501Y830D1*
X480Y801D1*
X455Y777D1*
X426Y757D1*
X395Y743D1*
X361Y735D1*
X326Y732D1*
X291Y736D1*
X257Y746D1*
X226Y762D1*
X198Y783D1*
X185Y796D1*
X1915Y1802D2*
X1650D1*
X1615Y1805D1*
X1581Y1814D1*
X1550Y1829D1*
X1521Y1850D1*
X1497Y1875D1*
X1477Y1904D1*
X1463Y1935D1*
X1455Y1969D1*
X1452Y2004D1*
X1456Y2039D1*
X1466Y2073D1*
X1482Y2104D1*
X1503Y2132D1*
X1528Y2156D1*
X1557Y2175D1*
X1590Y2188D1*
X1624Y2196D1*
X1720Y2198D1*
X1950D1*
X1985Y2195D1*
X2019Y2186D1*
X2050Y2171D1*
X2079Y2150D1*
X2103Y2125D1*
X2123Y2096D1*
X2137Y2065D1*
X2145Y2031D1*
X2148Y1996D1*
X2144Y1961D1*
X2134Y1927D1*
X2118Y1896D1*
X2097Y1868D1*
X2072Y1844D1*
X2043Y1825D1*
X2010Y1812D1*
X1976Y1804D1*
X1915Y1802D1*
X5699Y6656D2*
X6794D1*
X7166D2*
X8418D1*
X5768Y6588D2*
X6639D1*
X6661D2*
X6786D1*
X7174D2*
X8418D1*
X5837Y6519D2*
X6498D1*
X7156D2*
X8418D1*
X5905Y6450D2*
X6462D1*
X7134D2*
X8418D1*
X5974Y6382D2*
X6457D1*
X7134D2*
X8418D1*
X5485Y6313D2*
X5611D1*
X6043D2*
X6477D1*
X7130D2*
X8418D1*
X5010Y6244D2*
X5680D1*
X7090D2*
X8418D1*
X4941Y6175D2*
X5749D1*
X7022D2*
X8418D1*
X4873Y6107D2*
X5818D1*
X6953D2*
X8418D1*
X4804Y6038D2*
X5887D1*
X6883D2*
X8418D1*
X4735Y5969D2*
X8418D1*
X4667Y5901D2*
X8418D1*
X4598Y5832D2*
X5859D1*
X6140D2*
X8418D1*
X4529Y5763D2*
X5817D1*
X6184D2*
X8418D1*
X4460Y5695D2*
X5806D1*
X6195D2*
X8418D1*
X4391Y5626D2*
X5705D1*
X6180D2*
X8418D1*
X4323Y5557D2*
X5633D1*
X6129D2*
X8418D1*
X4255Y5489D2*
X5608D1*
X5993D2*
X8418D1*
X4186Y5420D2*
X5610D1*
X5990D2*
X8418D1*
X4117Y5351D2*
X5497D1*
X5960D2*
X8418D1*
X4048Y5283D2*
X5429D1*
X5994D2*
X8418D1*
X3980Y5214D2*
X5407D1*
X6061D2*
X8418D1*
X3911Y5145D2*
X5411D1*
X6124D2*
X8418D1*
X3842Y5076D2*
X5444D1*
X6145D2*
X8418D1*
X3773Y5008D2*
X5548D1*
X5652D2*
X5835D1*
X6145D2*
X8418D1*
X3704Y4939D2*
X5562D1*
X5739D2*
X5835D1*
X6145D2*
X8418D1*
X3637Y4870D2*
X5484D1*
X6145D2*
X8418D1*
X3568Y4802D2*
X5458D1*
X6145D2*
X7282D1*
X7517D2*
X8418D1*
X3499Y4733D2*
X5459D1*
X6145D2*
X7224D1*
X7575D2*
X8418D1*
X3430Y4664D2*
X5487D1*
X6145D2*
X7206D1*
X7594D2*
X8418D1*
X3361Y4596D2*
X5574D1*
X5727D2*
X5835D1*
X6145D2*
X7213D1*
X7586D2*
X8418D1*
X3330Y4527D2*
X5771D1*
X6145D2*
X6308D1*
X6492D2*
X7252D1*
X7595D2*
X8418D1*
X3280Y4458D2*
X5703D1*
X6126D2*
X6233D1*
X6567D2*
X7265D1*
X7635D2*
X8418D1*
X3125Y4390D2*
X5654D1*
X6066D2*
X6207D1*
X6592D2*
X7256D1*
X7644D2*
X8418D1*
X2355Y4321D2*
X2453D1*
X3153D2*
X3826D1*
X4033D2*
X5645D1*
X5997D2*
X6209D1*
X6591D2*
X7272D1*
X7628D2*
X8418D1*
X2355Y4252D2*
X2683D1*
X3154D2*
X3377D1*
X3459D2*
X3601D1*
X4100D2*
X5645D1*
X5954D2*
X6084D1*
X6560D2*
X7327D1*
X7573D2*
X8418D1*
X2355Y4184D2*
X2625D1*
X3154D2*
X3263D1*
X4122D2*
X5645D1*
X5954D2*
X6024D1*
X6471D2*
X8418D1*
X2355Y4115D2*
X2605D1*
X3154D2*
X3229D1*
X4119D2*
X5645D1*
X5954D2*
X6006D1*
X6394D2*
X8418D1*
X2355Y4046D2*
X2613D1*
X4086D2*
X5645D1*
X5954D2*
X6014D1*
X6386D2*
X8418D1*
X2355Y3977D2*
X2605D1*
X3840D2*
X3879D1*
X3980D2*
X5645D1*
X5954D2*
X6051D1*
X6349D2*
X8418D1*
X2355Y3909D2*
X2565D1*
X3525D2*
X3582D1*
X3765D2*
X5645D1*
X5954D2*
X8418D1*
X2355Y3840D2*
X2555D1*
X3406D2*
X5645D1*
X5954D2*
X8418D1*
X2355Y3771D2*
X2573D1*
X3337D2*
X5645D1*
X5954D2*
X8418D1*
X2355Y3703D2*
X2626D1*
X3305D2*
X5645D1*
X5954D2*
X8418D1*
X2355Y3634D2*
X2575D1*
X3305D2*
X5645D1*
X5954D2*
X8418D1*
X2355Y3565D2*
X2550D1*
X3305D2*
X3475D1*
X3626D2*
X3975D1*
X4126D2*
X4475D1*
X4625D2*
X5645D1*
X5954D2*
X8418D1*
X2355Y3497D2*
X2481D1*
X3765D2*
X3835D1*
X4266D2*
X4335D1*
X4765D2*
X5645D1*
X5954D2*
X8418D1*
X2355Y3428D2*
X2417D1*
X4827D2*
X5645D1*
X5954D2*
X8418D1*
X2355Y3359D2*
X2396D1*
X4861D2*
X5645D1*
X5954D2*
X8418D1*
X2355Y3291D2*
X2394D1*
X4877D2*
X5645D1*
X5954D2*
X8418D1*
X2355Y3222D2*
X2394D1*
X4878D2*
X5645D1*
X5954D2*
X8418D1*
X2355Y3153D2*
X2394D1*
X4865D2*
X5645D1*
X5954D2*
X8418D1*
X2355Y3085D2*
X2394D1*
X4834D2*
X5645D1*
X5954D2*
X7409D1*
X7491D2*
X8418D1*
X2355Y3016D2*
X2394D1*
X3779D2*
X3821D1*
X4279D2*
X4321D1*
X4778D2*
X5645D1*
X5954D2*
X7295D1*
X7605D2*
X8418D1*
X2355Y2947D2*
X2394D1*
X3305D2*
X3431D1*
X3668D2*
X3931D1*
X4168D2*
X4432D1*
X4668D2*
X5645D1*
X5954D2*
X6471D1*
X6608D2*
X7262D1*
X7639D2*
X8418D1*
X2355Y2878D2*
X2394D1*
X3305D2*
X5645D1*
X5954D2*
X6380D1*
X6700D2*
X6906D1*
X7193D2*
X7256D1*
X7643D2*
X8418D1*
X2355Y2810D2*
X2394D1*
X3305D2*
X5645D1*
X5954D2*
X6349D1*
X6731D2*
X6866D1*
X7235D2*
X7278D1*
X7621D2*
X8418D1*
X2355Y2741D2*
X2394D1*
X3305D2*
X5645D1*
X5954D2*
X6347D1*
X6732D2*
X6856D1*
X7245D2*
X7344D1*
X7557D2*
X8418D1*
X2355Y2672D2*
X2394D1*
X3305D2*
X5597D1*
X5954D2*
X6372D1*
X6707D2*
X6872D1*
X7227D2*
X8418D1*
X2355Y2604D2*
X2394D1*
X3298D2*
X5528D1*
X5943D2*
X6446D1*
X6635D2*
X6926D1*
X7175D2*
X8418D1*
X2355Y2535D2*
X2394D1*
X3251D2*
X4313D1*
X4587D2*
X5063D1*
X5337D2*
X5459D1*
X5891D2*
X8418D1*
X2355Y2466D2*
X2394D1*
X3304D2*
X4268D1*
X4633D2*
X5017D1*
X6156D2*
X8418D1*
X2355Y2398D2*
X2394D1*
X3523D2*
X4256D1*
X4645D2*
X5005D1*
X6196D2*
X8418D1*
X2355Y2329D2*
X2394D1*
X6205D2*
X8418D1*
X2355Y2260D2*
X2394D1*
X6187D2*
X8418D1*
X2355Y2192D2*
X2394D1*
X6131D2*
X8418D1*
X2355Y2123D2*
X2394D1*
X5838D2*
X8418D1*
X2355Y2054D2*
X2403D1*
X5771D2*
X8418D1*
X2355Y1986D2*
X2449D1*
X5702D2*
X8418D1*
X2355Y1917D2*
X2517D1*
X5633D2*
X8418D1*
X2355Y1848D2*
X2586D1*
X5564D2*
X8418D1*
X2355Y1779D2*
X2655D1*
X5493D2*
X8418D1*
X2355Y1711D2*
X2724D1*
X3405D2*
X8418D1*
X2355Y1642D2*
X2792D1*
X4397D2*
X5271D1*
X5530D2*
X5720D1*
X5979D2*
X8418D1*
X2355Y1573D2*
X2860D1*
X4492D2*
X5221D1*
X5580D2*
X5670D1*
X6030D2*
X8418D1*
X2355Y1505D2*
X2929D1*
X4561D2*
X5205D1*
X5594D2*
X5638D1*
X6045D2*
X8418D1*
X2355Y1436D2*
X2998D1*
X4630D2*
X5216D1*
X6033D2*
X8418D1*
X2355Y1367D2*
X3045D1*
X4699D2*
X5260D1*
X5989D2*
X8418D1*
X2355Y1299D2*
X3045D1*
X3354D2*
X4336D1*
X5865D2*
X8418D1*
X2355Y1230D2*
X3023D1*
X3376D2*
X4405D1*
X5796D2*
X8418D1*
X2355Y1161D2*
X3006D1*
X3394D2*
X4472D1*
X5727D2*
X8418D1*
X2355Y1093D2*
X3014D1*
X3386D2*
X4541D1*
X5658D2*
X8418D1*
X2355Y1024D2*
X3054D1*
X3346D2*
X8418D1*
X2355Y955D2*
X8418D1*
X2355Y887D2*
X5972D1*
X6028D2*
X8418D1*
X2355Y818D2*
X5847D1*
X6153D2*
X8418D1*
X2355Y749D2*
X5812D1*
X6188D2*
X8418D1*
X2355Y680D2*
X5807D1*
X6194D2*
X8418D1*
X2355Y612D2*
X5828D1*
X6173D2*
X8418D1*
X2355Y543D2*
X5890D1*
X6110D2*
X8418D1*
X2319Y474D2*
X8418D1*
X182Y406D2*
X6127D1*
X6273D2*
X8418D1*
X182Y337D2*
X6039D1*
X6361D2*
X8418D1*
X182Y268D2*
X6009D1*
X6391D2*
X8418D1*
X182Y200D2*
X6008D1*
X6392D2*
X8418D1*
X4635Y2365D2*
X4629Y2347D1*
X5020Y2348D1*
X5015Y2370D1*
X5012Y2405D1*
X5016Y2440D1*
X5027Y2473D1*
X5044Y2504D1*
X5065Y2531D1*
X5092Y2554D1*
X5122Y2571D1*
X5155Y2582D1*
X5190Y2588D1*
X5225Y2586D1*
X5259Y2578D1*
X5291Y2564D1*
X5320Y2545D1*
X5345Y2520D1*
X5364Y2491D1*
X5381Y2449D1*
X5652Y2721D1*
Y4340D1*
X5656Y4375D1*
X5668Y4407D1*
X5695Y4445D1*
X5842Y4591D1*
Y5008D1*
X5759Y5092D1*
X5738Y5063D1*
X5712Y5039D1*
X5682Y5021D1*
X5649Y5009D1*
X5615Y5003D1*
X5580D1*
X5546Y5010D1*
X5513Y5023D1*
X5484Y5042D1*
X5459Y5066D1*
X5438Y5095D1*
X5423Y5126D1*
X5415Y5160D1*
X5412Y5195D1*
X5416Y5230D1*
X5427Y5263D1*
X5444Y5294D1*
X5465Y5321D1*
X5492Y5344D1*
X5522Y5361D1*
X5555Y5372D1*
X5590Y5378D1*
X5632Y5374D1*
X5623Y5396D1*
X5615Y5430D1*
X5612Y5465D1*
X5616Y5500D1*
X5627Y5533D1*
X5644Y5564D1*
X5665Y5591D1*
X5692Y5614D1*
X5722Y5631D1*
X5755Y5642D1*
X5790Y5648D1*
X5819Y5646D1*
X5815Y5670D1*
X5812Y5705D1*
X5816Y5740D1*
X5827Y5773D1*
X5844Y5804D1*
X5865Y5831D1*
X5892Y5854D1*
X5922Y5871D1*
X5955Y5882D1*
X5990Y5888D1*
X6025Y5886D1*
X6059Y5878D1*
X6091Y5864D1*
X6120Y5845D1*
X6145Y5820D1*
X6164Y5791D1*
X6178Y5759D1*
X6186Y5725D1*
X6188Y5700D1*
X6185Y5665D1*
X6175Y5632D1*
X6159Y5600D1*
X6138Y5573D1*
X6112Y5549D1*
X6082Y5531D1*
X6049Y5519D1*
X6015Y5513D1*
X5979D1*
X5986Y5485D1*
X5988Y5460D1*
X5985Y5425D1*
X5975Y5392D1*
X5959Y5360D1*
X5948Y5346D1*
X5954Y5315D1*
X6095Y5175D1*
X6116Y5147D1*
X6131Y5115D1*
X6138Y5070D1*
Y4530D1*
X6134Y4495D1*
X6122Y4463D1*
X6095Y4425D1*
X5948Y4279D1*
Y3570D1*
Y2660D1*
X5944Y2625D1*
X5932Y2593D1*
X5905Y2555D1*
X5837Y2488D1*
X5894D1*
X5932Y2511D1*
X5965Y2522D1*
X6000Y2528D1*
X6035Y2526D1*
X6069Y2518D1*
X6101Y2504D1*
X6130Y2485D1*
X6155Y2460D1*
X6174Y2431D1*
X6188Y2399D1*
X6196Y2365D1*
X6198Y2340D1*
X6195Y2305D1*
X6185Y2272D1*
X6169Y2240D1*
X6148Y2213D1*
X6122Y2189D1*
X6092Y2171D1*
X6059Y2159D1*
X6025Y2153D1*
X5990D1*
X5956Y2160D1*
X5923Y2173D1*
X5899Y2189D1*
X5505Y1795D1*
X5477Y1774D1*
X5445Y1759D1*
X5400Y1752D1*
X3356D1*
X3461Y1648D1*
X3855D1*
X4350D1*
X4385Y1644D1*
X4417Y1632D1*
X4455Y1605D1*
X4712Y1347D1*
X4895Y1348D1*
X5290D1*
X5259Y1376D1*
X5238Y1405D1*
X5223Y1436D1*
X5215Y1470D1*
X5212Y1505D1*
X5216Y1540D1*
X5227Y1573D1*
X5244Y1604D1*
X5265Y1631D1*
X5292Y1654D1*
X5322Y1671D1*
X5355Y1682D1*
X5390Y1688D1*
X5425Y1686D1*
X5459Y1678D1*
X5491Y1664D1*
X5520Y1645D1*
X5545Y1620D1*
X5564Y1591D1*
X5578Y1559D1*
X5586Y1525D1*
X5588Y1500D1*
X5585Y1465D1*
X5576Y1435D1*
X5664Y1523D1*
X5666Y1540D1*
X5677Y1573D1*
X5694Y1604D1*
X5715Y1631D1*
X5742Y1654D1*
X5772Y1671D1*
X5805Y1682D1*
X5840Y1688D1*
X5875Y1686D1*
X5909Y1678D1*
X5941Y1664D1*
X5970Y1645D1*
X5995Y1620D1*
X6014Y1591D1*
X6028Y1559D1*
X6036Y1525D1*
X6038Y1500D1*
X6035Y1465D1*
X6025Y1432D1*
X6009Y1400D1*
X5988Y1373D1*
X5962Y1349D1*
X5932Y1331D1*
X5899Y1319D1*
X5873Y1314D1*
X5655Y1095D1*
X5627Y1074D1*
X5595Y1059D1*
X5550Y1052D1*
X4650D1*
X4615Y1056D1*
X4583Y1068D1*
X4545Y1095D1*
X4288Y1353D1*
X4105Y1352D1*
X3400D1*
X3363Y1357D1*
X3348Y1345D1*
Y1265D1*
X3364Y1241D1*
X3378Y1209D1*
X3386Y1175D1*
X3388Y1150D1*
X3385Y1115D1*
X3375Y1082D1*
X3359Y1050D1*
X3338Y1023D1*
X3312Y999D1*
X3282Y981D1*
X3249Y969D1*
X3215Y963D1*
X3180D1*
X3146Y970D1*
X3113Y983D1*
X3084Y1002D1*
X3059Y1026D1*
X3038Y1055D1*
X3023Y1086D1*
X3015Y1120D1*
X3012Y1155D1*
X3016Y1190D1*
X3027Y1223D1*
X3044Y1254D1*
X3052Y1265D1*
Y1390D1*
X2551Y1890D1*
X2445Y1995D1*
X2424Y2023D1*
X2409Y2055D1*
X2402Y2100D1*
Y3350D1*
X2406Y3385D1*
X2418Y3417D1*
X2445Y3455D1*
X2564Y3573D1*
X2577Y3623D1*
X2594Y3654D1*
X2615Y3681D1*
X2638Y3700D1*
X2609Y3726D1*
X2588Y3755D1*
X2573Y3786D1*
X2565Y3820D1*
X2562Y3855D1*
X2566Y3890D1*
X2577Y3923D1*
X2594Y3954D1*
X2615Y3981D1*
X2640Y4002D1*
X2623Y4036D1*
X2615Y4070D1*
X2612Y4105D1*
X2616Y4140D1*
X2627Y4173D1*
X2644Y4204D1*
X2665Y4231D1*
X2692Y4254D1*
X2732Y4274D1*
X2568D1*
X2534Y4278D1*
X2501Y4290D1*
X2464Y4317D1*
X2347Y4434D1*
X2348Y3985D1*
Y550D1*
X2342Y516D1*
X2324Y486D1*
X2297Y464D1*
X2262Y453D1*
X2110Y452D1*
X175D1*
Y175D1*
X6021D1*
X6015Y200D1*
X6012Y235D1*
X6016Y270D1*
X6027Y303D1*
X6044Y334D1*
X6065Y361D1*
X6092Y384D1*
X6122Y401D1*
X6155Y412D1*
X6190Y418D1*
X6225Y416D1*
X6259Y408D1*
X6291Y394D1*
X6320Y375D1*
X6345Y350D1*
X6364Y321D1*
X6378Y289D1*
X6386Y255D1*
X6388Y230D1*
X6385Y195D1*
X6379Y175D1*
X8425D1*
Y6725D1*
X7120D1*
X7144Y6691D1*
X7158Y6659D1*
X7166Y6625D1*
X7168Y6600D1*
X7165Y6565D1*
X7155Y6532D1*
X7139Y6500D1*
X7128Y6486D1*
Y6350D1*
X7124Y6315D1*
X7112Y6283D1*
X7085Y6245D1*
X6885Y6045D1*
X6857Y6024D1*
X6825Y6009D1*
X6780Y6002D1*
X5990D1*
X5955Y6006D1*
X5923Y6018D1*
X5885Y6045D1*
X5530Y6400D1*
X5525Y6382D1*
X5509Y6350D1*
X5488Y6323D1*
X5462Y6299D1*
X5432Y6281D1*
X5399Y6269D1*
X5365Y6263D1*
X5330D1*
X5296Y6270D1*
X5263Y6283D1*
X5233Y6303D1*
X5060Y6302D1*
X4882Y6123D1*
X3336Y4577D1*
X3325Y4532D1*
X3309Y4500D1*
X3288Y4473D1*
X3262Y4449D1*
X3232Y4431D1*
X3199Y4419D1*
X3165Y4413D1*
X3130D1*
X3085Y4425D1*
X3126Y4377D1*
X3141Y4345D1*
X3148Y4300D1*
Y4006D1*
X3232Y4091D1*
X3234Y4107D1*
X3245Y4141D1*
X3261Y4172D1*
X3283Y4199D1*
X3310Y4221D1*
X3340Y4239D1*
X3373Y4250D1*
X3408Y4255D1*
X3443Y4254D1*
X3477Y4246D1*
X3509Y4232D1*
X3541Y4208D1*
X3566Y4230D1*
X3596Y4247D1*
X3629Y4259D1*
X3664Y4264D1*
X3699Y4263D1*
X3733Y4255D1*
X3762Y4242D1*
X3773Y4264D1*
X3795Y4291D1*
X3822Y4314D1*
X3852Y4331D1*
X3885Y4342D1*
X3920Y4348D1*
X3954Y4346D1*
X3989Y4338D1*
X4021Y4324D1*
X4049Y4305D1*
X4074Y4280D1*
X4094Y4251D1*
X4108Y4219D1*
X4116Y4185D1*
X4117Y4160D1*
X4114Y4125D1*
X4104Y4092D1*
X4089Y4060D1*
X4068Y4033D1*
X4042Y4009D1*
X4012Y3991D1*
X3979Y3979D1*
X3945Y3973D1*
X3910D1*
X3875Y3980D1*
X3842Y3994D1*
X3833Y3977D1*
X3812Y3949D1*
X3786Y3926D1*
X3756Y3907D1*
X3723Y3895D1*
X3689Y3889D1*
X3654Y3890D1*
X3619Y3897D1*
X3587Y3910D1*
X3551Y3935D1*
X3530Y3917D1*
X3500Y3899D1*
X3467Y3887D1*
X3440Y3882D1*
X3297Y3738D1*
X3298Y3451D1*
X3342Y3497D1*
X3370Y3518D1*
X3400Y3536D1*
X3432Y3550D1*
X3465Y3561D1*
X3499Y3569D1*
X3534Y3572D1*
X3569D1*
X3604Y3568D1*
X3638Y3561D1*
X3671Y3549D1*
X3703Y3535D1*
X3732Y3516D1*
X3760Y3495D1*
X3800Y3453D1*
X3816Y3473D1*
X3842Y3497D1*
X3870Y3518D1*
X3900Y3536D1*
X3932Y3550D1*
X3965Y3561D1*
X3999Y3569D1*
X4034Y3572D1*
X4069D1*
X4104Y3568D1*
X4138Y3561D1*
X4171Y3549D1*
X4203Y3535D1*
X4232Y3516D1*
X4260Y3495D1*
X4300Y3453D1*
X4316Y3473D1*
X4342Y3497D1*
X4370Y3518D1*
X4400Y3536D1*
X4432Y3550D1*
X4465Y3561D1*
X4499Y3569D1*
X4534Y3572D1*
X4569D1*
X4604Y3568D1*
X4638Y3561D1*
X4671Y3549D1*
X4703Y3535D1*
X4732Y3516D1*
X4760Y3495D1*
X4785Y3471D1*
X4808Y3444D1*
X4827Y3415D1*
X4844Y3384D1*
X4856Y3351D1*
X4866Y3318D1*
X4871Y3283D1*
X4873Y3250D1*
X4871Y3215D1*
X4865Y3181D1*
X4856Y3147D1*
X4843Y3114D1*
X4827Y3083D1*
X4807Y3055D1*
X4784Y3028D1*
X4759Y3004D1*
X4731Y2983D1*
X4701Y2965D1*
X4669Y2950D1*
X4636Y2939D1*
X4602Y2931D1*
X4567Y2928D1*
X4532D1*
X4497Y2932D1*
X4463Y2939D1*
X4430Y2950D1*
X4398Y2965D1*
X4368Y2983D1*
X4341Y3004D1*
X4300Y3046D1*
X4259Y3004D1*
X4231Y2983D1*
X4201Y2965D1*
X4169Y2950D1*
X4136Y2939D1*
X4102Y2931D1*
X4067Y2928D1*
X4032D1*
X3997Y2932D1*
X3963Y2939D1*
X3930Y2950D1*
X3898Y2965D1*
X3868Y2983D1*
X3841Y3004D1*
X3800Y3046D1*
X3759Y3004D1*
X3731Y2983D1*
X3701Y2965D1*
X3669Y2950D1*
X3636Y2939D1*
X3602Y2931D1*
X3567Y2928D1*
X3532D1*
X3497Y2932D1*
X3463Y2939D1*
X3430Y2950D1*
X3398Y2965D1*
X3368Y2983D1*
X3341Y3004D1*
X3298Y3049D1*
Y2650D1*
X3294Y2615D1*
X3282Y2583D1*
X3255Y2545D1*
X3229Y2520D1*
X3270Y2495D1*
X3295Y2470D1*
X3314Y2441D1*
X3323Y2422D1*
X3355Y2432D1*
X3390Y2438D1*
X3425Y2436D1*
X3459Y2428D1*
X3491Y2414D1*
X3520Y2395D1*
X3545Y2370D1*
X3560Y2347D1*
X4269Y2348D1*
X4265Y2370D1*
X4262Y2405D1*
X4266Y2440D1*
X4277Y2473D1*
X4294Y2504D1*
X4315Y2531D1*
X4342Y2554D1*
X4372Y2571D1*
X4405Y2582D1*
X4440Y2588D1*
X4475Y2586D1*
X4509Y2578D1*
X4541Y2564D1*
X4570Y2545D1*
X4595Y2520D1*
X4614Y2491D1*
X4628Y2459D1*
X4636Y2425D1*
X4638Y2400D1*
X4635Y2365D1*
X6833Y6484D2*
X6818Y6505D1*
X6803Y6536D1*
X6795Y6570D1*
X6792Y6605D1*
X6796Y6640D1*
X6807Y6673D1*
X6824Y6704D1*
X6841Y6725D1*
X5624D1*
X6052Y6297D1*
X6492Y6298D1*
X6473Y6336D1*
X6465Y6370D1*
X6462Y6405D1*
X6466Y6440D1*
X6477Y6473D1*
X6494Y6504D1*
X6515Y6531D1*
X6542Y6554D1*
X6572Y6571D1*
X6605Y6582D1*
X6640Y6588D1*
X6675Y6586D1*
X6709Y6578D1*
X6741Y6564D1*
X6770Y6545D1*
X6795Y6520D1*
X6814Y6491D1*
X6828Y6459D1*
X6832Y6441D1*
Y6485D1*
X6185Y665D2*
X6175Y632D1*
X6159Y600D1*
X6138Y573D1*
X6112Y549D1*
X6082Y531D1*
X6049Y519D1*
X6015Y513D1*
X5980D1*
X5946Y520D1*
X5913Y533D1*
X5884Y552D1*
X5859Y576D1*
X5838Y605D1*
X5823Y636D1*
X5815Y670D1*
X5812Y705D1*
X5816Y740D1*
X5827Y773D1*
X5844Y804D1*
X5865Y831D1*
X5892Y854D1*
X5922Y871D1*
X5955Y882D1*
X5990Y888D1*
X6025Y886D1*
X6059Y878D1*
X6091Y864D1*
X6120Y845D1*
X6145Y820D1*
X6164Y791D1*
X6178Y759D1*
X6186Y725D1*
X6188Y700D1*
X6185Y665D1*
X7635Y4365D2*
X7625Y4332D1*
X7609Y4300D1*
X7588Y4273D1*
X7562Y4249D1*
X7532Y4231D1*
X7499Y4219D1*
X7465Y4213D1*
X7430D1*
X7396Y4220D1*
X7363Y4233D1*
X7334Y4252D1*
X7309Y4276D1*
X7288Y4305D1*
X7273Y4336D1*
X7265Y4370D1*
X7262Y4405D1*
X7266Y4440D1*
X7277Y4473D1*
X7290Y4497D1*
X7259Y4526D1*
X7238Y4555D1*
X7223Y4586D1*
X7215Y4620D1*
X7212Y4655D1*
X7216Y4690D1*
X7227Y4723D1*
X7244Y4754D1*
X7265Y4781D1*
X7292Y4804D1*
X7322Y4821D1*
X7355Y4832D1*
X7390Y4838D1*
X7425Y4836D1*
X7459Y4828D1*
X7491Y4814D1*
X7520Y4795D1*
X7545Y4770D1*
X7564Y4741D1*
X7578Y4709D1*
X7586Y4675D1*
X7588Y4650D1*
X7585Y4615D1*
X7575Y4582D1*
X7560Y4551D1*
X7570Y4545D1*
X7595Y4520D1*
X7614Y4491D1*
X7628Y4459D1*
X7636Y4425D1*
X7638Y4400D1*
X7635Y4365D1*
X7235Y2715D2*
X7225Y2682D1*
X7209Y2650D1*
X7188Y2623D1*
X7162Y2599D1*
X7132Y2581D1*
X7099Y2569D1*
X7065Y2563D1*
X7030D1*
X6996Y2570D1*
X6963Y2583D1*
X6934Y2602D1*
X6909Y2626D1*
X6888Y2655D1*
X6873Y2686D1*
X6865Y2720D1*
X6862Y2755D1*
X6866Y2790D1*
X6877Y2823D1*
X6894Y2854D1*
X6915Y2881D1*
X6942Y2904D1*
X6972Y2921D1*
X7005Y2932D1*
X7040Y2938D1*
X7075Y2936D1*
X7109Y2928D1*
X7141Y2914D1*
X7170Y2895D1*
X7195Y2870D1*
X7214Y2841D1*
X7228Y2809D1*
X7236Y2775D1*
X7238Y2750D1*
X7235Y2715D1*
X6585Y4325D2*
X6575Y4292D1*
X6559Y4260D1*
X6538Y4233D1*
X6512Y4209D1*
X6482Y4191D1*
X6449Y4179D1*
X6415Y4173D1*
X6373Y4175D1*
X6386Y4125D1*
X6388Y4100D1*
X6385Y4065D1*
X6375Y4032D1*
X6359Y4000D1*
X6338Y3973D1*
X6312Y3949D1*
X6282Y3931D1*
X6249Y3919D1*
X6215Y3913D1*
X6180D1*
X6146Y3920D1*
X6113Y3933D1*
X6084Y3952D1*
X6059Y3976D1*
X6038Y4005D1*
X6023Y4036D1*
X6015Y4070D1*
X6012Y4105D1*
X6016Y4140D1*
X6027Y4173D1*
X6044Y4204D1*
X6065Y4231D1*
X6092Y4254D1*
X6122Y4271D1*
X6155Y4282D1*
X6190Y4288D1*
X6228Y4285D1*
X6215Y4330D1*
X6212Y4365D1*
X6216Y4400D1*
X6227Y4433D1*
X6244Y4464D1*
X6265Y4491D1*
X6292Y4514D1*
X6322Y4531D1*
X6355Y4542D1*
X6390Y4548D1*
X6425Y4546D1*
X6459Y4538D1*
X6491Y4524D1*
X6520Y4505D1*
X6545Y4480D1*
X6564Y4451D1*
X6578Y4419D1*
X6586Y4385D1*
X6588Y4360D1*
X6585Y4325D1*
X6725Y2735D2*
X6715Y2702D1*
X6699Y2670D1*
X6678Y2643D1*
X6652Y2619D1*
X6622Y2601D1*
X6589Y2589D1*
X6555Y2583D1*
X6520D1*
X6486Y2590D1*
X6453Y2603D1*
X6424Y2622D1*
X6399Y2646D1*
X6378Y2675D1*
X6363Y2706D1*
X6355Y2740D1*
X6352Y2775D1*
X6356Y2810D1*
X6367Y2843D1*
X6384Y2874D1*
X6405Y2901D1*
X6432Y2924D1*
X6462Y2941D1*
X6495Y2952D1*
X6530Y2958D1*
X6565Y2956D1*
X6599Y2948D1*
X6631Y2934D1*
X6660Y2915D1*
X6685Y2890D1*
X6704Y2861D1*
X6718Y2829D1*
X6726Y2795D1*
X6728Y2770D1*
X6725Y2735D1*
X7635Y2865D2*
X7625Y2832D1*
X7609Y2800D1*
X7588Y2773D1*
X7562Y2749D1*
X7532Y2731D1*
X7499Y2719D1*
X7465Y2713D1*
X7430D1*
X7396Y2720D1*
X7363Y2733D1*
X7334Y2752D1*
X7309Y2776D1*
X7288Y2805D1*
X7273Y2836D1*
X7265Y2870D1*
X7262Y2905D1*
X7266Y2940D1*
X7277Y2973D1*
X7294Y3004D1*
X7315Y3031D1*
X7342Y3054D1*
X7372Y3071D1*
X7405Y3082D1*
X7440Y3088D1*
X7475Y3086D1*
X7509Y3078D1*
X7541Y3064D1*
X7570Y3045D1*
X7595Y3020D1*
X7614Y2991D1*
X7628Y2959D1*
X7636Y2925D1*
X7638Y2900D1*
X7635Y2865D1*
X6021Y176D2*
X6015Y200D1*
X6012Y235D1*
X6016Y270D1*
X6027Y303D1*
X6044Y334D1*
X6065Y361D1*
X6092Y384D1*
X6122Y401D1*
X6155Y412D1*
X6190Y418D1*
X6225Y416D1*
X6259Y408D1*
X6291Y394D1*
X6320Y375D1*
X6345Y350D1*
X6364Y321D1*
X6378Y289D1*
X6386Y255D1*
X6388Y230D1*
X6385Y195D1*
X6379Y175D1*
X5835Y4735D2*
X5825Y4702D1*
X5809Y4670D1*
X5788Y4643D1*
X5762Y4619D1*
X5732Y4601D1*
X5699Y4589D1*
X5665Y4583D1*
X5630D1*
X5596Y4590D1*
X5563Y4603D1*
X5534Y4622D1*
X5509Y4646D1*
X5488Y4675D1*
X5473Y4706D1*
X5465Y4740D1*
X5462Y4775D1*
X5466Y4810D1*
X5477Y4843D1*
X5494Y4874D1*
X5515Y4901D1*
X5542Y4924D1*
X5572Y4941D1*
X5605Y4952D1*
X5640Y4958D1*
X5675Y4956D1*
X5709Y4948D1*
X5741Y4934D1*
X5770Y4915D1*
X5795Y4890D1*
X5814Y4861D1*
X5828Y4829D1*
X5836Y4795D1*
X5838Y4770D1*
X5835Y4735D1*
X5825Y4702D1*
X5809Y4670D1*
X5788Y4643D1*
X5762Y4619D1*
X5732Y4601D1*
X5699Y4589D1*
X5665Y4583D1*
X5630D1*
X5596Y4590D1*
X5563Y4603D1*
X5534Y4622D1*
X5509Y4646D1*
X5488Y4675D1*
X5473Y4706D1*
X5465Y4740D1*
X5462Y4775D1*
X5466Y4810D1*
X5477Y4843D1*
X5494Y4874D1*
X5515Y4901D1*
X5542Y4924D1*
X5572Y4941D1*
X5605Y4952D1*
X5640Y4958D1*
X5675Y4956D1*
X5709Y4948D1*
X5741Y4934D1*
X5770Y4915D1*
X5795Y4890D1*
X5814Y4861D1*
X5828Y4829D1*
X5836Y4795D1*
X5838Y4770D1*
X5835Y4735D1*
X5825Y4702D1*
X5809Y4670D1*
X5788Y4643D1*
X5762Y4619D1*
X5732Y4601D1*
X5699Y4589D1*
X5665Y4583D1*
X5630D1*
X5596Y4590D1*
X5563Y4603D1*
X5534Y4622D1*
X5509Y4646D1*
X5488Y4675D1*
X5473Y4706D1*
X5465Y4740D1*
X5462Y4775D1*
X5466Y4810D1*
X5477Y4843D1*
X5494Y4874D1*
X5515Y4901D1*
X5542Y4924D1*
X5572Y4941D1*
X5605Y4952D1*
X5640Y4958D1*
X5675Y4956D1*
X5709Y4948D1*
X5741Y4934D1*
X5770Y4915D1*
X5795Y4890D1*
X5814Y4861D1*
X5828Y4829D1*
X5836Y4795D1*
X5838Y4770D1*
X5835Y4735D1*
X5825Y4702D1*
X5809Y4670D1*
X5788Y4643D1*
X5762Y4619D1*
X5732Y4601D1*
X5699Y4589D1*
X5665Y4583D1*
X5630D1*
X5596Y4590D1*
X5563Y4603D1*
X5534Y4622D1*
X5509Y4646D1*
X5488Y4675D1*
X5473Y4706D1*
X5465Y4740D1*
X5462Y4775D1*
X5466Y4810D1*
X5477Y4843D1*
X5494Y4874D1*
X5515Y4901D1*
X5542Y4924D1*
X5572Y4941D1*
X5605Y4952D1*
X5640Y4958D1*
X5675Y4956D1*
X5709Y4948D1*
X5741Y4934D1*
X5770Y4915D1*
X5795Y4890D1*
X5814Y4861D1*
X5828Y4829D1*
X5836Y4795D1*
X5838Y4770D1*
X5835Y4735D1*
X5825Y4702D1*
X5809Y4670D1*
X5788Y4643D1*
X5762Y4619D1*
X5732Y4601D1*
X5699Y4589D1*
X5665Y4583D1*
X5630D1*
X5596Y4590D1*
X5563Y4603D1*
X5534Y4622D1*
X5509Y4646D1*
X5488Y4675D1*
X5473Y4706D1*
X5465Y4740D1*
X5462Y4775D1*
X5466Y4810D1*
X5477Y4843D1*
X5494Y4874D1*
X5515Y4901D1*
X5542Y4924D1*
X5572Y4941D1*
X5605Y4952D1*
X5640Y4958D1*
X5675Y4956D1*
X5709Y4948D1*
X5741Y4934D1*
X5770Y4915D1*
X5795Y4890D1*
X5814Y4861D1*
X5828Y4829D1*
X5836Y4795D1*
X5838Y4770D1*
X5835Y4735D1*
M02*
