G04 DipTrace Beta 2.3.5.2*
%INMinimOSD_MK2.GBS*%
%MOIN*%
%ADD24R,0.1181X0.063*%
%ADD25R,0.05X0.025*%
%ADD28R,0.0394X0.0433*%
%ADD29R,0.0433X0.0394*%
%ADD43R,0.022X0.05*%
%ADD44R,0.05X0.022*%
%ADD45R,0.0197X0.0256*%
%FSLAX44Y44*%
G04*
G70*
G90*
G75*
G01*
%LNBotMask*%
%LPD*%
D24*
X700Y6350D3*
Y2450D3*
Y1450D3*
Y450D3*
Y3450D3*
Y4450D3*
Y5450D3*
D28*
X5235Y1085D3*
Y415D3*
D29*
X4000Y6450D3*
X3331D3*
X3650Y1000D3*
X4319D3*
X4000Y5950D3*
X3331D3*
X3700Y450D3*
X4369D3*
D43*
X2900Y5050D3*
X3215D3*
X3530D3*
X3845D3*
X4160D3*
X4475D3*
X4790D3*
X5105D3*
D44*
X5692Y4462D3*
Y4147D3*
Y3832D3*
Y3517D3*
Y3203D3*
Y2888D3*
Y2573D3*
Y2258D3*
D43*
X5105Y1670D3*
X4790D3*
X4475D3*
X4160D3*
X3845D3*
X3530D3*
X3215D3*
X2900D3*
D44*
X2312Y2258D3*
Y2573D3*
Y2888D3*
Y3203D3*
Y3517D3*
Y3832D3*
Y4147D3*
Y4462D3*
D45*
X6024Y5419D3*
X6339D3*
X6654D3*
X6969D3*
Y4926D3*
X6654D3*
X6339D3*
X6024D3*
G36*
X5985Y1632D2*
X6007Y1618D1*
X6033Y1615D1*
X6058Y1623D1*
X6077Y1642D1*
X6085Y1667D1*
X6082Y1693D1*
X6068Y1715D1*
X5915Y1868D1*
X5893Y1882D1*
X5867Y1885D1*
X5842Y1877D1*
X5823Y1858D1*
X5815Y1833D1*
X5818Y1807D1*
X5832Y1785D1*
X5985Y1632D1*
G37*
G36*
X6124Y1771D2*
X6146Y1757D1*
X6172Y1754D1*
X6197Y1763D1*
X6216Y1781D1*
X6224Y1806D1*
X6221Y1832D1*
X6208Y1854D1*
X6054Y2008D1*
X6032Y2021D1*
X6006Y2024D1*
X5981Y2016D1*
X5963Y1997D1*
X5954Y1972D1*
X5957Y1946D1*
X5971Y1924D1*
X6124Y1771D1*
G37*
G36*
X6263Y1910D2*
X6285Y1896D1*
X6312Y1893D1*
X6336Y1902D1*
X6355Y1920D1*
X6364Y1945D1*
X6361Y1971D1*
X6347Y1994D1*
X6194Y2147D1*
X6171Y2161D1*
X6145Y2164D1*
X6120Y2155D1*
X6102Y2136D1*
X6093Y2112D1*
X6096Y2085D1*
X6110Y2063D1*
X6263Y1910D1*
G37*
G36*
X6402Y2049D2*
X6425Y2035D1*
X6451Y2032D1*
X6476Y2041D1*
X6494Y2060D1*
X6503Y2084D1*
X6500Y2111D1*
X6486Y2133D1*
X6333Y2286D1*
X6311Y2300D1*
X6284Y2303D1*
X6260Y2294D1*
X6241Y2276D1*
X6232Y2251D1*
X6235Y2225D1*
X6249Y2202D1*
X6402Y2049D1*
G37*
G36*
X6542Y2188D2*
X6564Y2174D1*
X6590Y2172D1*
X6615Y2180D1*
X6633Y2199D1*
X6642Y2224D1*
X6639Y2250D1*
X6625Y2272D1*
X6472Y2425D1*
X6450Y2439D1*
X6424Y2442D1*
X6399Y2433D1*
X6380Y2415D1*
X6372Y2390D1*
X6374Y2364D1*
X6388Y2342D1*
X6542Y2188D1*
G37*
G36*
X6681Y2328D2*
X6703Y2314D1*
X6729Y2311D1*
X6754Y2319D1*
X6773Y2338D1*
X6781Y2363D1*
X6778Y2389D1*
X6764Y2411D1*
X6611Y2564D1*
X6589Y2578D1*
X6563Y2581D1*
X6538Y2573D1*
X6519Y2554D1*
X6511Y2529D1*
X6514Y2503D1*
X6528Y2481D1*
X6681Y2328D1*
G37*
G36*
X6820Y2467D2*
X6842Y2453D1*
X6868Y2450D1*
X6893Y2459D1*
X6912Y2477D1*
X6920Y2502D1*
X6917Y2528D1*
X6903Y2550D1*
X6750Y2703D1*
X6728Y2717D1*
X6702Y2720D1*
X6677Y2712D1*
X6659Y2693D1*
X6650Y2668D1*
X6653Y2642D1*
X6667Y2620D1*
X6820Y2467D1*
G37*
G36*
X7460Y2620D2*
X7474Y2642D1*
X7477Y2668D1*
X7469Y2693D1*
X7450Y2712D1*
X7425Y2720D1*
X7399Y2717D1*
X7377Y2703D1*
X7224Y2550D1*
X7210Y2528D1*
X7207Y2502D1*
X7215Y2477D1*
X7234Y2459D1*
X7259Y2450D1*
X7285Y2453D1*
X7307Y2467D1*
X7460Y2620D1*
G37*
G36*
X7599Y2481D2*
X7613Y2503D1*
X7616Y2529D1*
X7608Y2554D1*
X7589Y2573D1*
X7564Y2581D1*
X7538Y2578D1*
X7516Y2564D1*
X7363Y2411D1*
X7349Y2389D1*
X7346Y2363D1*
X7355Y2338D1*
X7373Y2319D1*
X7398Y2311D1*
X7424Y2314D1*
X7446Y2328D1*
X7599Y2481D1*
G37*
G36*
X7739Y2342D2*
X7753Y2364D1*
X7756Y2390D1*
X7747Y2415D1*
X7728Y2433D1*
X7704Y2442D1*
X7677Y2439D1*
X7655Y2425D1*
X7502Y2272D1*
X7488Y2250D1*
X7485Y2224D1*
X7494Y2199D1*
X7512Y2180D1*
X7537Y2172D1*
X7563Y2174D1*
X7586Y2188D1*
X7739Y2342D1*
G37*
G36*
X7878Y2202D2*
X7892Y2225D1*
X7895Y2251D1*
X7886Y2276D1*
X7868Y2294D1*
X7843Y2303D1*
X7817Y2300D1*
X7794Y2286D1*
X7641Y2133D1*
X7627Y2111D1*
X7624Y2084D1*
X7633Y2060D1*
X7652Y2041D1*
X7676Y2032D1*
X7702Y2035D1*
X7725Y2049D1*
X7878Y2202D1*
G37*
G36*
X8017Y2063D2*
X8031Y2085D1*
X8034Y2112D1*
X8025Y2136D1*
X8007Y2155D1*
X7982Y2164D1*
X7956Y2161D1*
X7934Y2147D1*
X7780Y1994D1*
X7766Y1971D1*
X7763Y1945D1*
X7772Y1920D1*
X7791Y1902D1*
X7816Y1893D1*
X7842Y1896D1*
X7864Y1910D1*
X8017Y2063D1*
G37*
G36*
X8156Y1924D2*
X8170Y1946D1*
X8173Y1972D1*
X8164Y1997D1*
X8146Y2016D1*
X8121Y2024D1*
X8095Y2021D1*
X8073Y2008D1*
X7920Y1854D1*
X7906Y1832D1*
X7903Y1806D1*
X7911Y1781D1*
X7930Y1763D1*
X7955Y1754D1*
X7981Y1757D1*
X8003Y1771D1*
X8156Y1924D1*
G37*
G36*
X8295Y1785D2*
X8309Y1807D1*
X8312Y1833D1*
X8304Y1858D1*
X8285Y1877D1*
X8260Y1885D1*
X8234Y1882D1*
X8212Y1868D1*
X8059Y1715D1*
X8045Y1693D1*
X8042Y1667D1*
X8051Y1642D1*
X8069Y1623D1*
X8094Y1615D1*
X8120Y1618D1*
X8142Y1632D1*
X8295Y1785D1*
G37*
G36*
X8212Y1075D2*
X8234Y1061D1*
X8260Y1058D1*
X8285Y1067D1*
X8304Y1085D1*
X8312Y1110D1*
X8309Y1136D1*
X8295Y1158D1*
X8142Y1312D1*
X8120Y1326D1*
X8094Y1328D1*
X8069Y1320D1*
X8051Y1301D1*
X8042Y1276D1*
X8045Y1250D1*
X8059Y1228D1*
X8212Y1075D1*
G37*
G36*
X8073Y936D2*
X8095Y922D1*
X8121Y919D1*
X8146Y927D1*
X8164Y946D1*
X8173Y971D1*
X8170Y997D1*
X8156Y1019D1*
X8003Y1172D1*
X7981Y1186D1*
X7955Y1189D1*
X7930Y1181D1*
X7911Y1162D1*
X7903Y1137D1*
X7906Y1111D1*
X7920Y1089D1*
X8073Y936D1*
G37*
G36*
X7934Y797D2*
X7956Y783D1*
X7982Y780D1*
X8007Y788D1*
X8025Y807D1*
X8034Y832D1*
X8031Y858D1*
X8017Y880D1*
X7864Y1033D1*
X7842Y1047D1*
X7816Y1050D1*
X7791Y1041D1*
X7772Y1023D1*
X7763Y998D1*
X7766Y972D1*
X7780Y950D1*
X7934Y797D1*
G37*
G36*
X7794Y657D2*
X7817Y643D1*
X7843Y640D1*
X7868Y649D1*
X7886Y668D1*
X7895Y692D1*
X7892Y719D1*
X7878Y741D1*
X7725Y894D1*
X7702Y908D1*
X7676Y911D1*
X7652Y902D1*
X7633Y884D1*
X7624Y859D1*
X7627Y833D1*
X7641Y810D1*
X7794Y657D1*
G37*
G36*
X7655Y518D2*
X7677Y504D1*
X7704Y501D1*
X7728Y510D1*
X7747Y528D1*
X7756Y553D1*
X7753Y579D1*
X7739Y602D1*
X7586Y755D1*
X7563Y769D1*
X7537Y772D1*
X7512Y763D1*
X7494Y744D1*
X7485Y720D1*
X7488Y693D1*
X7502Y671D1*
X7655Y518D1*
G37*
G36*
X7516Y379D2*
X7538Y365D1*
X7564Y362D1*
X7589Y371D1*
X7608Y389D1*
X7616Y414D1*
X7613Y440D1*
X7599Y462D1*
X7446Y616D1*
X7424Y630D1*
X7398Y632D1*
X7373Y624D1*
X7355Y605D1*
X7346Y580D1*
X7349Y554D1*
X7363Y532D1*
X7516Y379D1*
G37*
G36*
X7377Y240D2*
X7399Y226D1*
X7425Y223D1*
X7450Y231D1*
X7469Y250D1*
X7477Y275D1*
X7474Y301D1*
X7460Y323D1*
X7307Y476D1*
X7285Y490D1*
X7259Y493D1*
X7234Y485D1*
X7215Y466D1*
X7207Y441D1*
X7210Y415D1*
X7224Y393D1*
X7377Y240D1*
G37*
G36*
X6903Y393D2*
X6917Y415D1*
X6920Y441D1*
X6912Y466D1*
X6893Y485D1*
X6868Y493D1*
X6842Y490D1*
X6820Y476D1*
X6667Y323D1*
X6653Y301D1*
X6650Y275D1*
X6659Y250D1*
X6677Y231D1*
X6702Y223D1*
X6728Y226D1*
X6750Y240D1*
X6903Y393D1*
G37*
G36*
X6764Y532D2*
X6778Y554D1*
X6781Y580D1*
X6773Y605D1*
X6754Y624D1*
X6729Y632D1*
X6703Y630D1*
X6681Y616D1*
X6528Y462D1*
X6514Y440D1*
X6511Y414D1*
X6519Y389D1*
X6538Y371D1*
X6563Y362D1*
X6589Y365D1*
X6611Y379D1*
X6764Y532D1*
G37*
G36*
X6625Y671D2*
X6639Y693D1*
X6642Y720D1*
X6633Y744D1*
X6615Y763D1*
X6590Y772D1*
X6564Y769D1*
X6542Y755D1*
X6388Y602D1*
X6374Y579D1*
X6372Y553D1*
X6380Y528D1*
X6399Y510D1*
X6424Y501D1*
X6450Y504D1*
X6472Y518D1*
X6625Y671D1*
G37*
G36*
X6486Y810D2*
X6500Y833D1*
X6503Y859D1*
X6494Y884D1*
X6476Y902D1*
X6451Y911D1*
X6425Y908D1*
X6402Y894D1*
X6249Y741D1*
X6235Y719D1*
X6232Y692D1*
X6241Y668D1*
X6260Y649D1*
X6284Y640D1*
X6311Y643D1*
X6333Y657D1*
X6486Y810D1*
G37*
G36*
X6347Y950D2*
X6361Y972D1*
X6364Y998D1*
X6355Y1023D1*
X6336Y1041D1*
X6312Y1050D1*
X6285Y1047D1*
X6263Y1033D1*
X6110Y880D1*
X6096Y858D1*
X6093Y832D1*
X6102Y807D1*
X6120Y788D1*
X6145Y780D1*
X6171Y783D1*
X6194Y797D1*
X6347Y950D1*
G37*
G36*
X6208Y1089D2*
X6221Y1111D1*
X6224Y1137D1*
X6216Y1162D1*
X6197Y1181D1*
X6172Y1189D1*
X6146Y1186D1*
X6124Y1172D1*
X5971Y1019D1*
X5957Y997D1*
X5954Y971D1*
X5963Y946D1*
X5981Y927D1*
X6006Y919D1*
X6032Y922D1*
X6054Y936D1*
X6208Y1089D1*
G37*
G36*
X6068Y1228D2*
X6082Y1250D1*
X6085Y1276D1*
X6077Y1301D1*
X6058Y1320D1*
X6033Y1328D1*
X6007Y1326D1*
X5985Y1312D1*
X5832Y1158D1*
X5818Y1136D1*
X5815Y1110D1*
X5823Y1085D1*
X5842Y1067D1*
X5867Y1058D1*
X5893Y1061D1*
X5915Y1075D1*
X6068Y1228D1*
G37*
G36*
X7064Y497D2*
X6089Y1472D1*
X7064Y2446D1*
X8038Y1472D1*
X7064Y497D1*
G37*
D25*
X2350Y6400D3*
Y6046D3*
G36*
X4788Y5615D2*
X4512D1*
Y6285D1*
X4788D1*
Y5615D1*
G37*
G36*
X5260D2*
X4985D1*
Y6285D1*
X5260D1*
Y5615D1*
G37*
G36*
X5733D2*
X5457D1*
Y6285D1*
X5733D1*
Y5615D1*
G37*
M02*
