G04 DipTrace Beta 2.3.5.2*
%INMinimOSD_MK2.GBL*%
%MOIN*%
%ADD13C,0.01*%
%ADD14C,0.015*%
%ADD15C,0.006*%
%ADD16C,0.025*%
%ADD17C,0.018*%
%ADD19C,0.007*%
%ADD24R,0.1181X0.063*%
%ADD25R,0.05X0.025*%
%ADD28R,0.0394X0.0433*%
%ADD29R,0.0433X0.0394*%
%ADD43R,0.022X0.05*%
%ADD44R,0.05X0.022*%
%ADD45R,0.0197X0.0256*%
%ADD48C,0.045*%
%FSLAX44Y44*%
G04*
G70*
G90*
G75*
G01*
%LNBottom*%
%LPD*%
X700Y3860D2*
D14*
Y3450D1*
Y3860D2*
D13*
X670D1*
X580Y3770D1*
Y3570D1*
X700Y3450D1*
Y3860D2*
X720D1*
X810Y3770D1*
Y3560D1*
X700Y3450D1*
Y4450D2*
D14*
X1060D1*
X1320Y4710D1*
X2120D1*
X2350Y4940D1*
Y6046D1*
X1500Y4100D2*
X1150Y4450D1*
X700D1*
X1850Y3850D2*
D17*
X1700D1*
X1550D1*
Y4050D1*
D16*
X1500Y4100D1*
Y4050D1*
X1548Y4002D1*
D17*
X1700Y3850D1*
X1500Y4100D2*
D16*
X1600D1*
X1698Y4002D1*
D17*
X1850Y3850D1*
X1950Y850D2*
X1800D1*
X1650D1*
X1550Y3850D2*
X950Y4450D1*
X700D1*
X6228Y2028D2*
D13*
X6785Y1472D1*
X7064D1*
X7200Y1350D2*
D15*
X7078Y1472D1*
X7064D1*
X5050Y5850D2*
D13*
X5122Y5922D1*
Y5950D1*
X3845Y1670D2*
Y1195D1*
X3650Y1000D1*
X3331Y6450D2*
D14*
Y5950D1*
X3530Y5050D2*
Y5470D1*
X3350Y5650D1*
Y5931D1*
X3331Y5950D1*
X4160Y5050D2*
Y5340D1*
X4030Y5470D1*
X3530D1*
X3331Y6450D2*
D15*
X3100D1*
X3020Y6370D1*
X3331Y6450D2*
X3120D1*
X3020Y6550D1*
Y6370D2*
D17*
Y6550D1*
X3231D1*
X3331Y6450D1*
X3020Y6370D2*
X3251D1*
X3331Y6450D1*
X300Y1940D2*
D14*
Y2120D1*
X630Y2450D1*
X700D1*
X960Y2190D1*
Y1950D1*
X2930Y1140D2*
D17*
X2770D1*
X5950Y1193D2*
D13*
X5841Y1085D1*
X5235D1*
X5950Y1193D2*
X5850Y1293D1*
Y1500D1*
X1390Y5900D2*
Y5940D1*
X980Y6350D1*
X700D1*
X1390Y5900D2*
X1370D1*
X1020Y6250D1*
X800D1*
X700Y6350D1*
X1390Y5900D2*
X1030Y6260D1*
X6024Y5419D2*
Y5460D1*
X5800D1*
X6010Y2340D2*
X5928Y2258D1*
X5692D1*
X5200Y2400D2*
X5373Y2573D1*
X5692D1*
X6507Y2307D2*
X6350Y2464D1*
Y3050D1*
X7450Y4150D1*
Y4400D1*
X4790Y5050D2*
Y5510D1*
X4670Y5630D1*
Y5930D1*
X4650Y5950D1*
X5105Y5050D2*
X5080D1*
Y5200D1*
X5595Y5715D1*
Y5950D1*
X6785Y2585D2*
X7050D1*
X7342D1*
X7050Y2750D2*
Y2585D1*
X6339Y5419D2*
X6350Y5430D1*
Y5350D1*
X6190Y5190D1*
X5600D1*
X6654Y5419D2*
Y5546D1*
X6500Y5700D1*
X6000D1*
X4160Y1670D2*
D14*
Y1220D1*
X4380Y1000D1*
X4319D1*
X6650Y6400D2*
D13*
X6969Y6081D1*
Y5419D1*
X7400Y4650D2*
X7250Y4500D1*
Y4200D1*
X6200Y3150D1*
Y2335D1*
X6368Y2168D1*
X6540Y2770D2*
Y2552D1*
X6646Y2446D1*
X7450Y2900D2*
X7600Y2750D1*
Y2565D1*
X7481Y2446D1*
X3700Y450D2*
Y350D1*
X3900Y150D1*
X5000D1*
X5235Y385D1*
Y415D1*
X2750Y3550D2*
X2650D1*
X2600Y3500D1*
X2330D1*
X2312Y3517D1*
X3200Y1150D2*
Y750D1*
X3550Y400D1*
X3700D1*
Y450D1*
X6228Y915D2*
X6014Y700D1*
X6000D1*
X2312Y3832D2*
X2330Y3850D1*
X2750D1*
X950Y950D2*
X700Y700D1*
Y450D1*
X950Y950D2*
X1200Y670D1*
X1060Y810D1*
X700Y450D1*
X950Y820D2*
Y700D1*
X700Y450D1*
X950Y950D2*
Y860D1*
X870Y780D1*
Y620D1*
X700Y450D1*
X950Y950D2*
Y874D1*
X1014Y810D1*
X1060D1*
X5400Y1500D2*
D14*
X5230Y1670D1*
X5105D1*
X6200Y4100D2*
X6153Y4147D1*
X5692D1*
X6368Y776D2*
D13*
X6200Y608D1*
Y230D1*
X330Y930D2*
X700Y1300D1*
Y1450D1*
X2312Y4147D2*
X2360Y4100D1*
X2800D1*
X330Y930D2*
Y1080D1*
X700Y1450D1*
X330Y930D2*
Y980D1*
X480Y1130D1*
Y1230D1*
X700Y1450D1*
X330Y930D2*
X290D1*
Y1110D1*
X360D1*
X700Y1450D1*
X2370Y6680D2*
D14*
Y6400D1*
X2350D1*
X4000Y6450D2*
Y5950D1*
X4790Y1670D2*
Y2400D1*
X5150Y2760D1*
Y4520D1*
X4680D1*
X4475Y4725D1*
Y5050D1*
X3845D2*
Y4655D1*
X3980Y4520D1*
X4680D1*
X4790Y1670D2*
Y790D1*
X4450Y450D1*
X4369D1*
X4350Y6450D2*
X4000D1*
X6969Y4926D2*
D13*
X6654D1*
X6339D1*
X6024D1*
D14*
Y4950D1*
X5831D1*
X5749D1*
X5664D1*
X5580D1*
X5493Y4863D1*
X5445Y4815D1*
X5400Y4770D1*
X5150Y4520D1*
X4000Y5950D2*
Y5870D1*
X4475Y5395D1*
Y5050D1*
X5650Y4770D2*
D13*
X5585D1*
X5489D1*
X5445Y4815D1*
X5650Y4770D2*
Y4936D1*
X5664Y4950D1*
X5585Y4770D2*
X5493Y4863D1*
X5650Y4770D2*
Y4800D1*
X5590Y4860D1*
X5565D1*
X5527Y4897D1*
D14*
X5580Y4950D1*
X5650Y4770D2*
D13*
Y4851D1*
X5749Y4950D1*
X5650Y4770D2*
X5831Y4950D1*
X5489Y4770D2*
X5400D1*
X2000Y5050D2*
D16*
X1700D1*
X1300Y5450D1*
X700D1*
X1700Y5050D2*
D17*
D3*
X1650Y2000D2*
X1800D1*
X1950D1*
X2312Y4462D2*
D13*
X2325Y4450D1*
X2780D1*
X3040Y4190D1*
Y2460D1*
X3150Y2350D1*
X2550Y4850D2*
Y4700D1*
X2312Y4462D1*
D17*
X1500Y4100D3*
D3*
D3*
D3*
D3*
X7200Y1350D3*
X5050Y5850D3*
X5850Y1500D3*
X1390Y5900D3*
D3*
D3*
X5800Y5460D3*
X3400Y2250D3*
X3150Y4600D3*
X5350Y6450D3*
X3418Y4068D3*
X6010Y2340D3*
X3930Y4160D3*
X2850Y6200D3*
X7450Y4400D3*
X7050Y2750D3*
X6400Y4360D3*
X4550Y6650D3*
X5600Y5190D3*
X6000Y5700D3*
X6650Y6400D3*
X7400Y4650D3*
X6540Y2770D3*
X7450Y2900D3*
X2750Y3550D3*
Y3850D3*
X950Y950D3*
D3*
D3*
D3*
X3674Y4076D3*
X6200Y4100D3*
Y230D3*
X330Y930D3*
X2800Y4100D3*
X6200Y230D3*
X330Y930D3*
D3*
D3*
X2370Y6680D3*
X4350Y6450D3*
X2370Y6680D3*
X4350Y6450D3*
X5650Y4770D3*
D3*
D3*
D3*
D3*
X1700Y5050D3*
D3*
D3*
D3*
X2550Y4850D3*
X4450Y2400D3*
X5200D3*
X1850Y5050D3*
X2000D3*
X3150Y2350D3*
X1650Y2000D3*
X1800D3*
X1950D3*
X1550Y3850D3*
X6980Y6600D3*
X1700Y3850D3*
X1850D3*
X1650Y850D3*
X1800D3*
X1950D3*
X3200Y1150D3*
X5400Y1500D3*
D48*
X3550Y3250D3*
X4050D3*
X4550D3*
D17*
X6000Y700D3*
X3020Y6550D3*
Y6370D3*
X5800Y6700D3*
X700Y3860D3*
X6800Y1260D3*
X7610Y1250D3*
X8360Y200D3*
X7870Y190D3*
X8370Y2150D3*
Y2490D3*
X8380Y690D3*
X6470Y180D3*
X7380Y6600D3*
X7480Y5170D3*
X300Y1940D3*
X960Y1950D3*
X2770Y1140D3*
X2930D3*
X2573Y6656D2*
D19*
X2999D1*
X4754D2*
X6784D1*
X7176D2*
X8418D1*
X2715Y6588D2*
X2999D1*
X4745D2*
X5201D1*
X5499D2*
X6581D1*
X6719D2*
X6776D1*
X7185D2*
X8418D1*
X2715Y6519D2*
X2999D1*
X4705D2*
X5158D1*
X5542D2*
X6485D1*
X7167D2*
X8418D1*
X2715Y6450D2*
X2999D1*
X4554D2*
X5145D1*
X5555D2*
X6452D1*
X7116D2*
X8418D1*
X2715Y6382D2*
X2765D1*
X2936D2*
X2999D1*
X4842D2*
X4931D1*
X5787D2*
X6447D1*
X6898D2*
X8418D1*
X5844Y6313D2*
X6465D1*
X6967D2*
X8418D1*
X5847Y6244D2*
X6521D1*
X7036D2*
X8418D1*
X5847Y6175D2*
X6645D1*
X7102D2*
X8418D1*
X5847Y6107D2*
X6714D1*
X7131D2*
X8418D1*
X5847Y6038D2*
X6781D1*
X7133D2*
X8418D1*
X2715Y5969D2*
X2999D1*
X5847D2*
X6804D1*
X7133D2*
X8418D1*
X2715Y5901D2*
X2999D1*
X5847D2*
X6804D1*
X7133D2*
X8418D1*
X2715Y5832D2*
X2999D1*
X6593D2*
X6804D1*
X7133D2*
X8418D1*
X2540Y5763D2*
X2999D1*
X6666D2*
X6804D1*
X7133D2*
X8418D1*
X2540Y5695D2*
X2999D1*
X6735D2*
X6804D1*
X7133D2*
X8418D1*
X2540Y5626D2*
X3979D1*
X7181D2*
X8418D1*
X2540Y5557D2*
X4047D1*
X7181D2*
X8418D1*
X2540Y5489D2*
X4116D1*
X4955D2*
X5139D1*
X7181D2*
X8418D1*
X2540Y5420D2*
X4185D1*
X4955D2*
X5070D1*
X7181D2*
X8418D1*
X2540Y5351D2*
X2675D1*
X7181D2*
X8418D1*
X2540Y5283D2*
X2675D1*
X7181D2*
X8418D1*
X2540Y5214D2*
X2675D1*
X7181D2*
X8418D1*
X2540Y5145D2*
X2675D1*
X7181D2*
X8418D1*
X2540Y5076D2*
X2675D1*
X7181D2*
X8418D1*
X7181Y5008D2*
X8418D1*
X7181Y4939D2*
X8418D1*
X7181Y4870D2*
X8418D1*
X7181Y4802D2*
X7266D1*
X7534D2*
X8418D1*
X7586Y4733D2*
X8418D1*
X2710Y4664D2*
X2957D1*
X3343D2*
X3655D1*
X6057D2*
X7184D1*
X7604D2*
X8418D1*
X2847Y4596D2*
X2946D1*
X3354D2*
X3665D1*
X6057D2*
X7117D1*
X7597D2*
X8418D1*
X3340Y4527D2*
X3708D1*
X6057D2*
X6287D1*
X6513D2*
X7088D1*
X7608D2*
X8418D1*
X3295Y4458D2*
X3777D1*
X6057D2*
X6221D1*
X6579D2*
X7085D1*
X7646D2*
X8418D1*
X3070Y4390D2*
X3845D1*
X6057D2*
X6197D1*
X6603D2*
X7085D1*
X7654D2*
X8418D1*
X3139Y4321D2*
X3807D1*
X4051D2*
X4960D1*
X6601D2*
X7085D1*
X7639D2*
X8418D1*
X3191Y4252D2*
X3339D1*
X3496D2*
X3577D1*
X4111D2*
X4960D1*
X6572D2*
X7072D1*
X7615D2*
X8418D1*
X3205Y4184D2*
X3251D1*
X4133D2*
X4960D1*
X6496D2*
X7003D1*
X7615D2*
X8418D1*
X4129Y4115D2*
X4960D1*
X6404D2*
X6934D1*
X7610D2*
X8418D1*
X4098Y4046D2*
X4960D1*
X6397D2*
X6867D1*
X7575D2*
X8418D1*
X4013Y3977D2*
X4960D1*
X6362D2*
X6798D1*
X7507D2*
X8418D1*
X3205Y3909D2*
X3293D1*
X3785D2*
X4960D1*
X6057D2*
X6143D1*
X6257D2*
X6729D1*
X7438D2*
X8418D1*
X6057Y3840D2*
X6660D1*
X7370D2*
X8418D1*
X6057Y3771D2*
X6591D1*
X7302D2*
X8418D1*
X6057Y3703D2*
X6523D1*
X7233D2*
X8418D1*
X1405Y3634D2*
X1948D1*
X6057D2*
X6454D1*
X7164D2*
X8418D1*
X1405Y3565D2*
X1948D1*
X6057D2*
X6385D1*
X7095D2*
X8418D1*
X1405Y3497D2*
X1948D1*
X6057D2*
X6317D1*
X7026D2*
X8418D1*
X1405Y3428D2*
X1948D1*
X6057D2*
X6248D1*
X6958D2*
X8418D1*
X1405Y3359D2*
X1948D1*
X2809D2*
X2876D1*
X6057D2*
X6180D1*
X6889D2*
X8418D1*
X1405Y3291D2*
X1948D1*
X2677D2*
X2876D1*
X6057D2*
X6111D1*
X6821D2*
X8418D1*
X1405Y3222D2*
X1948D1*
X2677D2*
X2876D1*
X6752D2*
X8418D1*
X1405Y3153D2*
X1948D1*
X2677D2*
X2876D1*
X6683D2*
X8418D1*
X1405Y3085D2*
X1948D1*
X2677D2*
X2876D1*
X6615D2*
X7372D1*
X7528D2*
X8418D1*
X182Y3016D2*
X1948D1*
X2677D2*
X2876D1*
X6546D2*
X7283D1*
X7617D2*
X8418D1*
X182Y2947D2*
X1948D1*
X2677D2*
X2876D1*
X6635D2*
X7251D1*
X7648D2*
X8418D1*
X182Y2878D2*
X1948D1*
X2677D2*
X2876D1*
X6712D2*
X6893D1*
X7208D2*
X7246D1*
X7701D2*
X8418D1*
X1405Y2810D2*
X1948D1*
X2677D2*
X2876D1*
X6791D2*
X6855D1*
X7752D2*
X8418D1*
X1405Y2741D2*
X1948D1*
X2677D2*
X2876D1*
X3205D2*
X4866D1*
X7764D2*
X8418D1*
X1405Y2672D2*
X1948D1*
X2677D2*
X2876D1*
X3205D2*
X4797D1*
X7764D2*
X8418D1*
X1405Y2604D2*
X1948D1*
X2677D2*
X2876D1*
X3205D2*
X4728D1*
X7764D2*
X8418D1*
X1405Y2535D2*
X1948D1*
X2677D2*
X2876D1*
X3226D2*
X4299D1*
X4601D2*
X4659D1*
X7771D2*
X8418D1*
X1405Y2466D2*
X1948D1*
X2677D2*
X2876D1*
X3317D2*
X4257D1*
X7849D2*
X8418D1*
X1405Y2398D2*
X1948D1*
X2677D2*
X2889D1*
X3538D2*
X4245D1*
X7904D2*
X8418D1*
X1405Y2329D2*
X1948D1*
X2677D2*
X2941D1*
X3588D2*
X4258D1*
X7986D2*
X8418D1*
X1405Y2260D2*
X1948D1*
X2677D2*
X2966D1*
X3605D2*
X4303D1*
X8039D2*
X8418D1*
X1405Y2192D2*
X1595D1*
X2677D2*
X3024D1*
X3596D2*
X4600D1*
X8124D2*
X8418D1*
X1405Y2123D2*
X1489D1*
X2677D2*
X3242D1*
X3559D2*
X4600D1*
X8172D2*
X8418D1*
X1405Y2054D2*
X1453D1*
X2677D2*
X3366D1*
X3434D2*
X4600D1*
X8263D2*
X8418D1*
X182Y1986D2*
X1446D1*
X2155D2*
X2675D1*
X8307D2*
X8418D1*
X182Y1917D2*
X1464D1*
X2136D2*
X2675D1*
X1405Y1848D2*
X1516D1*
X2083D2*
X2675D1*
X1405Y1779D2*
X2675D1*
X1405Y1711D2*
X2675D1*
X8380D2*
X8417D1*
X1405Y1642D2*
X2675D1*
X8312D2*
X8418D1*
X1405Y1573D2*
X2675D1*
X8243D2*
X8418D1*
X1405Y1505D2*
X2675D1*
X8147D2*
X8418D1*
X1405Y1436D2*
X2675D1*
X8146D2*
X8418D1*
X1405Y1367D2*
X2675D1*
X8246D2*
X8418D1*
X1405Y1299D2*
X3063D1*
X8315D2*
X8418D1*
X1405Y1230D2*
X3012D1*
X8382D2*
X8418D1*
X1405Y1161D2*
X2996D1*
X1405Y1093D2*
X3004D1*
X1141Y1024D2*
X1549D1*
X2051D2*
X3035D1*
X1164Y955D2*
X1476D1*
X2124D2*
X3035D1*
X8299D2*
X8418D1*
X1225Y887D2*
X1448D1*
X2151D2*
X3035D1*
X8261D2*
X8418D1*
X1405Y818D2*
X1448D1*
X2152D2*
X3035D1*
X8166D2*
X8418D1*
X1405Y749D2*
X1473D1*
X2127D2*
X3035D1*
X8123D2*
X8418D1*
X1405Y680D2*
X1541D1*
X2058D2*
X3052D1*
X8031D2*
X8418D1*
X1405Y612D2*
X3109D1*
X7985D2*
X8418D1*
X1405Y543D2*
X3177D1*
X7898D2*
X8418D1*
X1405Y474D2*
X3245D1*
X7848D2*
X8418D1*
X1405Y406D2*
X3314D1*
X7763D2*
X8418D1*
X1405Y337D2*
X3369D1*
X6373D2*
X6418D1*
X7002D2*
X7125D1*
X7709D2*
X8418D1*
X1405Y268D2*
X3369D1*
X6401D2*
X6497D1*
X6939D2*
X7189D1*
X7630D2*
X8418D1*
X1405Y200D2*
X3369D1*
X6403D2*
X6556D1*
X6870D2*
X7257D1*
X7571D2*
X8418D1*
X175Y2873D2*
X1398D1*
Y2027D1*
X175D1*
Y1872D1*
X387Y1873D1*
X1398D1*
Y1027D1*
X1133D1*
X1141Y1002D1*
X1147Y966D1*
X1230Y873D1*
X1398D1*
X1400Y175D1*
X3376D1*
Y352D1*
X3088Y638D1*
X3067Y666D1*
X3051Y697D1*
X3042Y744D1*
Y1031D1*
X3025Y1057D1*
X3012Y1090D1*
X3004Y1124D1*
X3002Y1159D1*
X3007Y1193D1*
X3018Y1227D1*
X3034Y1257D1*
X3055Y1285D1*
X3088Y1312D1*
X2682D1*
Y2028D1*
X3118Y2027D1*
X3102Y2028D1*
X3433Y2027D1*
X3417Y2028D1*
X3748Y2027D1*
X3753Y2028D1*
X4378Y2027D1*
X4362Y2028D1*
X4608D1*
X4607Y2230D1*
Y2279D1*
X4575Y2247D1*
X4546Y2227D1*
X4515Y2213D1*
X4481Y2205D1*
X4446Y2202D1*
X4411Y2206D1*
X4377Y2216D1*
X4346Y2232D1*
X4318Y2253D1*
X4294Y2278D1*
X4275Y2307D1*
X4262Y2340D1*
X4254Y2374D1*
X4252Y2409D1*
X4257Y2443D1*
X4268Y2477D1*
X4284Y2507D1*
X4305Y2535D1*
X4331Y2558D1*
X4361Y2577D1*
X4394Y2590D1*
X4428Y2597D1*
X4463D1*
X4497Y2592D1*
X4530Y2581D1*
X4561Y2564D1*
X4588Y2542D1*
X4611Y2515D1*
X4628Y2486D1*
X4660Y2529D1*
X4873Y2742D1*
X3197D1*
X3198Y2580D1*
Y2542D1*
X3230Y2531D1*
X3261Y2514D1*
X3288Y2492D1*
X3311Y2465D1*
X3329Y2434D1*
X3344Y2440D1*
X3378Y2447D1*
X3413D1*
X3447Y2442D1*
X3480Y2431D1*
X3511Y2414D1*
X3538Y2392D1*
X3561Y2365D1*
X3579Y2335D1*
X3591Y2302D1*
X3598Y2250D1*
X3595Y2215D1*
X3586Y2181D1*
X3571Y2150D1*
X3550Y2121D1*
X3525Y2097D1*
X3496Y2077D1*
X3465Y2063D1*
X3431Y2055D1*
X3396Y2052D1*
X3361Y2056D1*
X3327Y2066D1*
X3296Y2082D1*
X3268Y2103D1*
X3244Y2128D1*
X3221Y2166D1*
X3181Y2155D1*
X3146Y2152D1*
X3111Y2156D1*
X3077Y2166D1*
X3046Y2182D1*
X3018Y2203D1*
X2994Y2228D1*
X2975Y2257D1*
X2962Y2290D1*
X2954Y2323D1*
X2928Y2348D1*
X2907Y2376D1*
X2891Y2407D1*
X2882Y2454D1*
Y3404D1*
X2846Y3377D1*
X2815Y3363D1*
X2781Y3355D1*
X2746Y3352D1*
X2711Y3356D1*
X2681Y3365D1*
X2672Y3360D1*
X2670Y3315D1*
X2669Y2985D1*
X2670Y3000D1*
X2669Y2670D1*
X2670Y2685D1*
X2669Y2355D1*
X2670Y2370D1*
Y2040D1*
X2144D1*
X2148Y1996D1*
X2144Y1961D1*
X2134Y1927D1*
X2118Y1896D1*
X2097Y1868D1*
X2072Y1844D1*
X2043Y1825D1*
X2010Y1812D1*
X1976Y1804D1*
X1880Y1802D1*
X1650D1*
X1615Y1805D1*
X1581Y1814D1*
X1550Y1829D1*
X1521Y1850D1*
X1497Y1875D1*
X1477Y1904D1*
X1463Y1935D1*
X1455Y1969D1*
X1452Y2004D1*
X1456Y2039D1*
X1466Y2073D1*
X1482Y2104D1*
X1503Y2132D1*
X1528Y2156D1*
X1557Y2175D1*
X1590Y2188D1*
X1624Y2196D1*
X1720Y2198D1*
X1951D1*
X1955Y2215D1*
X1956Y2475D1*
X1955Y2460D1*
X1956Y2790D1*
X1955Y2775D1*
X1956Y3105D1*
X1955Y3090D1*
X1956Y3420D1*
X1955Y3405D1*
Y3681D1*
X1915Y3663D1*
X1881Y3655D1*
X1850Y3652D1*
X1550D1*
X1515Y3655D1*
X1481Y3664D1*
X1450Y3679D1*
X1418Y3703D1*
X1399Y3722D1*
X1398Y3027D1*
X174D1*
X175Y2872D1*
X3676Y6145D2*
Y6495D1*
Y6726D1*
X3655Y6725D1*
Y5645D1*
X3006D1*
Y6079D1*
X2975Y6047D1*
X2946Y6027D1*
X2915Y6013D1*
X2881Y6005D1*
X2846Y6002D1*
X2811Y6006D1*
X2777Y6016D1*
X2746Y6032D1*
X2718Y6053D1*
X2707Y6065D1*
X2708Y5813D1*
X2532D1*
X2533Y5696D1*
Y5047D1*
X2563D1*
X2597Y5042D1*
X2630Y5031D1*
X2661Y5014D1*
X2682Y4996D1*
Y5408D1*
X3118Y5407D1*
X3102Y5408D1*
X3433Y5407D1*
X3438Y5408D1*
X4063Y5407D1*
X4068Y5408D1*
X4204D1*
X3966Y5646D1*
X3676Y5645D1*
X3677Y6255D1*
X3655D1*
Y6143D1*
X3006Y6321D2*
Y6725D1*
X2561D1*
X2568Y6680D1*
X2562Y6634D1*
X2708Y6633D1*
Y6336D1*
X2731Y6358D1*
X2761Y6377D1*
X2794Y6390D1*
X2828Y6397D1*
X2863D1*
X2897Y6392D1*
X2930Y6381D1*
X2961Y6364D1*
X2988Y6342D1*
X3006Y6321D1*
X7175Y6565D2*
X7166Y6531D1*
X7151Y6500D1*
X7130Y6471D1*
X7105Y6447D1*
X7076Y6427D1*
X7045Y6413D1*
X7011Y6405D1*
X6976Y6402D1*
X6941Y6406D1*
X6907Y6416D1*
X6876Y6432D1*
X6848Y6453D1*
X6837Y6465D1*
X6845Y6427D1*
X7080Y6193D1*
X7102Y6166D1*
X7117Y6134D1*
X7126Y6087D1*
Y5654D1*
X7175D1*
Y5183D1*
X6762Y5184D1*
X6650Y5183D1*
X6447Y5184D1*
X6406Y5183D1*
X6412Y5162D1*
X6545Y5161D1*
X6657Y5162D1*
X6860Y5161D1*
X6972Y5162D1*
X7175D1*
Y4691D1*
X6762Y4692D1*
X6650Y4691D1*
X6447Y4692D1*
X6335Y4691D1*
X6132Y4692D1*
X6020Y4691D1*
X5830D1*
X5860Y4680D1*
X6050D1*
Y4329D1*
X6153Y4330D1*
X6178Y4328D1*
X6204Y4334D1*
X6202Y4369D1*
X6207Y4403D1*
X6218Y4437D1*
X6234Y4467D1*
X6255Y4495D1*
X6281Y4518D1*
X6311Y4537D1*
X6344Y4550D1*
X6378Y4557D1*
X6413D1*
X6447Y4552D1*
X6480Y4541D1*
X6511Y4524D1*
X6538Y4502D1*
X6561Y4475D1*
X6579Y4445D1*
X6591Y4412D1*
X6598Y4360D1*
X6595Y4325D1*
X6586Y4291D1*
X6571Y4260D1*
X6550Y4231D1*
X6525Y4207D1*
X6496Y4187D1*
X6465Y4173D1*
X6431Y4165D1*
X6388Y4163D1*
X6397Y4118D1*
X6395Y4065D1*
X6386Y4031D1*
X6371Y4000D1*
X6350Y3971D1*
X6325Y3947D1*
X6296Y3927D1*
X6265Y3913D1*
X6231Y3905D1*
X6196Y3902D1*
X6161Y3906D1*
X6127Y3916D1*
X6096Y3932D1*
X6068Y3953D1*
X6057Y3965D1*
X6050Y3945D1*
X6049Y3615D1*
X6050Y3630D1*
X6049Y3300D1*
X6050Y3315D1*
Y3198D1*
X6057Y3218D1*
X6084Y3257D1*
X7093Y4266D1*
X7092Y4410D1*
Y4500D1*
X7096Y4535D1*
X7107Y4568D1*
X7134Y4607D1*
X7204Y4677D1*
X7218Y4727D1*
X7234Y4757D1*
X7255Y4785D1*
X7281Y4808D1*
X7311Y4827D1*
X7344Y4840D1*
X7378Y4847D1*
X7413D1*
X7447Y4842D1*
X7480Y4831D1*
X7511Y4814D1*
X7538Y4792D1*
X7561Y4765D1*
X7579Y4735D1*
X7591Y4702D1*
X7598Y4650D1*
X7595Y4615D1*
X7586Y4581D1*
X7573Y4555D1*
X7588Y4542D1*
X7611Y4515D1*
X7629Y4485D1*
X7641Y4452D1*
X7648Y4400D1*
X7645Y4365D1*
X7636Y4331D1*
X7621Y4300D1*
X7607Y4281D1*
X7608Y4150D1*
X7604Y4115D1*
X7593Y4082D1*
X7566Y4043D1*
X6507Y2984D1*
X6508Y2966D1*
X6553Y2967D1*
X6587Y2962D1*
X6620Y2951D1*
X6651Y2934D1*
X6678Y2912D1*
X6701Y2885D1*
X6719Y2855D1*
X6730Y2825D1*
X6757Y2821D1*
X6789Y2806D1*
X6823Y2783D1*
X6852Y2754D1*
X6857Y2793D1*
X6868Y2827D1*
X6884Y2857D1*
X6905Y2885D1*
X6931Y2908D1*
X6961Y2927D1*
X6994Y2940D1*
X7028Y2947D1*
X7063D1*
X7097Y2942D1*
X7130Y2931D1*
X7161Y2914D1*
X7188Y2892D1*
X7211Y2865D1*
X7229Y2835D1*
X7241Y2802D1*
X7248Y2750D1*
X7247Y2742D1*
X7263Y2743D1*
X7296Y2776D1*
X7275Y2807D1*
X7262Y2840D1*
X7254Y2874D1*
X7252Y2909D1*
X7257Y2943D1*
X7268Y2977D1*
X7284Y3007D1*
X7305Y3035D1*
X7331Y3058D1*
X7361Y3077D1*
X7394Y3090D1*
X7428Y3097D1*
X7463D1*
X7497Y3092D1*
X7530Y3081D1*
X7561Y3064D1*
X7588Y3042D1*
X7611Y3015D1*
X7629Y2985D1*
X7641Y2952D1*
X7645Y2927D1*
X7712Y2862D1*
X7733Y2834D1*
X7749Y2803D1*
X7758Y2756D1*
X7757Y2551D1*
X7756Y2538D1*
X7780Y2528D1*
X7808Y2506D1*
X7834Y2478D1*
X7850Y2446D1*
X7860Y2417D1*
X7865Y2408D1*
X7903Y2396D1*
X7934Y2379D1*
X7962Y2352D1*
X7983Y2323D1*
X7999Y2279D1*
X8005Y2269D1*
X8042Y2257D1*
X8073Y2240D1*
X8102Y2213D1*
X8122Y2184D1*
X8138Y2140D1*
X8144Y2130D1*
X8181Y2118D1*
X8212Y2101D1*
X8241Y2073D1*
X8261Y2045D1*
X8277Y2001D1*
X8283Y1991D1*
X8321Y1978D1*
X8351Y1962D1*
X8380Y1934D1*
X8400Y1906D1*
X8414Y1869D1*
X8420Y1834D1*
X8417Y1795D1*
X8407Y1761D1*
X8387Y1727D1*
X8372Y1709D1*
X8218Y1555D1*
X8185Y1531D1*
X8162Y1518D1*
X8144Y1513D1*
X8139Y1508D1*
X8145Y1481D1*
X8144Y1453D1*
X8138Y1432D1*
X8157Y1427D1*
X8192Y1407D1*
X8219Y1388D1*
X8372Y1234D1*
X8396Y1201D1*
X8409Y1178D1*
X8417Y1144D1*
X8420Y1105D1*
X8412Y1070D1*
X8398Y1034D1*
X8376Y1006D1*
X8348Y979D1*
X8316Y963D1*
X8287Y954D1*
X8279Y948D1*
X8266Y910D1*
X8250Y880D1*
X8222Y851D1*
X8194Y831D1*
X8149Y815D1*
X8139Y809D1*
X8127Y771D1*
X8110Y741D1*
X8083Y712D1*
X8055Y692D1*
X8010Y676D1*
X8000Y670D1*
X7988Y632D1*
X7971Y601D1*
X7944Y573D1*
X7915Y553D1*
X7871Y536D1*
X7861Y530D1*
X7849Y493D1*
X7832Y462D1*
X7805Y434D1*
X7776Y413D1*
X7732Y397D1*
X7722Y391D1*
X7709Y354D1*
X7693Y323D1*
X7665Y294D1*
X7637Y274D1*
X7593Y258D1*
X7583Y252D1*
X7570Y214D1*
X7554Y184D1*
X7546Y175D1*
X8425D1*
Y6725D1*
X7133D1*
X7159Y6685D1*
X7171Y6652D1*
X7178Y6600D1*
X7175Y6565D1*
X6793Y6537D2*
X6784Y6574D1*
X6782Y6609D1*
X6787Y6643D1*
X6798Y6677D1*
X6814Y6707D1*
X6828Y6726D1*
X6010Y6725D1*
X4734D1*
X4741Y6702D1*
X4748Y6650D1*
X4745Y6615D1*
X4736Y6581D1*
X4721Y6550D1*
X4700Y6521D1*
X4675Y6497D1*
X4646Y6477D1*
X4615Y6463D1*
X4581Y6455D1*
X4547Y6452D1*
X4545Y6415D1*
X4539Y6393D1*
X4788Y6392D1*
X4822Y6387D1*
X4853Y6371D1*
X4880Y6339D1*
X4890Y6337D1*
X4907Y6359D1*
X4929Y6377D1*
X4954Y6388D1*
X4985Y6392D1*
X5161D1*
X5154Y6424D1*
X5152Y6459D1*
X5157Y6493D1*
X5168Y6527D1*
X5184Y6557D1*
X5205Y6585D1*
X5231Y6608D1*
X5261Y6627D1*
X5294Y6640D1*
X5328Y6647D1*
X5363D1*
X5397Y6642D1*
X5430Y6631D1*
X5461Y6614D1*
X5488Y6592D1*
X5511Y6565D1*
X5529Y6535D1*
X5541Y6502D1*
X5548Y6450D1*
X5545Y6415D1*
X5539Y6393D1*
X5733Y6392D1*
X5767Y6387D1*
X5798Y6371D1*
X5822Y6345D1*
X5838Y6308D1*
X5840Y6250D1*
Y5818D1*
X5855Y5835D1*
X5881Y5858D1*
X5911Y5877D1*
X5944Y5890D1*
X5978Y5897D1*
X6013D1*
X6047Y5892D1*
X6080Y5881D1*
X6119Y5857D1*
X6500Y5858D1*
X6535Y5854D1*
X6568Y5843D1*
X6607Y5816D1*
X6766Y5657D1*
X6811Y5654D1*
Y5874D1*
Y6017D1*
X6623Y6204D1*
X6577Y6216D1*
X6546Y6232D1*
X6518Y6253D1*
X6494Y6278D1*
X6475Y6307D1*
X6462Y6340D1*
X6454Y6374D1*
X6452Y6409D1*
X6457Y6443D1*
X6468Y6477D1*
X6484Y6507D1*
X6505Y6535D1*
X6531Y6558D1*
X6561Y6577D1*
X6594Y6590D1*
X6628Y6597D1*
X6663D1*
X6697Y6592D1*
X6730Y6581D1*
X6761Y6564D1*
X6793Y6536D1*
X2975Y4692D2*
X2708D1*
X2700Y4653D1*
X2686Y4620D1*
X2692Y4631D1*
X2710Y4608D1*
X2780D1*
X2815Y4604D1*
X2848Y4593D1*
X2887Y4566D1*
X3152Y4302D1*
X3173Y4274D1*
X3189Y4243D1*
X3198Y4196D1*
Y3867D1*
X4717Y3868D1*
X4968D1*
X4967Y4338D1*
X4765Y4337D1*
X4016D1*
X4041Y4324D1*
X4068Y4302D1*
X4090Y4275D1*
X4108Y4245D1*
X4120Y4212D1*
X4127Y4160D1*
X4124Y4125D1*
X4115Y4091D1*
X4100Y4060D1*
X4080Y4031D1*
X4055Y4007D1*
X4026Y3987D1*
X3994Y3973D1*
X3960Y3965D1*
X3925Y3962D1*
X3890Y3966D1*
X3846Y3981D1*
X3824Y3948D1*
X3799Y3923D1*
X3770Y3904D1*
X3738Y3889D1*
X3704Y3881D1*
X3669Y3879D1*
X3635Y3882D1*
X3601Y3892D1*
X3570Y3908D1*
X3551Y3922D1*
X3514Y3895D1*
X3482Y3881D1*
X3448Y3872D1*
X3413Y3870D1*
X3379Y3874D1*
X3345Y3884D1*
X3314Y3899D1*
X3286Y3920D1*
X3262Y3946D1*
X3243Y3975D1*
X3229Y4007D1*
X3222Y4041D1*
X3220Y4076D1*
X3225Y4111D1*
X3235Y4144D1*
X3252Y4175D1*
X3273Y4203D1*
X3299Y4226D1*
X3329Y4244D1*
X3361Y4257D1*
X3396Y4264D1*
X3431Y4265D1*
X3465Y4260D1*
X3498Y4248D1*
X3529Y4231D1*
X3540Y4222D1*
X3585Y4253D1*
X3617Y4266D1*
X3652Y4273D1*
X3686Y4274D1*
X3721Y4268D1*
X3757Y4255D1*
X3785Y4295D1*
X3811Y4318D1*
X3841Y4337D1*
X3873Y4350D1*
X3902Y4355D1*
X3890Y4361D1*
X3851Y4391D1*
X3716Y4526D1*
X3693Y4553D1*
X3677Y4584D1*
X3666Y4617D1*
X3662Y4655D1*
Y4693D1*
X3629Y4692D1*
X3324D1*
X3341Y4652D1*
X3348Y4600D1*
X3345Y4565D1*
X3336Y4531D1*
X3321Y4500D1*
X3300Y4471D1*
X3275Y4447D1*
X3246Y4427D1*
X3215Y4413D1*
X3181Y4405D1*
X3146Y4402D1*
X3111Y4406D1*
X3077Y4416D1*
X3046Y4432D1*
X3018Y4453D1*
X2994Y4478D1*
X2975Y4507D1*
X2962Y4540D1*
X2954Y4574D1*
X2952Y4609D1*
X2957Y4643D1*
X2968Y4677D1*
X2976Y4693D1*
X4947Y5408D2*
X5008Y5407D1*
X4992Y5408D1*
X5065D1*
X5164Y5507D1*
X4978Y5508D1*
X4950Y5513D1*
X4947Y5514D1*
X4948Y5409D1*
X4992Y5408D1*
X7123Y350D2*
X7110Y373D1*
X7105Y392D1*
X7100Y396D1*
X7073Y390D1*
X7045Y391D1*
X7023Y397D1*
X7019Y379D1*
X6999Y343D1*
X6980Y317D1*
X6838Y175D1*
X7290D1*
X7147Y317D1*
X7123Y350D1*
X6551Y231D2*
X6546Y248D1*
X6540Y257D1*
X6502Y269D1*
X6472Y286D1*
X6443Y313D1*
X6423Y341D1*
X6407Y386D1*
X6401Y396D1*
X6362Y409D1*
X6358Y398D1*
Y349D1*
X6379Y315D1*
X6391Y282D1*
X6398Y230D1*
X6395Y195D1*
X6389Y175D1*
X6581D1*
X6567Y194D1*
X6551Y231D1*
X1915Y652D2*
X1650D1*
X1615Y655D1*
X1581Y664D1*
X1550Y679D1*
X1521Y700D1*
X1497Y725D1*
X1477Y754D1*
X1463Y785D1*
X1455Y819D1*
X1452Y854D1*
X1456Y889D1*
X1466Y923D1*
X1482Y954D1*
X1503Y982D1*
X1528Y1006D1*
X1557Y1025D1*
X1590Y1038D1*
X1624Y1046D1*
X1720Y1048D1*
X1950D1*
X1985Y1045D1*
X2019Y1036D1*
X2050Y1021D1*
X2079Y1000D1*
X2103Y975D1*
X2123Y946D1*
X2137Y915D1*
X2145Y881D1*
X2148Y846D1*
X2144Y811D1*
X2134Y777D1*
X2118Y746D1*
X2097Y718D1*
X2072Y694D1*
X2043Y675D1*
X2010Y662D1*
X1976Y654D1*
X1915Y652D1*
X700Y2873D2*
D14*
Y2027D1*
Y2450D2*
X1398D1*
X3007Y6450D2*
X3655D1*
X3331Y5950D2*
Y5645D1*
X3007Y5950D2*
X3655D1*
X3530Y5408D2*
Y4692D1*
X4160Y5408D2*
Y5050D1*
X3845Y2028D2*
Y1670D1*
X7064Y1472D2*
Y390D1*
Y1472D2*
X8146D1*
X5122Y6392D2*
Y5508D1*
D24*
X700Y6350D3*
Y2450D3*
Y1450D3*
Y450D3*
Y3450D3*
Y4450D3*
Y5450D3*
D28*
X5235Y1085D3*
Y415D3*
D29*
X4000Y6450D3*
X3331D3*
X3650Y1000D3*
X4319D3*
X4000Y5950D3*
X3331D3*
X3700Y450D3*
X4369D3*
D43*
X2900Y5050D3*
X3215D3*
X3530D3*
X3845D3*
X4160D3*
X4475D3*
X4790D3*
X5105D3*
D44*
X5692Y4462D3*
Y4147D3*
Y3832D3*
Y3517D3*
Y3203D3*
Y2888D3*
Y2573D3*
Y2258D3*
D43*
X5105Y1670D3*
X4790D3*
X4475D3*
X4160D3*
X3845D3*
X3530D3*
X3215D3*
X2900D3*
D44*
X2312Y2258D3*
Y2573D3*
Y2888D3*
Y3203D3*
Y3517D3*
Y3832D3*
Y4147D3*
Y4462D3*
D45*
X6024Y5419D3*
X6339D3*
X6654D3*
X6969D3*
Y4926D3*
X6654D3*
X6339D3*
X6024D3*
G36*
X5985Y1632D2*
X6007Y1618D1*
X6033Y1615D1*
X6058Y1623D1*
X6077Y1642D1*
X6085Y1667D1*
X6082Y1693D1*
X6068Y1715D1*
X5915Y1868D1*
X5893Y1882D1*
X5867Y1885D1*
X5842Y1877D1*
X5823Y1858D1*
X5815Y1833D1*
X5818Y1807D1*
X5832Y1785D1*
X5985Y1632D1*
G37*
G36*
X6124Y1771D2*
X6146Y1757D1*
X6172Y1754D1*
X6197Y1763D1*
X6216Y1781D1*
X6224Y1806D1*
X6221Y1832D1*
X6208Y1854D1*
X6054Y2008D1*
X6032Y2021D1*
X6006Y2024D1*
X5981Y2016D1*
X5963Y1997D1*
X5954Y1972D1*
X5957Y1946D1*
X5971Y1924D1*
X6124Y1771D1*
G37*
G36*
X6263Y1910D2*
X6285Y1896D1*
X6312Y1893D1*
X6336Y1902D1*
X6355Y1920D1*
X6364Y1945D1*
X6361Y1971D1*
X6347Y1994D1*
X6194Y2147D1*
X6171Y2161D1*
X6145Y2164D1*
X6120Y2155D1*
X6102Y2136D1*
X6093Y2112D1*
X6096Y2085D1*
X6110Y2063D1*
X6263Y1910D1*
G37*
G36*
X6402Y2049D2*
X6425Y2035D1*
X6451Y2032D1*
X6476Y2041D1*
X6494Y2060D1*
X6503Y2084D1*
X6500Y2111D1*
X6486Y2133D1*
X6333Y2286D1*
X6311Y2300D1*
X6284Y2303D1*
X6260Y2294D1*
X6241Y2276D1*
X6232Y2251D1*
X6235Y2225D1*
X6249Y2202D1*
X6402Y2049D1*
G37*
G36*
X6542Y2188D2*
X6564Y2174D1*
X6590Y2172D1*
X6615Y2180D1*
X6633Y2199D1*
X6642Y2224D1*
X6639Y2250D1*
X6625Y2272D1*
X6472Y2425D1*
X6450Y2439D1*
X6424Y2442D1*
X6399Y2433D1*
X6380Y2415D1*
X6372Y2390D1*
X6374Y2364D1*
X6388Y2342D1*
X6542Y2188D1*
G37*
G36*
X6681Y2328D2*
X6703Y2314D1*
X6729Y2311D1*
X6754Y2319D1*
X6773Y2338D1*
X6781Y2363D1*
X6778Y2389D1*
X6764Y2411D1*
X6611Y2564D1*
X6589Y2578D1*
X6563Y2581D1*
X6538Y2573D1*
X6519Y2554D1*
X6511Y2529D1*
X6514Y2503D1*
X6528Y2481D1*
X6681Y2328D1*
G37*
G36*
X6820Y2467D2*
X6842Y2453D1*
X6868Y2450D1*
X6893Y2459D1*
X6912Y2477D1*
X6920Y2502D1*
X6917Y2528D1*
X6903Y2550D1*
X6750Y2703D1*
X6728Y2717D1*
X6702Y2720D1*
X6677Y2712D1*
X6659Y2693D1*
X6650Y2668D1*
X6653Y2642D1*
X6667Y2620D1*
X6820Y2467D1*
G37*
G36*
X7460Y2620D2*
X7474Y2642D1*
X7477Y2668D1*
X7469Y2693D1*
X7450Y2712D1*
X7425Y2720D1*
X7399Y2717D1*
X7377Y2703D1*
X7224Y2550D1*
X7210Y2528D1*
X7207Y2502D1*
X7215Y2477D1*
X7234Y2459D1*
X7259Y2450D1*
X7285Y2453D1*
X7307Y2467D1*
X7460Y2620D1*
G37*
G36*
X7599Y2481D2*
X7613Y2503D1*
X7616Y2529D1*
X7608Y2554D1*
X7589Y2573D1*
X7564Y2581D1*
X7538Y2578D1*
X7516Y2564D1*
X7363Y2411D1*
X7349Y2389D1*
X7346Y2363D1*
X7355Y2338D1*
X7373Y2319D1*
X7398Y2311D1*
X7424Y2314D1*
X7446Y2328D1*
X7599Y2481D1*
G37*
G36*
X7739Y2342D2*
X7753Y2364D1*
X7756Y2390D1*
X7747Y2415D1*
X7728Y2433D1*
X7704Y2442D1*
X7677Y2439D1*
X7655Y2425D1*
X7502Y2272D1*
X7488Y2250D1*
X7485Y2224D1*
X7494Y2199D1*
X7512Y2180D1*
X7537Y2172D1*
X7563Y2174D1*
X7586Y2188D1*
X7739Y2342D1*
G37*
G36*
X7878Y2202D2*
X7892Y2225D1*
X7895Y2251D1*
X7886Y2276D1*
X7868Y2294D1*
X7843Y2303D1*
X7817Y2300D1*
X7794Y2286D1*
X7641Y2133D1*
X7627Y2111D1*
X7624Y2084D1*
X7633Y2060D1*
X7652Y2041D1*
X7676Y2032D1*
X7702Y2035D1*
X7725Y2049D1*
X7878Y2202D1*
G37*
G36*
X8017Y2063D2*
X8031Y2085D1*
X8034Y2112D1*
X8025Y2136D1*
X8007Y2155D1*
X7982Y2164D1*
X7956Y2161D1*
X7934Y2147D1*
X7780Y1994D1*
X7766Y1971D1*
X7763Y1945D1*
X7772Y1920D1*
X7791Y1902D1*
X7816Y1893D1*
X7842Y1896D1*
X7864Y1910D1*
X8017Y2063D1*
G37*
G36*
X8156Y1924D2*
X8170Y1946D1*
X8173Y1972D1*
X8164Y1997D1*
X8146Y2016D1*
X8121Y2024D1*
X8095Y2021D1*
X8073Y2008D1*
X7920Y1854D1*
X7906Y1832D1*
X7903Y1806D1*
X7911Y1781D1*
X7930Y1763D1*
X7955Y1754D1*
X7981Y1757D1*
X8003Y1771D1*
X8156Y1924D1*
G37*
G36*
X8295Y1785D2*
X8309Y1807D1*
X8312Y1833D1*
X8304Y1858D1*
X8285Y1877D1*
X8260Y1885D1*
X8234Y1882D1*
X8212Y1868D1*
X8059Y1715D1*
X8045Y1693D1*
X8042Y1667D1*
X8051Y1642D1*
X8069Y1623D1*
X8094Y1615D1*
X8120Y1618D1*
X8142Y1632D1*
X8295Y1785D1*
G37*
G36*
X8212Y1075D2*
X8234Y1061D1*
X8260Y1058D1*
X8285Y1067D1*
X8304Y1085D1*
X8312Y1110D1*
X8309Y1136D1*
X8295Y1158D1*
X8142Y1312D1*
X8120Y1326D1*
X8094Y1328D1*
X8069Y1320D1*
X8051Y1301D1*
X8042Y1276D1*
X8045Y1250D1*
X8059Y1228D1*
X8212Y1075D1*
G37*
G36*
X8073Y936D2*
X8095Y922D1*
X8121Y919D1*
X8146Y927D1*
X8164Y946D1*
X8173Y971D1*
X8170Y997D1*
X8156Y1019D1*
X8003Y1172D1*
X7981Y1186D1*
X7955Y1189D1*
X7930Y1181D1*
X7911Y1162D1*
X7903Y1137D1*
X7906Y1111D1*
X7920Y1089D1*
X8073Y936D1*
G37*
G36*
X7934Y797D2*
X7956Y783D1*
X7982Y780D1*
X8007Y788D1*
X8025Y807D1*
X8034Y832D1*
X8031Y858D1*
X8017Y880D1*
X7864Y1033D1*
X7842Y1047D1*
X7816Y1050D1*
X7791Y1041D1*
X7772Y1023D1*
X7763Y998D1*
X7766Y972D1*
X7780Y950D1*
X7934Y797D1*
G37*
G36*
X7794Y657D2*
X7817Y643D1*
X7843Y640D1*
X7868Y649D1*
X7886Y668D1*
X7895Y692D1*
X7892Y719D1*
X7878Y741D1*
X7725Y894D1*
X7702Y908D1*
X7676Y911D1*
X7652Y902D1*
X7633Y884D1*
X7624Y859D1*
X7627Y833D1*
X7641Y810D1*
X7794Y657D1*
G37*
G36*
X7655Y518D2*
X7677Y504D1*
X7704Y501D1*
X7728Y510D1*
X7747Y528D1*
X7756Y553D1*
X7753Y579D1*
X7739Y602D1*
X7586Y755D1*
X7563Y769D1*
X7537Y772D1*
X7512Y763D1*
X7494Y744D1*
X7485Y720D1*
X7488Y693D1*
X7502Y671D1*
X7655Y518D1*
G37*
G36*
X7516Y379D2*
X7538Y365D1*
X7564Y362D1*
X7589Y371D1*
X7608Y389D1*
X7616Y414D1*
X7613Y440D1*
X7599Y462D1*
X7446Y616D1*
X7424Y630D1*
X7398Y632D1*
X7373Y624D1*
X7355Y605D1*
X7346Y580D1*
X7349Y554D1*
X7363Y532D1*
X7516Y379D1*
G37*
G36*
X7377Y240D2*
X7399Y226D1*
X7425Y223D1*
X7450Y231D1*
X7469Y250D1*
X7477Y275D1*
X7474Y301D1*
X7460Y323D1*
X7307Y476D1*
X7285Y490D1*
X7259Y493D1*
X7234Y485D1*
X7215Y466D1*
X7207Y441D1*
X7210Y415D1*
X7224Y393D1*
X7377Y240D1*
G37*
G36*
X6903Y393D2*
X6917Y415D1*
X6920Y441D1*
X6912Y466D1*
X6893Y485D1*
X6868Y493D1*
X6842Y490D1*
X6820Y476D1*
X6667Y323D1*
X6653Y301D1*
X6650Y275D1*
X6659Y250D1*
X6677Y231D1*
X6702Y223D1*
X6728Y226D1*
X6750Y240D1*
X6903Y393D1*
G37*
G36*
X6764Y532D2*
X6778Y554D1*
X6781Y580D1*
X6773Y605D1*
X6754Y624D1*
X6729Y632D1*
X6703Y630D1*
X6681Y616D1*
X6528Y462D1*
X6514Y440D1*
X6511Y414D1*
X6519Y389D1*
X6538Y371D1*
X6563Y362D1*
X6589Y365D1*
X6611Y379D1*
X6764Y532D1*
G37*
G36*
X6625Y671D2*
X6639Y693D1*
X6642Y720D1*
X6633Y744D1*
X6615Y763D1*
X6590Y772D1*
X6564Y769D1*
X6542Y755D1*
X6388Y602D1*
X6374Y579D1*
X6372Y553D1*
X6380Y528D1*
X6399Y510D1*
X6424Y501D1*
X6450Y504D1*
X6472Y518D1*
X6625Y671D1*
G37*
G36*
X6486Y810D2*
X6500Y833D1*
X6503Y859D1*
X6494Y884D1*
X6476Y902D1*
X6451Y911D1*
X6425Y908D1*
X6402Y894D1*
X6249Y741D1*
X6235Y719D1*
X6232Y692D1*
X6241Y668D1*
X6260Y649D1*
X6284Y640D1*
X6311Y643D1*
X6333Y657D1*
X6486Y810D1*
G37*
G36*
X6347Y950D2*
X6361Y972D1*
X6364Y998D1*
X6355Y1023D1*
X6336Y1041D1*
X6312Y1050D1*
X6285Y1047D1*
X6263Y1033D1*
X6110Y880D1*
X6096Y858D1*
X6093Y832D1*
X6102Y807D1*
X6120Y788D1*
X6145Y780D1*
X6171Y783D1*
X6194Y797D1*
X6347Y950D1*
G37*
G36*
X6208Y1089D2*
X6221Y1111D1*
X6224Y1137D1*
X6216Y1162D1*
X6197Y1181D1*
X6172Y1189D1*
X6146Y1186D1*
X6124Y1172D1*
X5971Y1019D1*
X5957Y997D1*
X5954Y971D1*
X5963Y946D1*
X5981Y927D1*
X6006Y919D1*
X6032Y922D1*
X6054Y936D1*
X6208Y1089D1*
G37*
G36*
X6068Y1228D2*
X6082Y1250D1*
X6085Y1276D1*
X6077Y1301D1*
X6058Y1320D1*
X6033Y1328D1*
X6007Y1326D1*
X5985Y1312D1*
X5832Y1158D1*
X5818Y1136D1*
X5815Y1110D1*
X5823Y1085D1*
X5842Y1067D1*
X5867Y1058D1*
X5893Y1061D1*
X5915Y1075D1*
X6068Y1228D1*
G37*
G36*
X7064Y497D2*
X6089Y1472D1*
X7064Y2446D1*
X8038Y1472D1*
X7064Y497D1*
G37*
D25*
X2350Y6400D3*
Y6046D3*
G36*
X4788Y5615D2*
X4512D1*
Y6285D1*
X4788D1*
Y5615D1*
G37*
G36*
X5260D2*
X4985D1*
Y6285D1*
X5260D1*
Y5615D1*
G37*
G36*
X5733D2*
X5457D1*
Y6285D1*
X5733D1*
Y5615D1*
G37*
G36*
X3250Y3760D2*
X4910D1*
Y2850D1*
X3250D1*
Y3760D1*
G37*
M02*
