G04 DipTrace Beta 2.3.5.2*
%INMinimOSD_MK2.GTO*%
%MOIN*%
%ADD20C,0.013*%
%ADD50C,0.0046*%
%ADD51C,0.0031*%
%FSLAX44Y44*%
G04*
G70*
G90*
G75*
G01*
%LNTop TopSilk*%
%LPD*%
D20*
X6065Y3885D3*
X1665Y6528D2*
D50*
X1522D1*
X1508Y6399D1*
X1522Y6413D1*
X1565Y6428D1*
X1608D1*
X1651Y6413D1*
X1680Y6385D1*
X1694Y6342D1*
Y6313D1*
X1680Y6270D1*
X1651Y6241D1*
X1608Y6227D1*
X1565D1*
X1522Y6241D1*
X1508Y6256D1*
X1493Y6284D1*
X1787Y6528D2*
X1901Y6227D1*
X2016Y6528D1*
X1503Y5598D2*
Y5297D1*
X1797Y5598D2*
Y5297D1*
X1596Y5598D1*
Y5297D1*
X1529Y608D2*
X1501Y594D1*
X1472Y565D1*
X1457Y537D1*
X1443Y494D1*
Y422D1*
X1457Y379D1*
X1472Y350D1*
X1501Y321D1*
X1529Y307D1*
X1587D1*
X1615Y321D1*
X1644Y350D1*
X1658Y379D1*
X1673Y422D1*
Y494D1*
X1658Y537D1*
X1644Y565D1*
X1615Y594D1*
X1587Y608D1*
X1529D1*
X1765D2*
Y393D1*
X1780Y350D1*
X1808Y321D1*
X1851Y307D1*
X1880D1*
X1923Y321D1*
X1952Y350D1*
X1966Y393D1*
Y608D1*
X2159D2*
Y307D1*
X2059Y608D2*
X2260D1*
X2404Y1766D2*
D51*
X2413Y1747D1*
X2442Y1718D1*
X2241D1*
X2394Y1647D2*
X2404D1*
X2423Y1637D1*
X2432Y1628D1*
X2442Y1608D1*
Y1570D1*
X2432Y1551D1*
X2423Y1542D1*
X2404Y1532D1*
X2385D1*
X2365Y1542D1*
X2337Y1561D1*
X2241Y1656D1*
Y1522D1*
X2342Y1461D2*
Y1350D1*
X2442Y1173D2*
Y1269D1*
X2356Y1278D1*
X2365Y1269D1*
X2375Y1240D1*
Y1212D1*
X2365Y1183D1*
X2346Y1164D1*
X2318Y1154D1*
X2299D1*
X2270Y1164D1*
X2251Y1183D1*
X2241Y1212D1*
Y1240D1*
X2251Y1269D1*
X2260Y1278D1*
X2279Y1288D1*
X2384Y4796D2*
X2393Y4777D1*
X2422Y4748D1*
X2221D1*
X2374Y4677D2*
X2384D1*
X2403Y4667D1*
X2412Y4658D1*
X2422Y4638D1*
Y4600D1*
X2412Y4581D1*
X2403Y4572D1*
X2384Y4562D1*
X2365D1*
X2345Y4572D1*
X2317Y4591D1*
X2221Y4686D1*
Y4552D1*
X2322Y4491D2*
Y4380D1*
X2422Y4203D2*
Y4299D1*
X2336Y4308D1*
X2345Y4299D1*
X2355Y4270D1*
Y4242D1*
X2345Y4213D1*
X2326Y4194D1*
X2298Y4184D1*
X2279D1*
X2250Y4194D1*
X2231Y4213D1*
X2221Y4242D1*
Y4270D1*
X2231Y4299D1*
X2240Y4308D1*
X2259Y4318D1*
X1683Y3222D2*
D50*
X1984Y3337D1*
X1683Y3452D1*
X1783Y3409D2*
Y3265D1*
X1913Y2914D2*
X1941Y2928D1*
X1970Y2957D1*
X1984Y2986D1*
Y3043D1*
X1970Y3072D1*
X1941Y3101D1*
X1913Y3115D1*
X1870Y3129D1*
X1798D1*
X1755Y3115D1*
X1726Y3101D1*
X1698Y3072D1*
X1683Y3043D1*
Y2986D1*
X1698Y2957D1*
X1726Y2928D1*
X1755Y2914D1*
X1798D1*
Y2986D1*
X1984Y2621D2*
X1683D1*
X1984Y2822D1*
X1683D1*
X1984Y2528D2*
X1683D1*
Y2428D1*
X1698Y2384D1*
X1726Y2356D1*
X1755Y2341D1*
X1798Y2327D1*
X1870D1*
X1913Y2341D1*
X1941Y2356D1*
X1970Y2384D1*
X1984Y2428D1*
Y2528D1*
X3489Y5234D2*
D51*
X3479Y5253D1*
X3460Y5273D1*
X3441Y5282D1*
X3403D1*
X3384Y5273D1*
X3365Y5253D1*
X3355Y5234D1*
X3345Y5206D1*
Y5158D1*
X3355Y5129D1*
X3365Y5110D1*
X3384Y5091D1*
X3403Y5081D1*
X3441D1*
X3460Y5091D1*
X3479Y5110D1*
X3489Y5129D1*
Y5158D1*
X3441D1*
X3685Y5282D2*
Y5081D1*
X3551Y5282D1*
Y5081D1*
X3746Y5282D2*
Y5081D1*
X3813D1*
X3842Y5091D1*
X3861Y5110D1*
X3871Y5129D1*
X3880Y5158D1*
Y5206D1*
X3871Y5234D1*
X3861Y5253D1*
X3842Y5273D1*
X3813Y5282D1*
X3746D1*
M02*
